Preview_recursive-mono-a_c-slant_9.45_weight_450.00_expression_1.00.ufo
<glyph name="exclam" format="2">
	<unicode hex="0021"/>
	<advance width="600"/>
	<outline>
		<contour>
			<point x="334.1" y="255" type="line"/>
			<point x="343.8" y="329.1"/>
			<point x="350.8" y="414"/>
			<point x="350.8" y="487.7" type="curve"/>
			<point x="350.8" y="661.3" type="line" smooth="yes"/>
			<point x="350.8" y="697.4"/>
			<point x="325.6" y="710"/>
			<point x="274.5" y="710" type="curve" smooth="yes"/>
			<point x="260.7" y="710"/>
			<point x="250.1" y="709"/>
			<point x="239" y="705.8" type="curve"/>
			<point x="245.9" y="670.5"/>
			<point x="247.8" y="634.9"/>
			<point x="247.8" y="597" type="curve" smooth="yes"/>
			<point x="247.8" y="488.8" type="line"/>
			<point x="247.8" y="380.4"/>
			<point x="254.5" y="288.4"/>
			<point x="270.9" y="272" type="curve" smooth="yes"/>
			<point x="282.9" y="260"/>
			<point x="302.6" y="255"/>
			<point x="326.8" y="255" type="curve"/>
		</contour>
		<component base="period"/>
	</outline>
</glyph>
<glyph name="comma" format="2">
	<unicode hex="002C"/>
	<advance width="600"/>
	<outline>
		<contour>
			<point x="251.5" y="-193" type="curve" smooth="yes"/>
			<point x="265.8" y="-193"/>
			<point x="272.9" y="-190.4"/>
			<point x="280.4" y="-182.9" type="curve"/>
			<point x="332.6764904985" y="-131.3210393115"/>
			<point x="381.3" y="-26.6"/>
			<point x="381.3" y="93.2" type="curve"/>
			<point x="381.3" y="128.9"/>
			<point x="353.6804347826" y="141.1"/>
			<point x="312.6" y="141.1" type="curve" smooth="yes"/>
			<point x="294.5054054054" y="141.1"/>
			<point x="282.2238531112" y="138.9343118668"/>
			<point x="266.8" y="133.4" type="curve"/>
			<point x="266.8" y="-11.6"/>
			<point x="248.0223872504" y="-83.7895535202"/>
			<point x="191.6" y="-174.8" type="curve"/>
			<point x="210" y="-187.9"/>
			<point x="225.9" y="-193"/>
		</contour>
	</outline>
</glyph>
<glyph name="period" format="2">
	<unicode hex="002E"/>
	<advance width="600"/>
	<outline>
		<contour>
			<point x="374.6" y="4.8" type="curve"/>
			<point x="374.6" y="89.2" type="line" smooth="yes"/>
			<point x="374.6" y="131.8129032258"/>
			<point x="337.8" y="149.3"/>
			<point x="284.5" y="149.3" type="curve" smooth="yes"/>
			<point x="262.2" y="149.3"/>
			<point x="242" y="145.2"/>
			<point x="225.4" y="137.7" type="curve"/>
			<point x="225.4" y="53.3" type="line" smooth="yes"/>
			<point x="225.4" y="10.6870967742"/>
			<point x="262.2" y="-6.8"/>
			<point x="315.5" y="-6.8" type="curve" smooth="yes"/>
			<point x="337.8" y="-6.8"/>
			<point x="358" y="-2.7"/>
		</contour>
	</outline>
</glyph>
<glyph name="six" format="2">
	<unicode hex="0036"/>
	<advance width="600"/>
	<outline>
		<contour>
			<point x="126.0153846154" y="128.7903846154" type="curve"/>
			<point x="104.8096153846" y="56.8942307692"/>
			<point x="182.0764041514" y="-20"/>
			<point x="276.0769230769" y="-20" type="curve"/>
			<point x="412.975" y="-20"/>
			<point x="494.8211538462" y="55.596978022"/>
			<point x="516.4942307692" y="182.0961538462" type="curve" smooth="yes"/>
			<point x="517.3692307692" y="187.0961538462" type="line" smooth="yes"/>
			<point x="534.8019230769" y="285.9595419847"/>
			<point x="471.2029778139" y="350.0158284555"/>
			<point x="413.8942307692" y="323.9" type="curve"/>
			<point x="441.7980769231" y="284.7980769231"/>
			<point x="447.9365384615" y="246.5942307692"/>
			<point x="438.7153846154" y="193.1846153846" type="curve" smooth="yes"/>
			<point x="437.5711538462" y="187.8826923077" type="line" smooth="yes"/>
			<point x="424.3115384615" y="106.9769230769"/>
			<point x="372.5519230769" y="56.8903846154"/>
			<point x="279.7519230769" y="56.8903846154" type="curve" smooth="yes"/>
			<point x="214.1586483517" y="56.8903846154"/>
			<point x="173.475" y="75.2903846154"/>
		</contour>
		<contour>
			<point x="212.4211538462" y="564.4211538462" type="curve"/>
			<point x="273.8942307692" y="615.9096153846"/>
			<point x="328.1491573034" y="641.0096153846"/>
			<point x="404.3923076923" y="641.0096153846" type="curve" smooth="yes"/>
			<point x="469.933479021" y="641.0096153846"/>
			<point x="517.3985122027" y="625.4262555805"/>
			<point x="551.3711538462" y="593.1038461538" type="curve"/>
			<point x="555.3711538462" y="593.1038461538" type="line"/>
			<point x="560.1211538462" y="603.2038461538"/>
			<point x="562.7" y="612.2038461538"/>
			<point x="565.325" y="626.1038461538" type="curve" smooth="yes"/>
			<point x="570.0365384615" y="654.8361650485"/>
			<point x="565.0119586149" y="670.5380413851"/>
			<point x="556.95" y="680.35" type="curve" smooth="yes"/>
			<point x="539.2540953797" y="701.478596928"/>
			<point x="488.0871901821" y="720"/>
			<point x="415.2038461538" y="720" type="curve" smooth="yes"/>
			<point x="311.2974759215" y="720"/>
			<point x="191.2653070063" y="648.4367519591"/>
		</contour>
		<contour>
			<point x="82.0384615385" y="344.1692307692" type="curve" smooth="yes"/>
			<point x="80.2211538462" y="333.6826923077" type="line" smooth="yes"/>
			<point x="42.6634615385" y="100.1846153846"/>
			<point x="118.3769230769" y="-20"/>
			<point x="276.0769230769" y="-20" type="curve" smooth="yes"/>
			<point x="287.2769230769" y="-20"/>
			<point x="307.7634615385" y="-7.342032967"/>
			<point x="312.6769230769" y="20.2" type="curve"/>
			<point x="177.9903846154" y="28.9"/>
			<point x="127.7673076923" y="132.4846153846"/>
			<point x="161.4884615385" y="331.9826923077" type="curve" smooth="yes"/>
			<point x="163.3057692308" y="341.9980769231" type="line" smooth="yes"/>
			<point x="202.075" y="571.625"/>
			<point x="274.8519230769" y="659.3"/>
			<point x="436.5884615385" y="682.1" type="curve"/>
			<point x="440.2903846154" y="702.7"/>
			<point x="430.1778257457" y="720"/>
			<point x="415.2038461538" y="720" type="curve" smooth="yes"/>
			<point x="238.6176880867" y="719.5288461538"/>
			<point x="125.8557692308" y="615.4961538462"/>
		</contour>
		<contour>
			<point x="335.8615384615" y="389.5557692308" type="curve" smooth="yes"/>
			<point x="260.5519230769" y="389.5557692308"/>
			<point x="185.7634615385" y="362.9557692308"/>
			<point x="143.9384615385" y="327.9557692308" type="curve" smooth="yes"/>
			<point x="130.6576923077" y="316.1557692308"/>
			<point x="123.0903846154" y="295.9596153846"/>
			<point x="115.3615384615" y="257.2634615385" type="curve"/>
			<point x="177.5269230769" y="297.4634615385"/>
			<point x="246.4596153846" y="318.1634615385"/>
			<point x="316.4596153846" y="318.1634615385" type="curve" smooth="yes"/>
			<point x="427.3596153846" y="318.1634615385"/>
			<point x="483.5826923077" y="255.4038461538"/>
			<point x="467.3615384615" y="160.2" type="curve" smooth="yes"/>
			<point x="465.6115384615" y="148.8"/>
			<point x="462.5923076923" y="136.9"/>
			<point x="457.7134615385" y="127.8" type="curve"/>
			<point x="483.3134615385" y="127.8"/>
			<point x="513.0615384615" y="160.2907568238"/>
			<point x="517.3692307692" y="186.7961538462" type="curve" smooth="yes"/>
			<point x="539.3115384615" y="315.8626373626"/>
			<point x="457.0519230769" y="389.5557692308"/>
		</contour>
	</outline>
</glyph>
<glyph name="question" format="2">
	<unicode hex="003F"/>
	<advance width="600"/>
	<outline>
		<contour>
			<point x="305" y="720" type="curve" smooth="yes"/>
			<point x="232.3" y="720"/>
			<point x="171.9" y="697.2"/>
			<point x="136.1" y="662.1" type="curve" smooth="yes"/>
			<point x="107.4" y="634.1"/>
			<point x="89.4" y="598.8"/>
			<point x="89.4" y="562" type="curve" smooth="yes"/>
			<point x="89.4" y="542.7"/>
			<point x="98.7" y="528.9"/>
			<point x="109.5" y="517.3" type="curve"/>
			<point x="114.2" y="517.3" type="line"/>
			<point x="149.9" y="591"/>
			<point x="209.5" y="640"/>
			<point x="307.1" y="640" type="curve" smooth="yes"/>
			<point x="403.7003979911" y="640"/>
			<point x="461.1" y="599.1"/>
			<point x="461.1" y="543.9" type="curve" smooth="yes"/>
			<point x="461.1" y="522.1"/>
			<point x="460.2" y="511.1"/>
			<point x="456.3" y="496.4" type="curve"/>
			<point x="498.2928558653" y="494.3401306782"/>
			<point x="515.4" y="528.1674418605"/>
			<point x="515.4" y="550.8" type="curve" smooth="yes"/>
			<point x="515.4" y="633.9"/>
			<point x="456.1" y="720"/>
		</contour>
		<contour>
			<point x="387.1" y="664.3" type="curve"/>
			<point x="415.8" y="627.9"/>
			<point x="434.4" y="601.5"/>
			<point x="434.4" y="552.9" type="curve" smooth="yes"/>
			<point x="434.4" y="505.7"/>
			<point x="417.2" y="467.8"/>
			<point x="356.3" y="423.9" type="curve" smooth="yes"/>
			<point x="334" y="407.9" type="line" smooth="yes"/>
			<point x="273.9" y="364.9"/>
			<point x="241" y="324.5"/>
			<point x="241" y="284.5" type="curve" smooth="yes"/>
			<point x="241" y="279.8" type="line" smooth="yes"/>
			<point x="241" y="260.9"/>
			<point x="262" y="241.5"/>
			<point x="308.7" y="241.5" type="curve" smooth="yes"/>
			<point x="315.3" y="241.5" type="line"/>
			<point x="315.3" y="249.4" type="line" smooth="yes"/>
			<point x="315.3" y="286.9"/>
			<point x="328.4" y="309.9"/>
			<point x="388.2" y="353.6" type="curve" smooth="yes"/>
			<point x="411.9" y="370.2" type="line" smooth="yes"/>
			<point x="485.1" y="422.3"/>
			<point x="515.4" y="475.7"/>
			<point x="515.4" y="545" type="curve" smooth="yes"/>
			<point x="515.4" y="550.8" type="line" smooth="yes"/>
			<point x="515.4" y="610"/>
			<point x="459.8" y="685.1"/>
		</contour>
		<contour>
			<point x="356.7" y="4.8" type="curve"/>
			<point x="356.7" y="83.2" type="line" smooth="yes"/>
			<point x="356.7" y="125.9"/>
			<point x="319.9" y="143.3"/>
			<point x="266.6" y="143.3" type="curve" smooth="yes"/>
			<point x="244.3" y="143.3"/>
			<point x="224.1" y="139.2"/>
			<point x="207.5" y="131.7" type="curve"/>
			<point x="207.5" y="53.3" type="line" smooth="yes"/>
			<point x="207.5" y="10.6"/>
			<point x="244.3" y="-6.8"/>
			<point x="297.6" y="-6.8" type="curve" smooth="yes"/>
			<point x="319.9" y="-6.8"/>
			<point x="340.1" y="-2.7"/>
		</contour>
	</outline>
</glyph>
<glyph name="A" format="2">
	<unicode hex="0041"/>
	<advance width="600"/>
	<outline>
		<contour>
			<point x="101.4269230769" y="-7" type="curve"/>
			<point x="159.3884615385" y="311.7057692308"/>
			<point x="243.7942307692" y="503.4480769231"/>
			<point x="377.9442307692" y="644.1980769231" type="curve"/>
			<point x="398.9115384615" y="665.5288461538"/>
			<point x="389.3807692308" y="710"/>
			<point x="357.9807692308" y="710" type="curve"/>
			<point x="333.2576923077" y="710" type="line"/>
			<point x="171.4326923077" y="543.5596153846"/>
			<point x="74.1576923077" y="318.5076923077"/>
			<point x="24.0134615385" y="26.2" type="curve"/>
			<point x="19.2346153846" y="-1.1"/>
			<point x="45.0538461538" y="-10"/>
			<point x="75.6538461538" y="-10" type="curve" smooth="yes"/>
			<point x="88.0538461538" y="-10"/>
			<point x="93.9269230769" y="-9"/>
		</contour>
		<contour>
			<point x="489.8269230769" y="-6.7" type="curve"/>
			<point x="531.3173076923" y="256.8"/>
			<point x="506.5903846154" y="483.7307692308"/>
			<point x="457.8" y="617.3576923077" type="curve"/>
			<point x="442.7634615385" y="658.9"/>
			<point x="428.5961538462" y="680.7"/>
			<point x="416.2538461538" y="695.6" type="curve" smooth="yes"/>
			<point x="409.4019230769" y="704"/>
			<point x="387.7807692308" y="710"/>
			<point x="357.9807692308" y="710" type="curve"/>
			<point x="340.9807692308" y="710"/>
			<point x="317.8961538462" y="680.1"/>
			<point x="314.4634615385" y="660" type="curve"/>
			<point x="321.2634615385" y="660"/>
			<point x="326.4634615385" y="660"/>
			<point x="331.2634615385" y="660" type="curve" smooth="yes"/>
			<point x="342.8634615385" y="660"/>
			<point x="350.8442307692" y="657.1307692308"/>
			<point x="365.0134615385" y="625.5307692308" type="curve"/>
			<point x="430.1826923077" y="488.1019230769"/>
			<point x="446.7423076923" y="270.6"/>
			<point x="411.2865384615" y="28.6" type="curve"/>
			<point x="409.6346153846" y="17.6"/>
			<point x="410.9615384615" y="11.9961538462"/>
			<point x="415.8865384615" y="6.1961538462" type="curve" smooth="yes"/>
			<point x="425.3365384615" y="-4.8019230769"/>
			<point x="445.1538461538" y="-10"/>
			<point x="465.3538461538" y="-10" type="curve" smooth="yes"/>
			<point x="474.9538461538" y="-10"/>
			<point x="482.7269230769" y="-9"/>
		</contour>
		<contour>
			<point x="43.9807692308" y="275.0576923077" type="line"/>
			<point x="41.625" y="260.5576923077" type="line" smooth="yes"/>
			<point x="37.5192307692" y="236.6288461538"/>
			<point x="38.4884615385" y="218.1096153846"/>
			<point x="48.7365384615" y="205.9096153846" type="curve" smooth="yes"/>
			<point x="52.2326923077" y="202.0096153846"/>
			<point x="55.4615384615" y="200.0096153846"/>
			<point x="61.3615384615" y="200.0096153846" type="curve"/>
			<point x="446.1615384615" y="200.0096153846" type="line"/>
			<point x="454.8442307692" y="252.4384615385"/>
			<point x="426.1807692308" y="275.0576923077"/>
			<point x="361.0807692308" y="275.0576923077" type="curve" smooth="yes"/>
		</contour>
	</outline>
	<anchor name="ogonek" x="490.2039658825" y="-7.3730769231"/>
	<anchor name="top" x="374.7280163547" y="710.3"/>
	<anchor name="ring" x="372.0993086849" y="703"/>
	<anchor name="bottom" x="251.104760804" y="-1"/>
</glyph>
<glyph name="D" format="2">
	<unicode hex="0044"/>
	<advance width="600"/>
	<outline>
		<contour>
			<point x="135.0480769231" y="25.3" type="curve"/>
			<point x="227.7980769231" y="577.1423076923" type="line" smooth="yes"/>
			<point x="237.9615384615" y="637.3711538462"/>
			<point x="215.8326923077" y="661.5"/>
			<point x="158.9326923077" y="661.5" type="curve"/>
			<point x="57.2307692308" y="55.8" type="line" smooth="yes"/>
			<point x="54.2019230769" y="39.5"/>
			<point x="86.6480769231" y="25.3"/>
		</contour>
		<contour>
			<point x="115.7615384615" y="700" type="curve"/>
			<point x="113.2826923077" y="692.8"/>
			<point x="111.4038461538" y="684.9"/>
			<point x="110.1923076923" y="675.9" type="curve"/>
			<point x="106.2884615385" y="652.1769230769"/>
			<point x="107.8634615385" y="638.2519230769"/>
			<point x="115.9134615385" y="628.1519230769" type="curve" smooth="yes"/>
			<point x="119.9384615385" y="623.2519230769"/>
			<point x="125.9384615385" y="621.9519230769"/>
			<point x="131.7384615385" y="621.9519230769" type="curve" smooth="yes"/>
			<point x="139.6384615385" y="621.9519230769"/>
			<point x="151.2403846154" y="623.8519230769"/>
			<point x="171.0134615385" y="626.7519230769" type="curve" smooth="yes"/>
			<point x="219.9596153846" y="634.8519230769"/>
			<point x="287.1038461538" y="641.9519230769"/>
			<point x="342.6038461538" y="641.9519230769" type="curve" smooth="yes"/>
			<point x="424.4903846154" y="641.9519230769"/>
			<point x="464.5769230769" y="624.6307692308"/>
			<point x="513.9442307692" y="574.6461538462" type="curve"/>
			<point x="557.7942307692" y="626.1692307692"/>
			<point x="475.9423076923" y="720"/>
			<point x="363.7884615385" y="720" type="curve" smooth="yes"/>
			<point x="284.9884615385" y="720"/>
			<point x="211.8538461538" y="715.4"/>
		</contour>
		<contour>
			<point x="552.8038461538" y="363.6788461538" type="curve" smooth="yes"/>
			<point x="560.8134615385" y="408.8846153846" type="line" smooth="yes"/>
			<point x="593.9961538462" y="597.8288461538"/>
			<point x="532.5884615385" y="720"/>
			<point x="363.7884615385" y="720" type="curve"/>
			<point x="348.0884615385" y="720"/>
			<point x="337.3115384615" y="701.3"/>
			<point x="333.6769230769" y="680" type="curve"/>
			<point x="480.6538461538" y="665.6"/>
			<point x="508.2980769231" y="584.4038461538"/>
			<point x="475.5192307692" y="395.3269230769" type="curve" smooth="yes"/>
			<point x="470.2019230769" y="365.525" type="line" smooth="yes"/>
			<point x="436.2788461538" y="172.8980769231"/>
			<point x="339.2653846154" y="69.5480769231"/>
			<point x="194.2403846154" y="69.5480769231" type="curve" smooth="yes"/>
			<point x="145.725" y="69.5480769231"/>
			<point x="115.3403846154" y="77.4480769231"/>
			<point x="81.6634615385" y="97.5480769231" type="curve"/>
			<point x="67.8153846154" y="87.8480769231"/>
			<point x="60.4615384615" y="75.8230769231"/>
			<point x="57.2307692308" y="55.8" type="curve" smooth="yes"/>
			<point x="51.7115384615" y="22.7"/>
			<point x="105.7538461538" y="-10"/>
			<point x="183.6538461538" y="-10" type="curve" smooth="yes"/>
			<point x="188.3538461538" y="-10" type="line" smooth="yes"/>
			<point x="380.0903846154" y="-10"/>
			<point x="510.0634615385" y="124.5326923077"/>
		</contour>
	</outline>
	<anchor name="top" x="362.4458376381" y="711"/>
</glyph>
<glyph name="J" format="2">
	<unicode hex="004A"/>
	<advance width="600"/>
	<outline>
		<contour>
			<point x="215.7615384615" y="700" type="line"/>
			<point x="213.9865384615" y="695.2"/>
			<point x="212.3096153846" y="688.8"/>
			<point x="211.5019230769" y="682.2" type="curve" smooth="yes"/>
			<point x="207.8" y="660.0711538462"/>
			<point x="209.975" y="645.1519230769"/>
			<point x="219.6230769231" y="633.5519230769" type="curve" smooth="yes"/>
			<point x="227.1115384615" y="624.8519230769"/>
			<point x="238.2384615385" y="621.9519230769"/>
			<point x="263.6384615385" y="621.9519230769" type="curve" smooth="yes"/>
			<point x="522.6384615385" y="621.9519230769" type="line"/>
			<point x="532.3307692308" y="679.6807692308"/>
			<point x="524.2615384615" y="700"/>
			<point x="496.9615384615" y="700" type="curve"/>
		</contour>
		<contour>
			<point x="491.5769230769" y="213.4326923077" type="curve" smooth="yes"/>
			<point x="568.7115384615" y="668.6980769231" type="line" smooth="yes"/>
			<point x="572.0096153846" y="688.1"/>
			<point x="554.0615384615" y="700"/>
			<point x="508.4615384615" y="700" type="curve" smooth="yes"/>
			<point x="491.2615384615" y="700" type="line"/>
			<point x="412.5115384615" y="230" type="line" smooth="yes"/>
			<point x="396.1557692308" y="134.0681129216"/>
			<point x="378.0980769231" y="98.9"/>
			<point x="308.1730769231" y="40.2" type="curve"/>
			<point x="370.5020467879" y="15.4377515352"/>
			<point x="469.4326923077" y="84.8781065089"/>
		</contour>
		<contour>
			<point x="245.2211538462" y="58.0480769231" type="curve" smooth="yes"/>
			<point x="168.4346153846" y="58.0480769231"/>
			<point x="129.35" y="77.7442307692"/>
			<point x="78.1711538462" y="110.9480769231" type="curve"/>
			<point x="74.1711538462" y="110.9480769231" type="line"/>
			<point x="70.3769230769" y="102.6480769231"/>
			<point x="68.125" y="94.0423076923"/>
			<point x="66.375" y="84.8" type="curve"/>
			<point x="61.2596153846" y="55.0846153846"/>
			<point x="65.5961538462" y="35.1788461538"/>
			<point x="74.5519230769" y="24.2711538462" type="curve" smooth="yes"/>
			<point x="99.9953908685" y="-5.68192933"/>
			<point x="163.1600098619" y="-20"/>
			<point x="227.3846153846" y="-20" type="curve" smooth="yes"/>
			<point x="234.8269230769" y="-20" type="line" smooth="yes"/>
			<point x="384.6769230769" y="-20"/>
			<point x="466.1346153846" y="64.8975961538"/>
			<point x="491.5769230769" y="213.4326923077" type="curve"/>
			<point x="493.5288461538" y="226.6758241758"/>
			<point x="486.3769230769" y="250.4903846154"/>
			<point x="458.2769230769" y="250.4903846154" type="curve"/>
			<point x="424.6653846154" y="122.1192307692"/>
			<point x="347.9918669872" y="58.0480769231"/>
		</contour>
	</outline>
	<anchor name="top" x="373.3458376381" y="711"/>
</glyph>
<glyph name="K" format="2">
	<unicode hex="004B"/>
	<advance width="600"/>
	<outline>
		<contour>
			<point x="153.2057692308" y="706.5961538462" type="curve"/>
			<point x="153.7596153846" y="671.1"/>
			<point x="149.3076923077" y="634.9"/>
			<point x="143.0480769231" y="597" type="curve" smooth="yes"/>
			<point x="46.9326923077" y="26.2" type="line" smooth="yes"/>
			<point x="42.4230769231" y="-1.7"/>
			<point x="69.1730769231" y="-10"/>
			<point x="105.5730769231" y="-10" type="curve" smooth="yes"/>
			<point x="113.0730769231" y="-10"/>
			<point x="119.1730769231" y="-9.7"/>
			<point x="123.875" y="-9.1" type="curve"/>
			<point x="235.2019230769" y="650.3" type="line" smooth="yes"/>
			<point x="238.5673076923" y="671.1"/>
			<point x="238.6288461538" y="686.9019230769"/>
			<point x="228.7461538462" y="698.4" type="curve" smooth="yes"/>
			<point x="221.1134615385" y="706.3019230769"/>
			<point x="204.2980769231" y="710"/>
			<point x="180.0980769231" y="710" type="curve" smooth="yes"/>
			<point x="170.4980769231" y="710"/>
			<point x="162.4192307692" y="709"/>
		</contour>
		<contour>
			<point x="547.1442307692" y="710" type="curve"/>
			<point x="532.9442307692" y="710" type="line"/>
			<point x="430.4788461538" y="470.6"/>
			<point x="281.4326923077" y="358.525"/>
			<point x="115.3596153846" y="294.4807692308" type="curve"/>
			<point x="108.1634615385" y="253.625"/>
			<point x="114.2596153846" y="230.2"/>
			<point x="132.175" y="234.9" type="curve"/>
			<point x="299.0814868189" y="288.3545115848"/>
			<point x="456.5346153846" y="401.4019230769"/>
			<point x="553.7038461538" y="563.5576923077" type="curve" smooth="yes"/>
			<point x="601.1865384615" y="642.1"/>
			<point x="607.1461538462" y="659.5"/>
			<point x="610.3096153846" y="676.8942307692" type="curve" smooth="yes"/>
			<point x="613.675" y="696.2"/>
			<point x="596.5980769231" y="710"/>
		</contour>
		<contour>
			<point x="306.4269230769" y="363.9384615385" type="line"/>
			<point x="258.5192307692" y="337.7384615385"/>
			<point x="243.2961538462" y="315"/>
			<point x="249.0384615385" y="300.4" type="curve" smooth="yes"/>
			<point x="366.7519230769" y="57.5" type="line" smooth="yes"/>
			<point x="392.4923076923" y="1.2"/>
			<point x="423.3817047817" y="-20"/>
			<point x="463.625" y="-20" type="curve" smooth="yes"/>
			<point x="467.225" y="-20" type="line" smooth="yes"/>
			<point x="507.7153846154" y="-20"/>
			<point x="524.6769230769" y="2.7442307692"/>
			<point x="531.1384615385" y="40.2288461538" type="curve" smooth="yes"/>
			<point x="534.1673076923" y="56.9288461538"/>
			<point x="534.6173076923" y="69.6288461538"/>
			<point x="534.3423076923" y="82.2288461538" type="curve"/>
			<point x="530.3423076923" y="82.2288461538" type="line"/>
			<point x="516.670202733" y="71.6375987856"/>
			<point x="501.8134615385" y="65.5288461538"/>
			<point x="484.7807692308" y="65.5288461538" type="curve" smooth="yes"/>
			<point x="462.2987179487" y="65.5288461538"/>
			<point x="445.5057692308" y="79.1384615385"/>
			<point x="429.6923076923" y="112.9384615385" type="curve" smooth="yes"/>
		</contour>
	</outline>
	<anchor name="bottom" x="280.504760804" y="-1"/>
</glyph>
<glyph name="M" format="2">
	<unicode hex="004D"/>
	<advance width="600"/>
	<outline>
		<contour>
			<point x="103.6634615385" y="-9.1" type="curve"/>
			<point x="115.5769230769" y="59.9"/>
			<point x="127.2211538462" y="128.9"/>
			<point x="138.6634615385" y="197.9" type="curve" smooth="yes"/>
			<point x="165.0480769231" y="352.6"/>
			<point x="188.8942307692" y="549.8"/>
			<point x="211.5096153846" y="684.6" type="curve" smooth="yes"/>
			<point x="212.8557692308" y="690.5"/>
			<point x="211.9326923077" y="697.2"/>
			<point x="208.4365384615" y="701.1" type="curve" smooth="yes"/>
			<point x="203.2134615385" y="707.4"/>
			<point x="199.4865384615" y="710"/>
			<point x="188.0865384615" y="710" type="curve" smooth="yes"/>
			<point x="174.9865384615" y="710"/>
			<point x="159.0153846154" y="708.5692307692"/>
			<point x="140.0346153846" y="704.6942307692" type="curve"/>
			<point x="139.8576923077" y="670.6980769231"/>
			<point x="135.5" y="636"/>
			<point x="129.4423076923" y="600" type="curve" smooth="yes"/>
			<point x="32.7211538462" y="25.6" type="line" smooth="yes"/>
			<point x="31.2403846154" y="16.7"/>
			<point x="32.9653846154" y="10.9"/>
			<point x="37.2884615385" y="5.5" type="curve" smooth="yes"/>
			<point x="45.9384615385" y="-4.9"/>
			<point x="65.7615384615" y="-10"/>
			<point x="87.1615384615" y="-10" type="curve" smooth="yes"/>
			<point x="92.8615384615" y="-10"/>
			<point x="99.1634615385" y="-9.7"/>
		</contour>
		<contour>
			<point x="491.1346153846" y="-6.7" type="curve"/>
			<point x="490.8923076923" y="28"/>
			<point x="494.25" y="63"/>
			<point x="500.3076923077" y="100" type="curve" smooth="yes"/>
			<point x="597.8365384615" y="678.6" type="line" smooth="yes"/>
			<point x="598.7115384615" y="685.1392307692"/>
			<point x="597.4576923077" y="690.6"/>
			<point x="593.6615384615" y="694.8" type="curve" smooth="yes"/>
			<point x="585.7080342979" y="703.3592733944"/>
			<point x="563.2115034965" y="710"/>
			<point x="527.6865384615" y="710" type="curve" smooth="yes"/>
			<point x="522.5" y="710" type="line"/>
			<point x="532.75" y="699.6"/>
			<point x="533.4903846154" y="692.3"/>
			<point x="529.8557692308" y="670" type="curve" smooth="yes"/>
			<point x="508.0480769231" y="541.6"/>
			<point x="455.0096153846" y="287.7"/>
			<point x="438.25" y="189.5" type="curve" smooth="yes"/>
			<point x="430.1730769231" y="139.4"/>
			<point x="421.625" y="89.7"/>
			<point x="413.0769230769" y="39.6" type="curve" smooth="yes"/>
			<point x="410.1826923077" y="22.3"/>
			<point x="411.4365384615" y="13"/>
			<point x="417.3884615385" y="5.5" type="curve" smooth="yes"/>
			<point x="426.0384615385" y="-4.9"/>
			<point x="443.7615384615" y="-10"/>
			<point x="465.1615384615" y="-10" type="curve"/>
			<point x="473.5615384615" y="-10"/>
			<point x="482.4346153846" y="-9"/>
		</contour>
		<contour>
			<point x="188.0865384615" y="710" type="line"/>
			<point x="183.4846153846" y="481.2"/>
			<point x="221.7115384615" y="278.5"/>
			<point x="274.6442307692" y="215" type="curve"/>
			<point x="277.9711538462" y="211"/>
			<point x="285" y="208.6"/>
			<point x="290" y="208.6" type="curve"/>
			<point x="300.5" y="208.6"/>
			<point x="312.9944797309" y="246.3952697283"/>
			<point x="315.5076923077" y="280.3" type="curve"/>
			<point x="270.0889780184" y="355.9640840062"/>
			<point x="247.6509127258" y="523.617565185"/>
			<point x="251.2711538462" y="681.7" type="curve"/>
			<point x="251.3942307692" y="698.2134615385"/>
			<point x="230.1192307692" y="710"/>
			<point x="191.3865384615" y="710" type="curve"/>
		</contour>
		<contour>
			<point x="522.5" y="710" type="curve" smooth="yes"/>
			<point x="512.5" y="710"/>
			<point x="502.8346153846" y="709"/>
			<point x="494.5923076923" y="706.7" type="curve"/>
			<point x="437.7130246622" y="503.6801834162"/>
			<point x="358.0704494102" y="359.9572833584"/>
			<point x="284.7980769231" y="283.5942307692" type="curve"/>
			<point x="277.293447571" y="277.0508788126"/>
			<point x="277.7" y="208.6"/>
			<point x="290" y="208.6" type="curve"/>
			<point x="299" y="208.6" type="line"/>
			<point x="388.5980769231" y="287.4326923077"/>
			<point x="499.4769230769" y="493.4711538462"/>
			<point x="539.3173076923" y="665.8711538462" type="curve"/>
			<point x="547.375" y="698.8711538462"/>
			<point x="544" y="710"/>
		</contour>
	</outline>
</glyph>
<glyph name="P" format="2">
	<unicode hex="0050"/>
	<advance width="600"/>
	<outline>
		<contour>
			<point x="138.3288461538" y="-5.8" type="curve"/>
			<point x="137.4865384615" y="29.5"/>
			<point x="141.8461538462" y="65.1"/>
			<point x="148.1057692308" y="103" type="curve" smooth="yes"/>
			<point x="228" y="578.1519230769" type="line" smooth="yes"/>
			<point x="238.1634615385" y="638.3807692308"/>
			<point x="216.2365384615" y="662.5096153846"/>
			<point x="159.3365384615" y="662.5096153846" type="curve"/>
			<point x="56.8269230769" y="53" type="line" smooth="yes"/>
			<point x="52.7884615385" y="30.1"/>
			<point x="52.8980769231" y="13.9"/>
			<point x="62.1076923077" y="2.2" type="curve" smooth="yes"/>
			<point x="69.1288461538" y="-6.1"/>
			<point x="80.6538461538" y="-10"/>
			<point x="105.4538461538" y="-10" type="curve" smooth="yes"/>
			<point x="117.1538461538" y="-10"/>
			<point x="127.0269230769" y="-8.7"/>
		</contour>
		<contour>
			<point x="115.7615384615" y="700" type="curve"/>
			<point x="113.2826923077" y="692.8"/>
			<point x="111.4038461538" y="684.9"/>
			<point x="110.1923076923" y="675.9" type="curve"/>
			<point x="106.2884615385" y="652.1769230769"/>
			<point x="107.8634615385" y="638.2519230769"/>
			<point x="115.9134615385" y="628.1519230769" type="curve" smooth="yes"/>
			<point x="119.9384615385" y="623.2519230769"/>
			<point x="125.9384615385" y="621.9519230769"/>
			<point x="131.7384615385" y="621.9519230769" type="curve" smooth="yes"/>
			<point x="139.6384615385" y="621.9519230769"/>
			<point x="151.2403846154" y="623.8519230769"/>
			<point x="171.0134615385" y="626.7519230769" type="curve" smooth="yes"/>
			<point x="219.9596153846" y="634.8519230769"/>
			<point x="287.1038461538" y="641.9519230769"/>
			<point x="342.6038461538" y="641.9519230769" type="curve" smooth="yes"/>
			<point x="432.5038461538" y="641.9519230769"/>
			<point x="469.3692307692" y="625.7403846154"/>
			<point x="516.2076923077" y="574.7346153846" type="curve"/>
			<point x="564.6057692308" y="631.95"/>
			<point x="470.7173076923" y="720"/>
			<point x="369.7788461538" y="720" type="curve" smooth="yes"/>
			<point x="290.9788461538" y="720"/>
			<point x="211.8538461538" y="715.4"/>
		</contour>
		<contour>
			<point x="564.6057692308" y="463.4461538462" type="curve" smooth="yes"/>
			<point x="573.2211538462" y="514.8288461538" type="line" smooth="yes"/>
			<point x="593.3461538462" y="632.1903846154"/>
			<point x="514.1480769231" y="720"/>
			<point x="369.7788461538" y="720" type="curve"/>
			<point x="343.3788461538" y="720"/>
			<point x="331.0115384615" y="705.1"/>
			<point x="327.5788461538" y="682.7" type="curve"/>
			<point x="450.2692307692" y="677.3"/>
			<point x="509.8019230769" y="624.9923076923"/>
			<point x="490.7538461538" y="509.7980769231" type="curve" smooth="yes"/>
			<point x="484.2923076923" y="471.6980769231" type="line" smooth="yes"/>
			<point x="461.8788461538" y="339.3903846154"/>
			<point x="343.7711538462" y="254.5"/>
			<point x="216.8153846154" y="254.5" type="curve" smooth="yes"/>
			<point x="182.0153846154" y="254.5"/>
			<point x="172.7173076923" y="255.4"/>
			<point x="160.4211538462" y="257.5" type="curve"/>
			<point x="154.7442307692" y="252.7"/>
			<point x="151.5692307692" y="248.2"/>
			<point x="150.4923076923" y="240.2" type="curve" smooth="yes"/>
			<point x="145.7134615385" y="213.275"/>
			<point x="184.725" y="178.8519230769"/>
			<point x="220.125" y="178.8519230769" type="curve" smooth="yes"/>
			<point x="223.825" y="178.8519230769" type="line" smooth="yes"/>
			<point x="389.8480769231" y="178.8519230769"/>
			<point x="534.3846153846" y="286.4788461538"/>
		</contour>
	</outline>
</glyph>
<glyph name="Q" format="2">
	<unicode hex="0051"/>
	<advance width="600"/>
	<outline>
		<contour>
			<point x="370.6173076923" y="720" type="curve" smooth="yes"/>
			<point x="218.3173076923" y="720"/>
			<point x="114.75" y="581.5788461538"/>
			<point x="74.1634615385" y="343.0230769231" type="curve" smooth="yes"/>
			<point x="69.5865384615" y="315.8096153846" type="line" smooth="yes"/>
			<point x="33.8461538462" y="105.3980769231"/>
			<point x="103.2326923077" y="-20"/>
			<point x="264.7192307692" y="-20" type="curve" smooth="yes"/>
			<point x="285.3192307692" y="-20"/>
			<point x="300.2346153846" y="1.925"/>
			<point x="305.5519230769" y="34.4480769231" type="curve"/>
			<point x="162.3846153846" y="39.3480769231"/>
			<point x="119.9038461538" y="139.6923076923"/>
			<point x="148.6442307692" y="311.1961538462" type="curve" smooth="yes"/>
			<point x="152.0769230769" y="331.6673076923" type="line" smooth="yes"/>
			<point x="184.6538461538" y="528.0307692308"/>
			<point x="255.775" y="642.2519230769"/>
			<point x="369.075" y="642.2519230769" type="curve" smooth="yes"/>
			<point x="407.275" y="642.2519230769"/>
			<point x="439.4115384615" y="631.4519230769"/>
			<point x="477.0384615385" y="607.3519230769" type="curve"/>
			<point x="512.5519230769" y="645.1346153846"/>
			<point x="452.9615384615" y="720"/>
		</contour>
		<contour>
			<point x="264.7192307692" y="-20" type="curve" smooth="yes"/>
			<point x="418.6346153846" y="-20"/>
			<point x="513.6538461538" y="104.4615384615"/>
			<point x="550.6730769231" y="323.8615384615" type="curve" smooth="yes"/>
			<point x="555.25" y="350.6038461538" type="line" smooth="yes"/>
			<point x="593.3461538462" y="575.5269230769"/>
			<point x="532.9115384615" y="720"/>
			<point x="370.6173076923" y="720" type="curve" smooth="yes"/>
			<point x="350.0173076923" y="720"/>
			<point x="333.15" y="698.075"/>
			<point x="327.8326923077" y="665.5519230769" type="curve"/>
			<point x="470.8653846154" y="660.6519230769"/>
			<point x="506.6153846154" y="541.0980769231"/>
			<point x="475.5192307692" y="353.8038461538" type="curve" smooth="yes"/>
			<point x="472.0865384615" y="333.3326923077" type="line" smooth="yes"/>
			<point x="442.8076923077" y="156.125"/>
			<point x="375.725" y="57.7480769231"/>
			<point x="262.425" y="57.7480769231" type="curve" smooth="yes"/>
			<point x="224.225" y="57.7480769231"/>
			<point x="191.6288461538" y="67.1769230769"/>
			<point x="156.3461538462" y="92.6480769231" type="curve"/>
			<point x="112.9923076923" y="56.65"/>
			<point x="180.0192307692" y="-20"/>
		</contour>
		<contour>
			<point x="361.9423076923" y="65.7730769231" type="line"/>
			<point x="313.8326923077" y="39.5730769231"/>
			<point x="297.1730769231" y="19.8"/>
			<point x="303.1173076923" y="5.3980769231" type="curve" smooth="yes"/>
			<point x="343.2846153846" y="-78.5076923077" type="line" smooth="yes"/>
			<point x="372.8269230769" y="-138.4115384615"/>
			<point x="401.4788461538" y="-163.6"/>
			<point x="443.9788461538" y="-163.6" type="curve" smooth="yes"/>
			<point x="447.5788461538" y="-163.6" type="line" smooth="yes"/>
			<point x="487.5615384615" y="-163.6"/>
			<point x="511.2365384615" y="-142.6826923077"/>
			<point x="518.775" y="-99.1826923077" type="curve" smooth="yes"/>
			<point x="521.6019230769" y="-83.6826923077"/>
			<point x="521.7519230769" y="-70.2788461538"/>
			<point x="521.0057692308" y="-57.6788461538" type="curve"/>
			<point x="517.0057692308" y="-57.6788461538" type="line"/>
			<point x="504.8576923077" y="-67.4788461538"/>
			<point x="490.1134615385" y="-72.9788461538"/>
			<point x="473.8134615385" y="-72.9788461538" type="curve" smooth="yes"/>
			<point x="447.2134615385" y="-72.9788461538"/>
			<point x="428.5692307692" y="-62.275"/>
			<point x="411.95" y="-30.8692307692" type="curve" smooth="yes"/>
		</contour>
	</outline>
</glyph>
<glyph name="S" format="2">
	<unicode hex="0053"/>
	<advance width="600"/>
	<outline>
		<contour>
			<point x="448.7153846154" y="720" type="curve" smooth="yes"/>
			<point x="298.3307692308" y="720"/>
			<point x="138.9903846154" y="588.7942307692"/>
			<point x="117.25" y="458.4692307692" type="curve" smooth="yes"/>
			<point x="115.0288461538" y="445.55" type="line" smooth="yes"/>
			<point x="109.8461538462" y="416.8807692308"/>
			<point x="148.6403846154" y="383.7826923077"/>
			<point x="187.0403846154" y="379.5826923077" type="curve"/>
			<point x="186.1076923077" y="402.3538461538"/>
			<point x="190.0480769231" y="423.9961538462"/>
			<point x="193.4134615385" y="446.4673076923" type="curve" smooth="yes"/>
			<point x="210.3076923077" y="541.7403846154"/>
			<point x="339.6711538462" y="641.9519230769"/>
			<point x="438.2096153846" y="641.9519230769" type="curve" smooth="yes"/>
			<point x="503.4116177637" y="641.9519230769"/>
			<point x="525.7769230769" y="612.2692307692"/>
			<point x="514.8730769231" y="549.7096153846" type="curve"/>
			<point x="540.2057692308" y="549.7096153846"/>
			<point x="557.1730769231" y="569.7390532544"/>
			<point x="559.125" y="581.6" type="curve" smooth="yes"/>
			<point x="566.125" y="622.9804733728"/>
			<point x="562.4498440767" y="654.6213097694"/>
			<point x="540.8038461538" y="680.5076923077" type="curve" smooth="yes"/>
			<point x="522.5730769231" y="702.5076923077"/>
			<point x="497.5134615385" y="720"/>
		</contour>
		<contour>
			<point x="379" y="301.4576923077" type="curve" smooth="yes"/>
			<point x="296.8865384615" y="333.3576923077" type="line" smooth="yes"/>
			<point x="192.45" y="374.0288461538"/>
			<point x="186.6153846154" y="407.95"/>
			<point x="193.4134615385" y="446.4673076923" type="curve" smooth="yes"/>
			<point x="197.3846153846" y="468.8384615385"/>
			<point x="201.65" y="485.8096153846"/>
			<point x="209.9865384615" y="511.2519230769" type="curve"/>
			<point x="165.2019230769" y="504.6519230769"/>
			<point x="122.7692307692" y="493.0923076923"/>
			<point x="115.0288461538" y="445.55" type="curve" smooth="yes"/>
			<point x="103.5192307692" y="379.0076923077"/>
			<point x="133.5480769231" y="320.8846153846"/>
			<point x="265.3673076923" y="268.7846153846" type="curve" smooth="yes"/>
			<point x="347.5807692308" y="236.1846153846" type="line" smooth="yes"/>
			<point x="427.8307692308" y="204.3846153846"/>
			<point x="445.7038461538" y="171.2134615385"/>
			<point x="432.3769230769" y="104.8153846154" type="curve" smooth="yes"/>
			<point x="431.7038461538" y="100.4153846154"/>
			<point x="430.0884615385" y="93.9153846154"/>
			<point x="428.9442307692" y="89.2153846154" type="curve"/>
			<point x="458.7865384615" y="92.7153846154"/>
			<point x="503.4634615385" y="119.9653846154"/>
			<point x="507.3673076923" y="143.5653846154" type="curve"/>
			<point x="517.3288461538" y="201.9326923077"/>
			<point x="484.2653846154" y="260.4576923077"/>
		</contour>
		<contour>
			<point x="261.7692307692" y="-14.4" type="curve" smooth="yes"/>
			<point x="396.3365384615" y="-14.4"/>
			<point x="489.1269230769" y="35.6942307692"/>
			<point x="505.6173076923" y="133.8519230769" type="curve" smooth="yes"/>
			<point x="507.3673076923" y="143.5653846154" type="line" smooth="yes"/>
			<point x="511.7423076923" y="168.7923076923"/>
			<point x="484.2826923077" y="197.7192307692"/>
			<point x="462.225" y="199.7192307692" type="curve"/>
			<point x="461.5519230769" y="195.7192307692"/>
			<point x="460.6096153846" y="190.4480769231"/>
			<point x="458.9942307692" y="180.8480769231" type="curve" smooth="yes"/>
			<point x="446.9461538462" y="104.8634615385"/>
			<point x="376.0442307692" y="63.6480769231"/>
			<point x="271.8653846154" y="63.6480769231" type="curve" smooth="yes"/>
			<point x="161.3596153846" y="63.6480769231"/>
			<point x="102.5134615385" y="90.6769230769"/>
			<point x="60.1519230769" y="149.0634615385" type="curve"/>
			<point x="56.1519230769" y="149.0634615385" type="line"/>
			<point x="49.1903846154" y="137.5769230769"/>
			<point x="44.7365384615" y="125.6903846154"/>
			<point x="42.1115384615" y="107.8615384615" type="curve" smooth="yes"/>
			<point x="37.8711538462" y="80.9076923077"/>
			<point x="41.7826923077" y="64.175"/>
			<point x="55.0288461538" y="48.775" type="curve" smooth="yes"/>
			<point x="88.4153846154" y="10.9461538462"/>
			<point x="158.4365384615" y="-14.4"/>
		</contour>
		<contour>
			<point x="536.5096153846" y="447.9" type="curve"/>
			<point x="559.125" y="581.6" type="line" smooth="yes"/>
			<point x="572.9230769231" y="663.9"/>
			<point x="526.2769230769" y="677.2"/>
			<point x="488.4211538462" y="663.9" type="curve"/>
			<point x="488.1461538462" y="631.7826923077"/>
			<point x="482.8269230769" y="602.9"/>
			<point x="476.5" y="564.9" type="curve" smooth="yes"/>
			<point x="464.5192307692" y="493.4" type="line" smooth="yes"/>
			<point x="461.8269230769" y="476.8"/>
			<point x="463.2057692308" y="464.9"/>
			<point x="470.1596153846" y="456.6" type="curve" smooth="yes"/>
			<point x="476.8096153846" y="448.2"/>
			<point x="489.2076923077" y="444"/>
			<point x="509.1076923077" y="444" type="curve" smooth="yes"/>
			<point x="520.2076923077" y="444"/>
			<point x="529.0076923077" y="445.3"/>
		</contour>
	</outline>
	<anchor name="top" x="412.8458376381" y="711"/>
	<anchor name="bottom" x="255.004760804" y="-1"/>
</glyph>
<glyph name="T" format="2">
	<unicode hex="0054"/>
	<advance width="600"/>
	<outline>
		<contour>
			<point x="119.6615384615" y="700" type="line"/>
			<point x="116.4865384615" y="694.7019230769"/>
			<point x="114.4096153846" y="687.1038461538"/>
			<point x="112.8615384615" y="678.7961538462" type="curve" smooth="yes"/>
			<point x="109.6307692308" y="660.7538461538"/>
			<point x="111.775" y="645.4519230769"/>
			<point x="121.4942307692" y="634.2519230769" type="curve" smooth="yes"/>
			<point x="129.2115384615" y="624.8519230769"/>
			<point x="142.2384615385" y="621.9519230769"/>
			<point x="171.0384615385" y="621.9519230769" type="curve" smooth="yes"/>
			<point x="611.0384615385" y="621.9519230769" type="line"/>
			<point x="614.2173076923" y="629.2519230769"/>
			<point x="617.2" y="638.7519230769"/>
			<point x="619.1519230769" y="649.1519230769" type="curve" smooth="yes"/>
			<point x="623.9307692308" y="680.175"/>
			<point x="619.3634615385" y="700"/>
			<point x="592.4615384615" y="700" type="curve" smooth="yes"/>
		</contour>
		<contour>
			<point x="304.3288461538" y="-5.8" type="curve"/>
			<point x="303.4865384615" y="29.5"/>
			<point x="307.8461538462" y="65.1"/>
			<point x="314.1057692308" y="103" type="curve" smooth="yes"/>
			<point x="392.7211538462" y="569.9519230769" type="line" smooth="yes"/>
			<point x="402.8846153846" y="630.6519230769"/>
			<point x="385.4230769231" y="653.1519230769"/>
			<point x="323.9230769231" y="653.1519230769" type="curve"/>
			<point x="222.8269230769" y="53" type="line" smooth="yes"/>
			<point x="218.7884615385" y="30.1"/>
			<point x="218.8980769231" y="13.9"/>
			<point x="228.1076923077" y="2.2" type="curve" smooth="yes"/>
			<point x="235.1288461538" y="-6.1"/>
			<point x="246.6538461538" y="-10"/>
			<point x="271.4538461538" y="-10" type="curve" smooth="yes"/>
			<point x="283.1538461538" y="-10"/>
			<point x="293.0269230769" y="-8.7"/>
		</contour>
	</outline>
	<anchor name="top" x="373.6458376381" y="711"/>
	<anchor name="bottom" x="255.004760804" y="-1"/>
</glyph>
<glyph name="U" format="2">
	<unicode hex="0055"/>
	<advance width="600"/>
	<outline>
		<contour>
			<point x="130.9057692308" y="705.1" type="curve"/>
			<point x="134.5480769231" y="670.1"/>
			<point x="131.5480769231" y="628.9"/>
			<point x="122.9326923077" y="576" type="curve" smooth="yes"/>
			<point x="51.5865384615" y="153.4" type="line"/>
			<point x="44.6538461538" y="113.5"/>
			<point x="67.6057692308" y="104.3230769231"/>
			<point x="109.8480769231" y="108.9" type="curve"/>
			<point x="155.2961538462" y="285.2"/>
			<point x="181.3730769231" y="394.8"/>
			<point x="206.8153846154" y="545.1" type="curve" smooth="yes"/>
			<point x="208.1615384615" y="552.5557692308" type="line"/>
			<point x="228.1519230769" y="673.6711538462"/>
			<point x="208.4807692308" y="710"/>
			<point x="164.9807692308" y="710" type="curve"/>
			<point x="152.1807692308" y="710"/>
			<point x="142.6076923077" y="708.7"/>
		</contour>
		<contour>
			<point x="186.0980769231" y="-17" type="curve" smooth="yes"/>
			<point x="274.1980769231" y="-17"/>
			<point x="350.3634615385" y="23.5865384615"/>
			<point x="424.5480769231" y="123.3538461538" type="curve" smooth="yes"/>
			<point x="451.1519230769" y="160.2673076923"/>
			<point x="457.0942307692" y="191.4096153846"/>
			<point x="450.5923076923" y="228.1519230769" type="curve"/>
			<point x="353.0615384615" y="99.0846153846"/>
			<point x="287.8461538462" y="66.6442307692"/>
			<point x="207.7461538462" y="66.6442307692" type="curve" smooth="yes"/>
			<point x="142.4461538462" y="66.6442307692"/>
			<point x="110.2942307692" y="104.3153846154"/>
			<point x="116.7442307692" y="195.6865384615" type="curve"/>
			<point x="81.8307692308" y="188.6865384615"/>
			<point x="54.6153846154" y="172.3"/>
			<point x="51.5865384615" y="153.4" type="curve" smooth="yes"/>
			<point x="36.8461538462" y="65.7"/>
			<point x="91.3788461538" y="-17"/>
		</contour>
		<contour>
			<point x="488.2288461538" y="-5.8" type="curve"/>
			<point x="487.4846153846" y="28.3"/>
			<point x="491.9423076923" y="63.3"/>
			<point x="498" y="100.3" type="curve" smooth="yes"/>
			<point x="595.125" y="676.2" type="line" smooth="yes"/>
			<point x="599.0288461538" y="701.1"/>
			<point x="576.9807692308" y="710"/>
			<point x="537.8807692308" y="710" type="curve" smooth="yes"/>
			<point x="530.3807692308" y="710"/>
			<point x="524.0788461538" y="709.7"/>
			<point x="517.7788461538" y="708.8" type="curve"/>
			<point x="425.9038461538" y="163.1" type="line" smooth="yes"/>
			<point x="408.9423076923" y="64.3"/>
			<point x="409.8134615385" y="23.2"/>
			<point x="425.7096153846" y="3.4" type="curve" smooth="yes"/>
			<point x="433.7288461538" y="-6.1"/>
			<point x="444.0538461538" y="-10"/>
			<point x="461.3538461538" y="-10" type="curve" smooth="yes"/>
			<point x="470.9538461538" y="-10"/>
			<point x="479.3269230769" y="-8.7"/>
		</contour>
	</outline>
	<anchor name="ogonek" x="488.5554503898" y="-6.4730769231"/>
	<anchor name="top" x="374.8963324739" y="711.3"/>
	<anchor name="bottom" x="250.504760804" y="-1"/>
	<anchor name="ring" x="371.7181268364" y="694.2"/>
</glyph>
<glyph name="W" format="2">
	<unicode hex="0057"/>
	<advance width="600"/>
	<outline>
		<contour>
			<point x="114.4230769231" y="710" type="curve"/>
			<point x="31.9711538462" y="249.9769230769"/>
			<point x="35.5872020067" y="102.8185672241"/>
			<point x="108.8923076923" y="7.5711538462" type="curve"/>
			<point x="118.3423076923" y="-4.1"/>
			<point x="129.9961538462" y="-10"/>
			<point x="142.6961538462" y="-10" type="curve"/>
			<point x="149.8961538462" y="-10" type="line" smooth="yes"/>
			<point x="158.9961538462" y="-10"/>
			<point x="170.7826923077" y="34.5"/>
			<point x="173.0711538462" y="49.5" type="curve"/>
			<point x="110.9058781347" y="137.8813024391"/>
			<point x="111.2730769231" y="215.7"/>
			<point x="189.2826923077" y="679.4" type="curve"/>
			<point x="190.3596153846" y="686.4"/>
			<point x="189.5634615385" y="689.9846153846"/>
			<point x="184.3826923077" y="696.2288461538" type="curve" smooth="yes"/>
			<point x="178.2173076923" y="703"/>
			<point x="157.3230769231" y="710"/>
			<point x="128.6230769231" y="710" type="curve"/>
			<point x="124.1230769231" y="710"/>
			<point x="118.9230769231" y="710"/>
		</contour>
		<contour>
			<point x="553.8673076923" y="710" type="curve"/>
			<point x="481.8480769231" y="223.4596153846"/>
			<point x="441.33668758" y="153.2154257557"/>
			<point x="358.2980769231" y="53.9" type="curve"/>
			<point x="353.0288461538" y="11.7"/>
			<point x="359.4826923077" y="-10"/>
			<point x="371.9826923077" y="-10" type="curve"/>
			<point x="398.3826923077" y="-10" type="line"/>
			<point x="514.0942046463" y="136.4952897075"/>
			<point x="563.4653846154" y="259.2480769231"/>
			<point x="629.7634615385" y="674.2576923077" type="curve"/>
			<point x="631.7153846154" y="685.5711538462"/>
			<point x="631.2903846154" y="691.0711538462"/>
			<point x="626.1961538462" y="696.7711538462" type="curve" smooth="yes"/>
			<point x="619.4038461538" y="704.3711538462"/>
			<point x="601.3480769231" y="710"/>
			<point x="568.0673076923" y="710" type="curve"/>
			<point x="563.5673076923" y="710"/>
			<point x="558.3673076923" y="710"/>
		</contour>
		<contour>
			<point x="337.0115384615" y="577.5" type="curve"/>
			<point x="320.9557692308" y="577.5" type="line"/>
			<point x="274.4461538462" y="300.2"/>
			<point x="235.0788461538" y="171.6"/>
			<point x="126.9153846154" y="27" type="curve"/>
			<point x="124.4557692308" y="10.3"/>
			<point x="129.0961538462" y="-10"/>
			<point x="142.6961538462" y="-10" type="curve"/>
			<point x="164.5038461538" y="-10" type="line"/>
			<point x="284.6038461538" y="132.9"/>
			<point x="332.0384615385" y="323.9538461538"/>
			<point x="368.3173076923" y="539.4942307692" type="curve"/>
			<point x="372.9615384615" y="566.1"/>
			<point x="359.7115384615" y="577.5"/>
		</contour>
		<contour>
			<point x="337.0115384615" y="577.5" type="curve"/>
			<point x="330.1269230769" y="577.5" type="line"/>
			<point x="275.8846153846" y="259.7384615385"/>
			<point x="281.8019230769" y="90.9865384615"/>
			<point x="339.1903846154" y="1.4980769231" type="curve"/>
			<point x="344.1423076923" y="-6.1"/>
			<point x="352.0673076923" y="-10"/>
			<point x="361.675" y="-10" type="curve"/>
			<point x="379.3826923077" y="-10" type="line"/>
			<point x="387.2826923077" y="-10"/>
			<point x="396.8326923077" y="11.8"/>
			<point x="400.1980769231" y="30.4" type="curve"/>
			<point x="336.0615384615" y="99.7576923077"/>
			<point x="336.5192307692" y="289.1"/>
			<point x="380.3365384615" y="550.1" type="curve"/>
			<point x="382.9615384615" y="565.1"/>
			<point x="370.0115384615" y="577.5"/>
		</contour>
	</outline>
	<anchor name="top" x="374.1458376381" y="711"/>
</glyph>
<glyph name="X" format="2">
	<unicode hex="0058"/>
	<advance width="600"/>
	<outline>
		<contour>
			<point x="482.7307692308" y="-7.2" type="curve" smooth="yes"/>
			<point x="497.6307692308" y="-7.2"/>
			<point x="512.1038461538" y="-5.2"/>
			<point x="524.1769230769" y="-1.5" type="curve"/>
			<point x="455.6519040937" y="75.6559418739"/>
			<point x="384.751527337" y="188.7135941402"/>
			<point x="328.2711538462" y="312.5173076923" type="curve" smooth="yes"/>
			<point x="323.003068389" y="325.6523982699"/>
			<point x="317.3027008417" y="338.2822171147"/>
			<point x="312.0346153846" y="351.4173076923" type="curve" smooth="yes"/>
			<point x="258.0870730217" y="470.6696240108"/>
			<point x="225.7549165835" y="594.6504710858"/>
			<point x="207.0326923077" y="679.6730769231" type="curve" smooth="yes"/>
			<point x="202.9942307692" y="700.2153846154"/>
			<point x="179.4211538462" y="707.2"/>
			<point x="124.2211538462" y="707.2" type="curve" smooth="yes"/>
			<point x="107.9211538462" y="707.2" type="line"/>
			<point x="136.3120411233" y="584.8948971918"/>
			<point x="182.9354747252" y="430.1172956556"/>
			<point x="244.1923076923" y="296.1596153846" type="curve" smooth="yes"/>
			<point x="249.2337466862" y="285.0234184322"/>
			<point x="254.6335610061" y="273.295812337"/>
			<point x="259.2038461538" y="262.1596153846" type="curve" smooth="yes"/>
			<point x="309.7694012013" y="159.5160947666"/>
			<point x="369.9131841444" y="73.0626712948"/>
			<point x="414.6596153846" y="18.6" type="curve" smooth="yes"/>
			<point x="428.0465206807" y="-0.3531306888"/>
			<point x="445.4223684211" y="-7.2"/>
		</contour>
		<contour>
			<point x="561.0480769231" y="707.2" type="curve"/>
			<point x="549.6480769231" y="707.2" type="line"/>
			<point x="475.2807692308" y="560.1576923077"/>
			<point x="393.6096153846" y="450.475"/>
			<point x="277.9576923077" y="340.2596153846" type="curve"/>
			<point x="250.0807692308" y="312.9307692308"/>
			<point x="282.25" y="283.1596153846"/>
			<point x="322.3923076923" y="286.6596153846" type="curve"/>
			<point x="460.8269230769" y="411.6596153846"/>
			<point x="547.0288461538" y="523.1153846154"/>
			<point x="628.7307692308" y="669.4442307692" type="curve"/>
			<point x="633.0807692308" y="677.6153846154"/>
			<point x="633.0865384615" y="684.5653846154"/>
			<point x="627.8365384615" y="689.8153846154" type="curve" smooth="yes"/>
			<point x="614.8461538462" y="702.8057692308"/>
			<point x="586.7480769231" y="707.2"/>
		</contour>
		<contour>
			<point x="66.25" y="-7.2" type="curve" smooth="yes"/>
			<point x="74.65" y="-7.2" type="line"/>
			<point x="132.3923076923" y="100"/>
			<point x="212.9154540806" y="199.0904540806"/>
			<point x="300.1365384615" y="274.7596153846" type="curve"/>
			<point x="327.6096153846" y="298.6596153846"/>
			<point x="296.3519230769" y="335.3596153846"/>
			<point x="258.9134615385" y="334.8596153846" type="curve"/>
			<point x="144.757678812" y="236.4957724146"/>
			<point x="59.8329560772" y="135.0120918604"/>
			<point x="-6.4326923077" y="32.8115384615" type="curve"/>
			<point x="-12.8807692308" y="22.7115384615"/>
			<point x="-11.1826923077" y="14.9634615385"/>
			<point x="-5.7038461538" y="9.4846153846" type="curve" smooth="yes"/>
			<point x="5.9967016778" y="-2.215932447"/>
			<point x="33.9889915203" y="-7.2"/>
		</contour>
	</outline>
</glyph>
<glyph name="Y" format="2">
	<unicode hex="0059"/>
	<advance width="600"/>
	<outline>
		<contour>
			<point x="118.0807692308" y="710" type="line"/>
			<point x="114.0972717095" y="452.6154990119"/>
			<point x="151.9912282448" y="349.1722332937"/>
			<point x="248.4134615385" y="233.5" type="curve"/>
			<point x="260.6702750483" y="218.7528018748"/>
			<point x="276.2974358974" y="216.6"/>
			<point x="289.1211538462" y="216.6" type="curve"/>
			<point x="310.2736457205" y="216.6"/>
			<point x="322.2692307692" y="229.6594871795"/>
			<point x="329.1615384615" y="266.0442307692" type="curve"/>
			<point x="228.9333461296" y="366.9298159213"/>
			<point x="194.547242216" y="448.0557979636"/>
			<point x="197.6846153846" y="681.7" type="curve"/>
			<point x="198.2114904202" y="699.2004483857"/>
			<point x="176.331456044" y="710"/>
			<point x="132.2807692308" y="710" type="curve" smooth="yes"/>
		</contour>
		<contour>
			<point x="546.1230769231" y="710" type="line"/>
			<point x="479.5270875607" y="481.3440347721"/>
			<point x="411.2884615385" y="384.1576923077"/>
			<point x="273.3442307692" y="273.0576923077" type="curve"/>
			<point x="244.0057692308" y="249.9576923077"/>
			<point x="268.3211538462" y="216.6"/>
			<point x="289.1211538462" y="216.6" type="curve"/>
			<point x="324.1403846154" y="216.6" type="line"/>
			<point x="465.1444433971" y="335.4021357048"/>
			<point x="557.8791978645" y="456.7353004508"/>
			<point x="620.4461538462" y="668.9" type="curve"/>
			<point x="626.6806924508" y="690.8991746149"/>
			<point x="600.9048076923" y="710"/>
			<point x="560.3230769231" y="710" type="curve"/>
		</contour>
		<contour>
			<point x="302.4442307692" y="-5.8" type="curve"/>
			<point x="301.6019230769" y="29.5"/>
			<point x="305.9615384615" y="65.1"/>
			<point x="312.2211538462" y="103" type="curve" smooth="yes"/>
			<point x="336.25" y="245.3" type="line" smooth="yes"/>
			<point x="340.625" y="270.7"/>
			<point x="304.1384615385" y="281.5"/>
			<point x="259.0384615385" y="281.5" type="curve"/>
			<point x="220.9423076923" y="53" type="line" smooth="yes"/>
			<point x="216.9038461538" y="30.1"/>
			<point x="217.0134615385" y="13.4288461538"/>
			<point x="226.2230769231" y="2.2" type="curve" smooth="yes"/>
			<point x="233.2442307692" y="-6.1"/>
			<point x="244.7692307692" y="-10"/>
			<point x="269.5692307692" y="-10" type="curve" smooth="yes"/>
			<point x="281.2692307692" y="-10"/>
			<point x="291.1423076923" y="-8.7"/>
		</contour>
	</outline>
	<anchor name="top" x="374.8963324739" y="711.3"/>
</glyph>
<glyph name="b" format="2">
	<unicode hex="0062"/>
	<advance width="600"/>
	<outline>
		<contour>
			<point x="124.9192307692" y="-2.0865384615" type="curve" smooth="yes"/>
			<point x="129.7370159224" y="39.779116953"/>
			<point x="135.9807692308" y="83.0617751479"/>
			<point x="141.8365384615" y="124.3423076923" type="curve"/>
			<point x="166.7403846154" y="296.9594440637"/>
			<point x="219.5769230769" y="454.6278653418"/>
			<point x="242.9326923077" y="644.0461538462" type="curve"/>
			<point x="254.0384615385" y="724.8711538462"/>
			<point x="228.1096153846" y="755.7173076923"/>
			<point x="189.6153846154" y="755.7173076923" type="curve" smooth="yes"/>
			<point x="178.0480769231" y="755.7173076923"/>
			<point x="168.2711538462" y="754.3192307692"/>
			<point x="157.3096153846" y="750" type="curve"/>
			<point x="167.4057692308" y="725.1788461538"/>
			<point x="166.9038461538" y="699.1711538462"/>
			<point x="162.6634615385" y="657.5153846154" type="curve"/>
			<point x="140.3846153846" y="450.3188878951"/>
			<point x="77.9230769231" y="278.9522659511"/>
			<point x="55.9134615385" y="74.1096153846" type="curve" smooth="yes"/>
			<point x="50.1923076923" y="27.2071070234"/>
			<point x="69.372008547" y="-4.4"/>
			<point x="107.6596153846" y="-4.4" type="curve" smooth="yes"/>
			<point x="113.3038461538" y="-4.4"/>
			<point x="119.4769230769" y="-3.7269230769"/>
		</contour>
		<contour>
			<point x="279.5153846154" y="-10.6" type="curve" smooth="yes"/>
			<point x="407.6057692308" y="-10.6"/>
			<point x="500.8365384615" y="78.3096153846"/>
			<point x="540.2115384615" y="308.9288461538" type="curve" smooth="yes"/>
			<point x="543.9807692308" y="329.8519230769" type="line" smooth="yes"/>
			<point x="565.1153846154" y="452.9576923077"/>
			<point x="514.9576923077" y="540.8"/>
			<point x="417.5461538462" y="540.8" type="curve" smooth="yes"/>
			<point x="326.8153846154" y="540.8"/>
			<point x="231.6115384615" y="456.275"/>
			<point x="178.9115384615" y="340.0076923077" type="curve" smooth="yes"/>
			<point x="159.5346153846" y="298.0519230769"/>
			<point x="147.8942307692" y="260.6038461538"/>
			<point x="154.4346153846" y="237.8903846154" type="curve"/>
			<point x="247.1269230769" y="400.3461538462"/>
			<point x="325.6365384615" y="459.4519230769"/>
			<point x="404.3076923077" y="459.4519230769" type="curve" smooth="yes"/>
			<point x="431.4846153846" y="459.4519230769"/>
			<point x="453.375" y="447.1480769231"/>
			<point x="465.7211538462" y="424.3942307692" type="curve" smooth="yes"/>
			<point x="470.1865384615" y="389"/>
			<point x="467.7307692308" y="357.3442307692"/>
			<point x="460.5961538462" y="316.9057692308" type="curve" smooth="yes"/>
			<point x="457.9038461538" y="303.2" type="line" smooth="yes"/>
			<point x="429.6346153846" y="146.7653846154"/>
			<point x="371.7326923077" y="65.6480769231"/>
			<point x="272.5326923077" y="65.6480769231" type="curve" smooth="yes"/>
			<point x="207.5769230769" y="65.6480769231"/>
			<point x="171.6961538462" y="90.325"/>
			<point x="137.5192307692" y="148.8076923077" type="curve"/>
			<point x="128.0057692308" y="140.2115384615"/>
			<point x="124.3153846154" y="125.2153846154"/>
			<point x="127.8115384615" y="112.2461538462" type="curve" smooth="yes"/>
			<point x="135.6903846154" y="69.75"/>
			<point x="192.8980769231" y="-10.6"/>
		</contour>
		<contour>
			<point x="186.9769230769" y="388.4461538462" type="line"/>
			<point x="157.9653846154" y="310.2288461538" type="line"/>
			<point x="179.2519230769" y="307.9288461538" type="line"/>
			<point x="210.8634615385" y="381.7153846154" type="line"/>
		</contour>
		<contour>
			<point x="124.8615384615" y="73.9057692308" type="line"/>
			<point x="147.8615384615" y="76.8" type="line"/>
			<point x="126.3019230769" y="145.8038461538" type="line"/>
			<point x="104.5307692308" y="142.8038461538" type="line"/>
		</contour>
	</outline>
</glyph>
<glyph name="f" format="2">
	<unicode hex="0066"/>
	<advance width="600"/>
	<outline>
		<contour>
			<point x="255.1730769231" y="140.9461538462" type="curve" smooth="yes"/>
			<point x="284.8557692308" y="273.6596153846"/>
			<point x="287.5480769231" y="366.9211538462"/>
			<point x="316.7596153846" y="517" type="curve" smooth="yes"/>
			<point x="329.9519230769" y="588.9288461538"/>
			<point x="341.5596153846" y="633.9115384615"/>
			<point x="361.8038461538" y="665.3596153846" type="curve" smooth="yes"/>
			<point x="393.4115384615" y="682.1519230769"/>
			<point x="427.3346153846" y="689.4519230769"/>
			<point x="472.2884615385" y="689.4519230769" type="curve" smooth="yes"/>
			<point x="531.8173076923" y="689.4519230769"/>
			<point x="580.7269230769" y="675.3519230769"/>
			<point x="615.8076923077" y="657.4519230769" type="curve"/>
			<point x="621.8076923077" y="657.4519230769" type="line"/>
			<point x="625.6865384615" y="665.4519230769"/>
			<point x="627.9653846154" y="674.5769230769"/>
			<point x="629.4461538462" y="683.7115384615" type="curve"/>
			<point x="632.9461538462" y="708.3211538462"/>
			<point x="631.4019230769" y="721.6576923077"/>
			<point x="620.7653846154" y="732.2942307692" type="curve" smooth="yes"/>
			<point x="606.7423076923" y="746.3173076923"/>
			<point x="556.4211538462" y="763"/>
			<point x="480.15" y="763" type="curve" smooth="yes"/>
			<point x="347.0807692308" y="763"/>
			<point x="273.2403846154" y="699.5134615385"/>
			<point x="243.4230769231" y="541.2269230769" type="curve" smooth="yes"/>
			<point x="206.3365384615" y="354.9115384615"/>
			<point x="214.0096153846" y="260.3634615385"/>
			<point x="157.7403846154" y="61.4615384615" type="curve"/>
			<point x="209.1442307692" y="61.9326923077"/>
			<point x="244.4038461538" y="82.9634615385"/>
		</contour>
		<contour>
			<point x="108.0115384615" y="521.2" type="line"/>
			<point x="107.1365384615" y="517.3"/>
			<point x="106.4634615385" y="512.7"/>
			<point x="105.5884615385" y="508.0288461538" type="curve" smooth="yes"/>
			<point x="98.1173076923" y="465.8596153846"/>
			<point x="112.6153846154" y="443.1519230769"/>
			<point x="179.7288461538" y="443.1519230769" type="curve"/>
			<point x="543.1153846154" y="443.1519230769" type="line"/>
			<point x="545.7961538462" y="450.8230769231"/>
			<point x="548.3788461538" y="460.5230769231"/>
			<point x="549.8596153846" y="469.9942307692" type="curve" smooth="yes"/>
			<point x="554.6384615385" y="501.8961538462"/>
			<point x="544.5442307692" y="521.2"/>
			<point x="511.6769230769" y="521.2" type="curve"/>
		</contour>
		<contour>
			<point x="27.1961538462" y="78.0480769231" type="line"/>
			<point x="25.1230769231" y="73.4480769231"/>
			<point x="23.75" y="68.1480769231"/>
			<point x="22.4038461538" y="61.1480769231" type="curve" smooth="yes"/>
			<point x="15.6057692308" y="22.0326923077"/>
			<point x="27.9692307692" y="0"/>
			<point x="64.5730769231" y="0" type="curve"/>
			<point x="456.7115384615" y="0" type="line"/>
			<point x="459.4903846154" y="5.6"/>
			<point x="461.1673076923" y="12.3"/>
			<point x="461.975" y="18.5" type="curve" smooth="yes"/>
			<point x="467.3596153846" y="52.4230769231"/>
			<point x="384.2346153846" y="78.0480769231"/>
			<point x="255.6346153846" y="78.0480769231" type="curve"/>
		</contour>
		<contour>
			<point x="231.3096153846" y="68.7846153846" type="line"/>
			<point x="220.3865384615" y="96.3903846154" type="line"/>
			<point x="196.4153846154" y="75.9846153846" type="line"/>
			<point x="199.4153846154" y="60.9846153846" type="line"/>
		</contour>
	</outline>
</glyph>
<glyph name="l" format="2">
	<unicode hex="006C"/>
	<advance width="600"/>
	<outline>
		<contour>
			<point x="164.8442307692" y="750" type="curve"/>
			<point x="159.9923076923" y="741.9019230769"/>
			<point x="156.1403846154" y="730.8384615385"/>
			<point x="153.9865384615" y="718.0961538462" type="curve" smooth="yes"/>
			<point x="149.275" y="688.0615384615"/>
			<point x="157.9538461538" y="670.5326923077"/>
			<point x="178.9230769231" y="670.5326923077" type="curve" smooth="yes"/>
			<point x="205.3096153846" y="670.5326923077"/>
			<point x="263.8692307692" y="683.0057692308"/>
			<point x="363.1634615385" y="700.5673076923" type="curve"/>
			<point x="344.4519230769" y="515.3711538462"/>
			<point x="276.4038461538" y="338.0596153846"/>
			<point x="257.2211538462" y="152.7288461538" type="curve" smooth="yes"/>
			<point x="250.8942307692" y="91.825"/>
			<point x="281.0519230769" y="62.7769230769"/>
			<point x="327.4615384615" y="62.7769230769" type="curve"/>
			<point x="338.5673076923" y="288.6019230769"/>
			<point x="426.6057692308" y="490.3307692308"/>
			<point x="440.2019230769" y="710.0980769231" type="curve" smooth="yes"/>
			<point x="443.5" y="748.4557692308"/>
			<point x="421.4076923077" y="760"/>
			<point x="368.6153846154" y="760" type="curve" smooth="yes"/>
			<point x="309.3788461538" y="760"/>
			<point x="243.2384615385" y="756.8038461538"/>
		</contour>
		<contour>
			<point x="34.4807692308" y="78.0480769231" type="line"/>
			<point x="31.3057692308" y="71.3980769231"/>
			<point x="29.4307692308" y="65.1461538462"/>
			<point x="27.8826923077" y="55.8596153846" type="curve" smooth="yes"/>
			<point x="22.1615384615" y="20.5346153846"/>
			<point x="35.0942307692" y="0"/>
			<point x="70.7557692308" y="0" type="curve"/>
			<point x="521.9846153846" y="0" type="line"/>
			<point x="525.4634615385" y="5.6"/>
			<point x="527.3692307692" y="11.1288461538"/>
			<point x="528.6480769231" y="18.5" type="curve" smooth="yes"/>
			<point x="533.0903846154" y="52.4230769231"/>
			<point x="449.8692307692" y="78.0480769231"/>
			<point x="321.2692307692" y="78.0480769231" type="curve"/>
		</contour>
		<contour>
			<point x="371.8211538462" y="685.4942307692" type="line"/>
			<point x="384.05" y="719.3807692308" type="line"/>
			<point x="371.4057692308" y="724.2653846154" type="line"/>
			<point x="348.05" y="710.15" type="line"/>
		</contour>
		<contour>
			<point x="267.6692307692" y="69.525" type="line"/>
			<point x="301.2865384615" y="62.1288461538" type="line"/>
			<point x="304.2865384615" y="77.1288461538" type="line"/>
			<point x="281.4730769231" y="96.525" type="line"/>
		</contour>
	</outline>
	<anchor name="top" x="396.9092623094" y="733.0403846154"/>
	<anchor name="bottom" x="267.7110436258" y="-1"/>
	<anchor name="dot" x="500.0748573748" y="400"/>
	<anchor name="caronslovak" x="581.5771542521" y="697.3346153846"/>
</glyph>
<glyph name="m" format="2">
	<unicode hex="006D"/>
	<advance width="600"/>
	<outline>
		<contour>
			<point x="83.8846153846" y="-2.6923076923" type="curve"/>
			<point x="85.9703103579" y="140.28862016"/>
			<point x="130.31183509" y="283.5376508181"/>
			<point x="149.7115384615" y="435.7211538462" type="curve"/>
			<point x="159.9423076923" y="503.6692307692"/>
			<point x="138.1093269231" y="536.2"/>
			<point x="99.1134615385" y="536.2" type="curve"/>
			<point x="88.6538461538" y="536.2"/>
			<point x="80.3884615385" y="534.9980769231"/>
			<point x="72.15" y="531.5538461538" type="curve"/>
			<point x="77.9865384615" y="504.8826923077"/>
			<point x="78.2980769231" y="481.7711538462"/>
			<point x="73.5865384615" y="437.9115384615" type="curve" smooth="yes"/>
			<point x="59.9187690039" y="307.0809988982"/>
			<point x="21.2226397972" y="176.7778084133"/>
			<point x="11.125" y="55.9865384615" type="curve" smooth="yes"/>
			<point x="7.8308454299" y="22.5013357986"/>
			<point x="22.4912841191" y="-5.3"/>
			<point x="63.5903846154" y="-5.3" type="curve" smooth="yes"/>
			<point x="70.5038461538" y="-5.3"/>
			<point x="77.5538461538" y="-4.4307692308"/>
		</contour>
		<contour>
			<point x="293.9826923077" y="0" type="curve"/>
			<point x="294.1480769231" y="127.2346153846"/>
			<point x="329.0134615385" y="268.8730769231"/>
			<point x="358.2615384615" y="431.4442307692" type="curve"/>
			<point x="366.6076923077" y="476.4557692308"/>
			<point x="341.5269230769" y="540.2"/>
			<point x="287.0346153846" y="540.2" type="curve" smooth="yes"/>
			<point x="234.4730769231" y="540.2"/>
			<point x="174.8826923077" y="487.3423076923"/>
			<point x="134.3807692308" y="381.0442307692" type="curve" smooth="yes"/>
			<point x="122.2942307692" y="350.5384615385"/>
			<point x="118.0865384615" y="326.3038461538"/>
			<point x="120.5230769231" y="308.6865384615" type="curve"/>
			<point x="182.9923076923" y="424.8923076923"/>
			<point x="225.2192307692" y="461.2519230769"/>
			<point x="266.1461538462" y="461.2519230769" type="curve" smooth="yes"/>
			<point x="290.4442307692" y="461.2519230769"/>
			<point x="302.0307692308" y="450.1519230769"/>
			<point x="305.2173076923" y="424.0538461538" type="curve"/>
			<point x="272.9057692308" y="293.425"/>
			<point x="256.3423076923" y="216.2769230769"/>
			<point x="238.7076923077" y="114.825" type="curve" smooth="yes"/>
			<point x="222.5538461538" y="19.5057692308"/>
			<point x="238.5538461538" y="-3.4038461538"/>
			<point x="270.9076923077" y="-3.4038461538" type="curve"/>
			<point x="279.7961538462" y="-3.4038461538"/>
			<point x="287.0576923077" y="-2.2019230769"/>
		</contour>
		<contour>
			<point x="530.25" y="0" type="curve"/>
			<point x="521.4384615385" y="45.175"/>
			<point x="520.9615384615" y="80.5826923077"/>
			<point x="527.6923076923" y="132.2115384615" type="curve" smooth="yes"/>
			<point x="538.7980769231" y="227.8115384615"/>
			<point x="565.4519230769" y="313.1230769231"/>
			<point x="577.1634615385" y="410.2711538462" type="curve" smooth="yes"/>
			<point x="585.375" y="471.3442307692"/>
			<point x="558.4269230769" y="540.8"/>
			<point x="498.2826923077" y="540.8" type="curve" smooth="yes"/>
			<point x="442.5865384615" y="540.8"/>
			<point x="376.7903846154" y="476.9903846154"/>
			<point x="340.0115384615" y="384.5384615385" type="curve" smooth="yes"/>
			<point x="324.3019230769" y="345.4884615385"/>
			<point x="320.7557692308" y="332.6230769231"/>
			<point x="326.0307692308" y="311.2038461538" type="curve"/>
			<point x="376.0884615385" y="403.95"/>
			<point x="426.7480769231" y="461.2519230769"/>
			<point x="470.1923076923" y="461.2519230769" type="curve" smooth="yes"/>
			<point x="497.3980769231" y="461.2519230769"/>
			<point x="507.9884615385" y="445.1480769231"/>
			<point x="510.7807692308" y="412.0788461538" type="curve"/>
			<point x="479.5423076923" y="295.1596153846"/>
			<point x="455.4461538462" y="214.4769230769"/>
			<point x="445.5519230769" y="125.9307692308" type="curve" smooth="yes"/>
			<point x="434.9173076923" y="29.35"/>
			<point x="453.8846153846" y="-5.2192307692"/>
			<point x="498.7557692308" y="-5.2192307692" type="curve"/>
			<point x="512.3653846154" y="-5.2192307692"/>
			<point x="522.0826923077" y="-3.2461538462"/>
		</contour>
		<contour>
			<point x="141.6692307692" y="432.7423076923" type="line"/>
			<point x="108.5365384615" y="363.3615384615" type="line"/>
			<point x="129.8230769231" y="360.4557692308" type="line"/>
			<point x="164.0615384615" y="427.0211538462" type="line"/>
		</contour>
		<contour>
			<point x="352.1038461538" y="439.1634615385" type="line"/>
			<point x="318.6769230769" y="369.2923076923" type="line"/>
			<point x="339.9634615385" y="366.3865384615" type="line"/>
			<point x="374.4961538462" y="433.4423076923" type="line"/>
		</contour>
	</outline>
</glyph>
<glyph name="n" format="2">
	<unicode hex="006E"/>
	<advance width="600"/>
	<outline>
		<contour>
			<point x="130.2903846154" y="-2.6923076923" type="curve"/>
			<point x="132.9826923077" y="137.1423076923"/>
			<point x="178.7519230769" y="280.2538461538"/>
			<point x="198.1365384615" y="431.7980769231" type="curve" smooth="yes"/>
			<point x="208.3673076923" y="504.2634615385"/>
			<point x="186.8" y="534.7865384615"/>
			<point x="141.3192307692" y="534.7865384615" type="curve" smooth="yes"/>
			<point x="131.2326923077" y="534.7865384615"/>
			<point x="122.7346153846" y="533.3884615385"/>
			<point x="114.8692307692" y="530.8865384615" type="curve"/>
			<point x="121.1961538462" y="505.3923076923"/>
			<point x="122.3096153846" y="481.6730769231"/>
			<point x="117.5980769231" y="438.4019230769" type="curve" smooth="yes"/>
			<point x="104.4057692308" y="316.2288461538"/>
			<point x="64.425" y="180.5923076923"/>
			<point x="54.3288461538" y="59.2230769231" type="curve" smooth="yes"/>
			<point x="51.0307692308" y="25.6134615385"/>
			<point x="65.9846153846" y="-5.0057692308"/>
			<point x="112.5807692308" y="-5.0057692308" type="curve" smooth="yes"/>
			<point x="118.7096153846" y="-5.0057692308"/>
			<point x="124.2711538462" y="-4.3326923077"/>
		</contour>
		<contour>
			<point x="179.8346153846" y="359.9730769231" type="line"/>
			<point x="146.2115384615" y="289.8730769231" type="line"/>
			<point x="167.6942307692" y="286.9673076923" type="line"/>
			<point x="202.2269230769" y="354.2519230769" type="line"/>
		</contour>
		<contour>
			<point x="488.05" y="0" type="curve"/>
			<point x="477.9057692308" y="44.9730769231"/>
			<point x="478.4788461538" y="82.8038461538"/>
			<point x="485.0076923077" y="133.4230769231" type="curve" smooth="yes"/>
			<point x="495.6423076923" y="223.4596153846"/>
			<point x="521.0846153846" y="302.8615384615"/>
			<point x="532.1903846154" y="388.1865384615" type="curve" smooth="yes"/>
			<point x="541.2096153846" y="460.0173076923"/>
			<point x="505.4211538462" y="540.8942307692"/>
			<point x="424.6442307692" y="540.8942307692" type="curve"/>
			<point x="339.4" y="540.8942307692"/>
			<point x="244.3115384615" y="453.3096153846"/>
			<point x="186.0980769231" y="340.3807692308" type="curve" smooth="yes"/>
			<point x="158.3480769231" y="280.4019230769"/>
			<point x="147.0057692308" y="251.6884615385"/>
			<point x="151.7846153846" y="208.9480769231" type="curve"/>
			<point x="220.1307692308" y="347.6192307692"/>
			<point x="319.5788461538" y="457.7461538462"/>
			<point x="402.4961538462" y="457.7461538462" type="curve" smooth="yes"/>
			<point x="439.6519230769" y="457.7461538462"/>
			<point x="458.3211538462" y="436.0711538462"/>
			<point x="466.3961538462" y="391.5230769231" type="curve" smooth="yes"/>
			<point x="433.2519230769" y="279.175"/>
			<point x="406.4134615385" y="202.825"/>
			<point x="397.125" y="122.0942307692" type="curve" smooth="yes"/>
			<point x="386.8269230769" y="32.0423076923"/>
			<point x="408.4403846154" y="-5.2192307692"/>
			<point x="453.7557692308" y="-5.2192307692" type="curve" smooth="yes"/>
			<point x="466.6519230769" y="-5.2192307692"/>
			<point x="478.4153846154" y="-3.2461538462"/>
		</contour>
	</outline>
	<anchor name="top" x="346.2657606066" y="541.2"/>
	<anchor name="bottom" x="255.904760804" y="-1"/>
	<anchor name="caronslovak" x="318.4192307692" y="711"/>
</glyph>
<glyph name="o" format="2">
	<unicode hex="006F"/>
	<advance width="600"/>
	<outline>
		<contour>
			<point x="340.7096153846" y="540.8" type="curve" smooth="yes"/>
			<point x="204.2211538462" y="540.8"/>
			<point x="96.3076923077" y="433.35"/>
			<point x="66.6923076923" y="256.7346153846" type="curve" smooth="yes"/>
			<point x="64" y="242.9634615385" type="line" smooth="yes"/>
			<point x="38.5576923077" y="92.4865384615"/>
			<point x="121.8480769231" y="-10.6"/>
			<point x="269.4230769231" y="-10.6" type="curve" smooth="yes"/>
			<point x="412.3057692308" y="-10.6"/>
			<point x="498.6442307692" y="66.6076923077"/>
			<point x="523.6153846154" y="214.1076923077" type="curve" smooth="yes"/>
			<point x="526.5769230769" y="228.6192307692" type="line" smooth="yes"/>
			<point x="554.9807692308" y="399.3557692308"/>
			<point x="475.4615384615" y="540.8"/>
		</contour>
		<contour>
			<point x="340.2307692308" y="464.5403846154" type="curve" smooth="yes"/>
			<point x="368.5519230769" y="464.5403846154"/>
			<point x="391.7596153846" y="460.6557692308"/>
			<point x="411.9269230769" y="451.8288461538" type="curve" smooth="yes"/>
			<point x="455.2269230769" y="403.8384615385"/>
			<point x="469.1442307692" y="327.5903846154"/>
			<point x="453.3942307692" y="232.4615384615" type="curve" smooth="yes"/>
			<point x="451.1057692308" y="221.2480769231" type="line" smooth="yes"/>
			<point x="434.4134615385" y="121.2961538462"/>
			<point x="374.7653846154" y="60.275"/>
			<point x="266.6826923077" y="60.275" type="curve" smooth="yes"/>
			<point x="238.8769230769" y="60.275"/>
			<point x="213.0173076923" y="63.675"/>
			<point x="187.0134615385" y="72.05" type="curve" smooth="yes"/>
			<point x="141.8711538462" y="109.55"/>
			<point x="132.5384615385" y="169.6384615385"/>
			<point x="144.5865384615" y="233.9115384615" type="curve" smooth="yes"/>
			<point x="147.3461538462" y="246.3365384615" type="line" smooth="yes"/>
			<point x="171.8461538462" y="379.2557692308"/>
			<point x="245.6153846154" y="464.5403846154"/>
		</contour>
	</outline>
	<anchor name="top" x="345.1880391107" y="541.2"/>
	<anchor name="bottom" x="254.180274395" y="-1"/>
	<anchor name="ogonek" x="334.4014282412" y="4.8519230769"/>
</glyph>
<glyph name="t" format="2">
	<unicode hex="0074"/>
	<advance width="600"/>
	<outline>
		<contour>
			<point x="95.975" y="530.2" type="line"/>
			<point x="94.0019230769" y="526.2019230769"/>
			<point x="92.3288461538" y="521.4115384615"/>
			<point x="91.4538461538" y="515.5576923077" type="curve" smooth="yes"/>
			<point x="84.5884615385" y="473.3173076923"/>
			<point x="110.6442307692" y="451.1423076923"/>
			<point x="195.8923076923" y="451.1423076923" type="curve" smooth="yes"/>
			<point x="559.4038461538" y="451.1423076923" type="line"/>
			<point x="562.4884615385" y="459.4192307692"/>
			<point x="564.6673076923" y="468.5134615385"/>
			<point x="566.35" y="477.9846153846" type="curve" smooth="yes"/>
			<point x="571.3307692308" y="509.9673076923"/>
			<point x="560.9538461538" y="530.2"/>
			<point x="531.5538461538" y="530.2" type="curve" smooth="yes"/>
		</contour>
		<contour>
			<point x="532.4711538462" y="156.1769230769" type="curve"/>
			<point x="526.4711538462" y="156.1769230769" type="line"/>
			<point x="459.6442307692" y="87.8423076923"/>
			<point x="399.7288461538" y="58.8326923077"/>
			<point x="321.1923076923" y="58.8326923077" type="curve" smooth="yes"/>
			<point x="292.5326923077" y="58.8326923077"/>
			<point x="270.2115384615" y="65.0192307692"/>
			<point x="253.5615384615" y="81.3903846154" type="curve" smooth="yes"/>
			<point x="249.3903846154" y="104.4480769231"/>
			<point x="249.0769230769" y="129.1653846154"/>
			<point x="254.5961538462" y="170.9788461538" type="curve" smooth="yes"/>
			<point x="272.9711538462" y="326.5019230769"/>
			<point x="326.6153846154" y="478.9019230769"/>
			<point x="336.6442307692" y="621.8384615385" type="curve" smooth="yes"/>
			<point x="341.5576923077" y="684.825"/>
			<point x="316.1557692308" y="706.0423076923"/>
			<point x="286.1692307692" y="706.0423076923" type="curve" smooth="yes"/>
			<point x="272.9423076923" y="706.0423076923"/>
			<point x="262.0442307692" y="704.5461538462"/>
			<point x="247.8980769231" y="700" type="curve"/>
			<point x="253.8461538462" y="671.9211538462"/>
			<point x="255.5673076923" y="643.1326923077"/>
			<point x="252.2019230769" y="607.9192307692" type="curve" smooth="yes"/>
			<point x="237.6634615385" y="457.5096153846"/>
			<point x="188.7307692308" y="310.4076923077"/>
			<point x="173.4519230769" y="157.9788461538" type="curve" smooth="yes"/>
			<point x="163.1538461538" y="58.4211538462"/>
			<point x="216.8653846154" y="-17.1961538462"/>
			<point x="325.0346153846" y="-17.1961538462" type="curve" smooth="yes"/>
			<point x="398.9961538462" y="-17.1961538462"/>
			<point x="459.9807692308" y="10.1230769231"/>
			<point x="496.7711538462" y="46.9134615385" type="curve" smooth="yes"/>
			<point x="515.5519230769" y="65.6942307692"/>
			<point x="524.9076923077" y="84.3884615385"/>
			<point x="530.9653846154" y="117.2884615385" type="curve" smooth="yes"/>
			<point x="533.725" y="131.5230769231"/>
			<point x="533.8692307692" y="144.3346153846"/>
		</contour>
	</outline>
	<anchor name="bottom" x="317.004760804" y="-1"/>
	<anchor name="caronslovak" x="518.4943603275" y="700"/>
</glyph>
<glyph name="w" format="2">
	<unicode hex="0077"/>
	<advance width="600"/>
	<outline>
		<contour>
			<point x="300.5076923077" y="442.5" type="line"/>
			<point x="269.8153846154" y="269.1807692308"/>
			<point x="227.4557692308" y="161.1423076923"/>
			<point x="156.7288461538" y="56.4653846154" type="curve"/>
			<point x="152.3346153846" y="56.6673076923" type="line"/>
			<point x="122.7442307692" y="140.5480769231"/>
			<point x="125.5307692308" y="238.8903846154"/>
			<point x="170.3576923077" y="499.1730769231" type="curve"/>
			<point x="175.0692307692" y="526.8423076923"/>
			<point x="157.4826923077" y="540.3961538462"/>
			<point x="122.8576923077" y="540.3961538462" type="curve"/>
			<point x="114.55" y="540.3961538462"/>
			<point x="107.7480769231" y="539.5980769231"/>
			<point x="102.6423076923" y="538.0961538462" type="curve"/>
			<point x="43.8153846154" y="210.7865384615"/>
			<point x="51.5153846154" y="83.3807692308"/>
			<point x="107.0653846154" y="8.0423076923" type="curve" smooth="yes"/>
			<point x="116.2461538462" y="-4.1"/>
			<point x="127.5865384615" y="-10"/>
			<point x="140.9730769231" y="-10" type="curve" smooth="yes"/>
			<point x="149.6520833333" y="-10"/>
			<point x="158.5981195716" y="-9.1722344693"/>
			<point x="165.4307692308" y="-6.4711538462" type="curve"/>
			<point x="217.3" y="52.6115384615"/>
			<point x="260.0538461538" y="138.2076923077"/>
			<point x="294.5269230769" y="244.2769230769" type="curve"/>
			<point x="296.0557692308" y="244.2769230769" type="line"/>
			<point x="296.3384615385" y="143.9461538462"/>
			<point x="308.7538461538" y="62.3730769231"/>
			<point x="340.3807692308" y="3.9884615385" type="curve" smooth="yes"/>
			<point x="346.2884615385" y="-6.3692307692"/>
			<point x="353.8461538462" y="-10"/>
			<point x="367.4884615385" y="-10" type="curve"/>
			<point x="377.9384615385" y="-10"/>
			<point x="384.8788461538" y="-9"/>
			<point x="393.4346153846" y="-6.0980769231" type="curve"/>
			<point x="488.7980769231" y="98.5153846154"/>
			<point x="531.1211538462" y="203.1192307692"/>
			<point x="582.5442307692" y="498.4615384615" type="curve"/>
			<point x="588.3326923077" y="530.8"/>
			<point x="562.8384615385" y="540.3961538462"/>
			<point x="534.4423076923" y="540.3961538462" type="curve"/>
			<point x="526.8442307692" y="540.3961538462"/>
			<point x="520.0423076923" y="539.5980769231"/>
			<point x="513.1192307692" y="538.0961538462" type="curve"/>
			<point x="466.475" y="240.2211538462"/>
			<point x="437.2807692308" y="155.7096153846"/>
			<point x="371.8211538462" y="54.4461538462" type="curve"/>
			<point x="368.5653846154" y="54.6480769231" type="line"/>
			<point x="334.9403846154" y="141.3192307692"/>
			<point x="329.6961538462" y="266.5192307692"/>
			<point x="353.0519230769" y="405.7192307692" type="curve" smooth="yes"/>
			<point x="356.2826923077" y="425.5019230769"/>
			<point x="347.9403846154" y="442.5"/>
			<point x="315.6711538462" y="442.5" type="curve" smooth="yes"/>
		</contour>
		<contour>
			<point x="279.3673076923" y="230.4711538462" type="line"/>
			<point x="307.1057692308" y="226.7019230769" type="line"/>
			<point x="316.2596153846" y="280.3384615385" type="line"/>
			<point x="288.5211538462" y="285.05" type="line"/>
		</contour>
		<contour>
			<point x="134.8769230769" y="34.9519230769" type="line"/>
			<point x="162.6153846154" y="30.2403846154" type="line"/>
			<point x="169.8846153846" y="60.1346153846" type="line"/>
			<point x="142.1461538462" y="63.4326923077" type="line"/>
		</contour>
		<contour>
			<point x="350.4923076923" y="33.3980769231" type="line"/>
			<point x="378.2307692308" y="28.6865384615" type="line"/>
			<point x="385.5" y="59.0519230769" type="line"/>
			<point x="357.7615384615" y="62.35" type="line"/>
		</contour>
	</outline>
	<anchor name="top" x="345.6657606066" y="541.2"/>
</glyph>
<glyph name="y" format="2">
	<unicode hex="0079"/>
	<advance width="600"/>
	<outline>
		<contour>
			<point x="525.5826923077" y="534.7" type="curve" smooth="yes"/>
			<point x="516.9288461538" y="534.7"/>
			<point x="506.7813314906" y="533.1775179277"/>
			<point x="494.6961538462" y="530.2" type="curve"/>
			<point x="410.7987077696" y="155.7221376948"/>
			<point x="314.7302181469" y="-4.7522283911"/>
			<point x="210.3057692308" y="-93.4730769231" type="curve" smooth="yes"/>
			<point x="148.589580183" y="-146.2041244349"/>
			<point x="72.5298732374" y="-164.5391239424"/>
			<point x="17.2961538462" y="-159.5307692308" type="curve" smooth="yes"/>
			<point x="3.1326923077" y="-159.5307692308" type="line"/>
			<point x="2.4596153846" y="-162.8307692308" type="line" smooth="yes"/>
			<point x="-6.7203234799" y="-209.1582169965"/>
			<point x="11.8673076923" y="-241.9230769231"/>
			<point x="39.9673076923" y="-241.9230769231" type="curve" smooth="yes"/>
			<point x="44.0673076923" y="-241.9230769231" type="line" smooth="yes"/>
			<point x="109.7540665514" y="-241.9230769231"/>
			<point x="187.6173076923" y="-210.225"/>
			<point x="251.7711538462" y="-155.0230769231" type="curve" smooth="yes"/>
			<point x="374.0230769231" y="-50.5403846154"/>
			<point x="487.6886703106" y="148.146689936"/>
			<point x="577.8615384615" y="487.6019230769" type="curve" smooth="yes"/>
			<point x="586.6173076923" y="522.3019230769"/>
			<point x="565.6707559682" y="534.7"/>
		</contour>
		<contour>
			<point x="136.0692307692" y="534.4" type="curve" smooth="yes"/>
			<point x="126.1692307692" y="534.4"/>
			<point x="117.3673076923" y="533.1"/>
			<point x="108.5653846154" y="530.6711538462" type="curve"/>
			<point x="91.8474986394" y="238.4901018547"/>
			<point x="123.2692307692" y="147.3884615385"/>
			<point x="173.5923076923" y="80.0903846154" type="curve" smooth="yes"/>
			<point x="204.7903846154" y="37.7865384615"/>
			<point x="262.0673076923" y="6.2307692308"/>
			<point x="320.3730769231" y="6.2307692308" type="curve" smooth="yes"/>
			<point x="327.3730769231" y="6.2307692308" type="line" smooth="yes"/>
			<point x="343.7415384615" y="6.2307692308"/>
			<point x="355.1169885067" y="10.6620702323"/>
			<point x="362.2538461538" y="45.7423076923" type="curve"/>
			<point x="346.1615384615" y="49.4288461538" type="line"/>
			<point x="290.6810133172" y="54.501119327"/>
			<point x="254.294872673" y="89.4102551808"/>
			<point x="236.3173076923" y="117.0346153846" type="curve" smooth="yes"/>
			<point x="187.5100368096" y="186.9682772301"/>
			<point x="178.6728137115" y="313.4659106465"/>
			<point x="191.0307692308" y="478.9326923077" type="curve" smooth="yes"/>
			<point x="195.0711538462" y="525.6980769231"/>
			<point x="176.9198224852" y="534.4"/>
		</contour>
	</outline>
	<anchor name="top" x="346.2657606066" y="541.2"/>
</glyph>
<glyph name="z" format="2">
	<unicode hex="007A"/>
	<advance width="600"/>
	<outline>
		<contour>
			<point x="123.7346153846" y="530.2" type="line"/>
			<point x="121.4576923077" y="524.5"/>
			<point x="120.0807692308" y="517.8"/>
			<point x="118.8019230769" y="511.2" type="curve" smooth="yes"/>
			<point x="112.6096153846" y="473.8980769231"/>
			<point x="123.8961538462" y="452.1519230769"/>
			<point x="152.8673076923" y="452.1519230769" type="curve" smooth="yes"/>
			<point x="275.0211538462" y="452.1519230769" type="line"/>
			<point x="335.2538461538" y="452.1519230769"/>
			<point x="385.1942307692" y="454.3538461538"/>
			<point x="457.775" y="458.9634615385" type="curve"/>
			<point x="458.5730769231" y="456.8653846154" type="line"/>
			<point x="363.3980769231" y="325.7903846154"/>
			<point x="207.1076923077" y="176.5923076923"/>
			<point x="45.2346153846" y="70.1480769231" type="curve"/>
			<point x="43.9557692308" y="63.0769230769" type="line" smooth="yes"/>
			<point x="38.3692307692" y="28.4865384615"/>
			<point x="46.3019230769" y="0"/>
			<point x="73.3634615385" y="0" type="curve" smooth="yes"/>
			<point x="480.5384615385" y="0" type="line"/>
			<point x="484.1615384615" y="7.2"/>
			<point x="487.2153846154" y="16.9"/>
			<point x="488.6961538462" y="25.0923076923" type="curve"/>
			<point x="494.35" y="58.3"/>
			<point x="479.3557692308" y="78.0480769231"/>
			<point x="440.4038461538" y="78.0480769231" type="curve" smooth="yes"/>
			<point x="353.8" y="78.0480769231" type="line"/>
			<point x="286.9365384615" y="78.0480769231"/>
			<point x="216.6788461538" y="74.1326923077"/>
			<point x="145.5596153846" y="71.8326923077" type="curve"/>
			<point x="144.9903846154" y="73.2307692308" type="line"/>
			<point x="347.7865384615" y="195.8365384615"/>
			<point x="548.6673076923" y="428.1769230769"/>
			<point x="554.8596153846" y="464.2519230769" type="curve"/>
			<point x="555.7346153846" y="468.9942307692" type="line" smooth="yes"/>
			<point x="559.3692307692" y="495.4"/>
			<point x="546.8615384615" y="530.2"/>
			<point x="520.7346153846" y="530.2" type="curve" smooth="yes"/>
		</contour>
		<contour>
			<point x="466.9096153846" y="427.7461538462" type="line"/>
			<point x="488.2365384615" y="434.9423076923" type="line"/>
			<point x="463.5442307692" y="489.2865384615" type="line"/>
			<point x="442.2173076923" y="481.0903846154" type="line"/>
		</contour>
		<contour>
			<point x="139.6115384615" y="39.5211538462" type="line"/>
			<point x="161.5038461538" y="43.7173076923" type="line"/>
			<point x="147.9807692308" y="102.9807692308" type="line"/>
			<point x="125.1153846154" y="97.7846153846" type="line"/>
		</contour>
	</outline>
	<anchor name="top" x="346.2657606066" y="541.2"/>
</glyph>
<glyph name="brokenbar" format="2">
	<unicode hex="00A6"/>
	<advance width="600"/>
	<outline>
		<contour>
			<point x="249.7" y="759.4" type="curve"/>
			<point x="256.6" y="724.1"/>
			<point x="258.5" y="688.5"/>
			<point x="258.5" y="650.6" type="curve" smooth="yes"/>
			<point x="258.5" y="405" type="line" smooth="yes"/>
			<point x="258.5" y="378.9"/>
			<point x="283.4" y="368.8"/>
			<point x="323.4" y="368.8" type="curve" smooth="yes"/>
			<point x="330.6" y="368.8"/>
			<point x="337" y="369.1"/>
			<point x="341.5" y="369.7" type="curve"/>
			<point x="341.5" y="700.6" type="line" smooth="yes"/>
			<point x="341.5" y="723.5"/>
			<point x="338.9" y="739.7"/>
			<point x="327.2" y="751.4" type="curve" smooth="yes"/>
			<point x="318.9" y="759.7"/>
			<point x="306.5" y="763.6"/>
			<point x="281.7" y="763.6" type="curve" smooth="yes"/>
			<point x="270" y="763.6"/>
			<point x="260.8" y="762.3"/>
		</contour>
		<contour>
			<point x="258.5" y="229.4" type="curve"/>
			<point x="258.5" y="-125" type="line"/>
			<point x="258.5" y="-151.1"/>
			<point x="283.4" y="-161.2"/>
			<point x="323.4" y="-161.2" type="curve" smooth="yes"/>
			<point x="330.6" y="-161.2"/>
			<point x="337" y="-160.9"/>
			<point x="341.5" y="-160.3" type="curve"/>
			<point x="341.5" y="186.7" type="line" smooth="yes"/>
			<point x="341.5" y="218.4"/>
			<point x="328.3" y="233.6"/>
			<point x="286" y="233.6" type="curve" smooth="yes"/>
			<point x="275.2" y="233.6"/>
			<point x="265.4" y="232.3"/>
		</contour>
	</outline>
</glyph>
<glyph name="guillemotleft" format="2">
	<unicode hex="00AB"/>
	<advance width="601"/>
	<outline>
		<contour>
			<point x="316.8" y="499.2" type="line"/>
			<point x="298.7" y="505.4"/>
			<point x="283.8" y="508"/>
			<point x="261.7" y="508" type="curve" smooth="yes"/>
			<point x="240.9" y="508"/>
			<point x="227.5" y="504.4"/>
			<point x="208.9" y="491.1" type="curve" smooth="yes"/>
			<point x="149.8" y="445.9"/>
			<point x="109.2" y="401.2"/>
			<point x="59.7" y="325" type="curve"/>
			<point x="59.7" y="305" type="line"/>
			<point x="59.7" y="285"/>
			<point x="84.5" y="278.7"/>
			<point x="112.5" y="276.6" type="curve"/>
			<point x="168.8" y="373.8"/>
			<point x="211.6" y="420.7"/>
			<point x="316.8" y="495.2" type="curve"/>
		</contour>
		<contour>
			<point x="316.8" y="104.8" type="line"/>
			<point x="213.7" y="179.8"/>
			<point x="162" y="232.7"/>
			<point x="115.8" y="321.4" type="curve"/>
			<point x="79" y="317.2"/>
			<point x="59.7" y="320"/>
			<point x="59.7" y="309" type="curve"/>
			<point x="59.7" y="301" type="line" smooth="yes"/>
			<point x="59.7" y="276"/>
			<point x="65.7" y="263"/>
			<point x="88.7" y="229.4" type="curve" smooth="yes"/>
			<point x="137.4" y="162.2"/>
			<point x="167" y="136.3"/>
			<point x="198" y="114.8" type="curve"/>
			<point x="222.7" y="97"/>
			<point x="238.9" y="92"/>
			<point x="263.7" y="92" type="curve" smooth="yes"/>
			<point x="288.1" y="92"/>
			<point x="301" y="94.6"/>
			<point x="316.8" y="100.8" type="curve"/>
		</contour>
		<contour>
			<point x="553.8" y="499.2" type="line"/>
			<point x="535.7" y="505.4"/>
			<point x="520.8" y="508"/>
			<point x="498.7" y="508" type="curve" smooth="yes"/>
			<point x="477.9" y="508"/>
			<point x="464.5" y="504.4"/>
			<point x="445.9" y="491.1" type="curve" smooth="yes"/>
			<point x="386.8" y="445.9"/>
			<point x="346.2" y="401.2"/>
			<point x="296.7" y="325" type="curve"/>
			<point x="296.7" y="305" type="line"/>
			<point x="296.7" y="285"/>
			<point x="321.5" y="278.7"/>
			<point x="349.5" y="276.6" type="curve"/>
			<point x="405.8" y="373.8"/>
			<point x="448.6" y="420.7"/>
			<point x="553.8" y="495.2" type="curve"/>
		</contour>
		<contour>
			<point x="553.8" y="104.8" type="line"/>
			<point x="450.7" y="179.8"/>
			<point x="399" y="232.7"/>
			<point x="352.8" y="321.4" type="curve"/>
			<point x="316" y="317.2"/>
			<point x="296.7" y="320"/>
			<point x="296.7" y="309" type="curve"/>
			<point x="296.7" y="301" type="line" smooth="yes"/>
			<point x="296.7" y="276"/>
			<point x="302.7" y="263"/>
			<point x="325.7" y="229.4" type="curve" smooth="yes"/>
			<point x="374.4" y="162.2"/>
			<point x="404" y="136.3"/>
			<point x="435" y="114.8" type="curve"/>
			<point x="459.7" y="97"/>
			<point x="475.9" y="92"/>
			<point x="500.7" y="92" type="curve" smooth="yes"/>
			<point x="525.1" y="92"/>
			<point x="538" y="94.6"/>
			<point x="553.8" y="100.8" type="curve"/>
		</contour>
	</outline>
</glyph>
<glyph name="registered" format="2">
	<unicode hex="00AE"/>
	<advance width="600"/>
	<outline>
		<contour>
			<point x="255.3" y="328.9" type="curve"/>
			<point x="250.3" y="354.3"/>
			<point x="248.3" y="374.8"/>
			<point x="248.3" y="403.3" type="curve"/>
			<point x="248.3" y="535.9" type="line"/>
			<point x="248.3" y="582.8"/>
			<point x="233.4" y="601.4"/>
			<point x="194.3" y="601.4" type="curve"/>
			<point x="194.3" y="377.8" type="line" smooth="yes"/>
			<point x="194.3" y="344.9"/>
			<point x="206.7" y="324.7"/>
			<point x="232.9" y="324.7" type="curve" smooth="yes"/>
			<point x="240.4" y="324.7"/>
			<point x="247.5" y="325.4"/>
		</contour>
		<contour>
			<point x="171.1" y="627.9" type="curve"/>
			<point x="168.5" y="621.4"/>
			<point x="167.2" y="613.9"/>
			<point x="167.2" y="603.8" type="curve"/>
			<point x="167.2" y="587.7"/>
			<point x="172.1" y="576.7"/>
			<point x="182.1" y="576.7" type="curve"/>
			<point x="186.1" y="576.7"/>
			<point x="190.4" y="577.7"/>
			<point x="197" y="579" type="curve" smooth="yes"/>
			<point x="225" y="584"/>
			<point x="265" y="589.1"/>
			<point x="293" y="589.1" type="curve" smooth="yes"/>
			<point x="340.5" y="589.1"/>
			<point x="363" y="581.9"/>
			<point x="385" y="559.5" type="curve"/>
			<point x="414.1" y="595.6"/>
			<point x="360.3" y="640.3"/>
			<point x="307.2" y="640.3" type="curve" smooth="yes"/>
			<point x="266.2" y="640.3"/>
			<point x="224.8" y="636.6"/>
		</contour>
		<contour>
			<point x="422.3" y="544.7" type="curve" smooth="yes"/>
			<point x="422.3" y="553.6" type="line" smooth="yes"/>
			<point x="422.3" y="601.1"/>
			<point x="381.9" y="640.3"/>
			<point x="307.2" y="640.3" type="curve"/>
			<point x="285.7" y="640.3"/>
			<point x="272.4" y="626.3"/>
			<point x="272.4" y="602.8" type="curve"/>
			<point x="347.9" y="602.8"/>
			<point x="367.9" y="592.2"/>
			<point x="367.9" y="547.1" type="curve" smooth="yes"/>
			<point x="367.9" y="540.4" type="line" smooth="yes"/>
			<point x="367.9" y="499.6"/>
			<point x="318.9" y="471.5"/>
			<point x="239.9" y="471.5" type="curve" smooth="yes"/>
			<point x="222.2" y="471.5"/>
			<point x="218.2" y="471.5"/>
			<point x="214.2" y="471.5" type="curve"/>
			<point x="211.5" y="467.7"/>
			<point x="211.2" y="465.2"/>
			<point x="211.2" y="458.7" type="curve" smooth="yes"/>
			<point x="211.2" y="447.1"/>
			<point x="222.8" y="423.3"/>
			<point x="238.8" y="423.3" type="curve" smooth="yes"/>
			<point x="240.8" y="423.3" type="line" smooth="yes"/>
			<point x="336.5" y="423.3"/>
			<point x="422.3" y="468.7"/>
		</contour>
		<contour>
			<point x="349.5" y="476.6" type="line"/>
			<point x="328.6" y="470.7"/>
			<point x="303.5" y="453.7"/>
			<point x="309.5" y="438.7" type="curve" smooth="yes"/>
			<point x="334.2" y="371.9" type="line" smooth="yes"/>
			<point x="346.2" y="340.5"/>
			<point x="366.1" y="324.7"/>
			<point x="387.4" y="324.7" type="curve" smooth="yes"/>
			<point x="391" y="324.7" type="line" smooth="yes"/>
			<point x="414.3" y="324.7"/>
			<point x="423.4" y="337.6"/>
			<point x="423.4" y="359.7" type="curve"/>
			<point x="423.4" y="370.5"/>
			<point x="422.4" y="377.4"/>
			<point x="420.5" y="383.5" type="curve"/>
			<point x="417.8" y="383.5" type="line"/>
			<point x="412.4" y="379.5"/>
			<point x="406" y="377.8"/>
			<point x="398.3" y="377.8" type="curve"/>
			<point x="388.6" y="377.8"/>
			<point x="384.3" y="382.9"/>
			<point x="372.9" y="413.1" type="curve" smooth="yes"/>
		</contour>
		<contour>
			<point x="300" y="760" type="curve" smooth="yes"/>
			<point x="136.7" y="760"/>
			<point x="42.7" y="662.9"/>
			<point x="42.7" y="487.5" type="curve" smooth="yes"/>
			<point x="42.7" y="474.4" type="line" smooth="yes"/>
			<point x="42.7" y="296.3"/>
			<point x="133.9469314079" y="200.6"/>
			<point x="300" y="200.6" type="curve" smooth="yes"/>
			<point x="328.5" y="200.6"/>
			<point x="337.5" y="218.1"/>
			<point x="337.5" y="233.6" type="curve"/>
			<point x="184.4698113208" y="233.6"/>
			<point x="89.5" y="306.7"/>
			<point x="89.5" y="461.5" type="curve" smooth="yes"/>
			<point x="89.5" y="497" type="line" smooth="yes"/>
			<point x="89.5" y="638.9"/>
			<point x="168.2" y="712.7"/>
			<point x="300" y="712.7" type="curve" smooth="yes"/>
			<point x="369.5" y="712.7"/>
			<point x="428.6024943081" y="688.5266934256"/>
			<point x="477.6" y="651.5" type="curve"/>
			<point x="504.9412719451" y="693.301179632"/>
			<point x="383.6" y="760"/>
		</contour>
		<contour>
			<point x="300" y="200.6" type="curve" smooth="yes"/>
			<point x="463.5046931408" y="200.6"/>
			<point x="557.3" y="296.6650557621"/>
			<point x="557.3" y="469.6" type="curve" smooth="yes"/>
			<point x="557.3" y="482.7" type="line" smooth="yes"/>
			<point x="557.3" y="664.34204947"/>
			<point x="466" y="760"/>
			<point x="300" y="760" type="curve" smooth="yes"/>
			<point x="271.5" y="760"/>
			<point x="262.5" y="742.5"/>
			<point x="262.5" y="727" type="curve"/>
			<point x="415.5301886792" y="727"/>
			<point x="510.5" y="653.9"/>
			<point x="510.5" y="496.3" type="curve" smooth="yes"/>
			<point x="510.5" y="460.8" type="line" smooth="yes"/>
			<point x="510.5" y="321"/>
			<point x="431.8" y="247.9"/>
			<point x="300" y="247.9" type="curve" smooth="yes"/>
			<point x="230.5" y="247.9"/>
			<point x="170.9288149474" y="271.741991866"/>
			<point x="122.4" y="309.1" type="curve"/>
			<point x="97.0762199724" y="266.40530612"/>
			<point x="216.2005181347" y="200.6"/>
		</contour>
	</outline>
</glyph>
<glyph name="plusminus" format="2">
	<unicode hex="00B1"/>
	<advance width="600"/>
	<outline>
		<contour>
			<point x="56.4" y="417.7" type="line"/>
			<point x="56.4" y="413.8"/>
			<point x="56.4" y="409.2"/>
			<point x="56.4" y="405" type="curve" smooth="yes"/>
			<point x="56.4" y="378.5"/>
			<point x="60.9" y="362.7"/>
			<point x="71.9" y="351.7" type="curve" smooth="yes"/>
			<point x="78.5" y="345.1"/>
			<point x="87.3" y="342.2"/>
			<point x="104.6" y="342.2" type="curve"/>
			<point x="543.9" y="342.2" type="line"/>
			<point x="545.1" y="350"/>
			<point x="546" y="359.4"/>
			<point x="546" y="366.6" type="curve" smooth="yes"/>
			<point x="546" y="399.4"/>
			<point x="537.4" y="417.7"/>
			<point x="507" y="417.7" type="curve"/>
		</contour>
		<contour>
			<point x="340" y="219.2" type="curve"/>
			<point x="340" y="463.8" type="line" smooth="yes"/>
			<point x="340" y="495"/>
			<point x="336.5" y="514"/>
			<point x="322.1" y="527.2" type="curve" smooth="yes"/>
			<point x="308.5" y="539.3"/>
			<point x="288.8" y="542.5"/>
			<point x="272.2" y="542.5" type="curve" smooth="yes"/>
			<point x="264.5" y="542.5"/>
			<point x="256.1" y="541.5"/>
			<point x="248.4" y="539.5" type="curve"/>
			<point x="257.4" y="513.1"/>
			<point x="260" y="497.4"/>
			<point x="260" y="456.1" type="curve" smooth="yes"/>
			<point x="260" y="252.1" type="line" smooth="yes"/>
			<point x="260" y="223.3"/>
			<point x="283.1" y="217.4"/>
			<point x="315.6" y="217.4" type="curve" smooth="yes"/>
			<point x="324.6" y="217.4"/>
			<point x="333.4" y="218"/>
		</contour>
		<contour>
			<point x="56.4" y="156" type="line"/>
			<point x="56.4" y="152.1"/>
			<point x="56.4" y="147.5"/>
			<point x="56.4" y="143.3" type="curve" smooth="yes"/>
			<point x="56.4" y="116.2"/>
			<point x="61.2" y="99.2"/>
			<point x="71.9" y="88.5" type="curve" smooth="yes"/>
			<point x="78.5" y="81.9"/>
			<point x="87.3" y="79"/>
			<point x="104.6" y="79" type="curve"/>
			<point x="543.9" y="79" type="line"/>
			<point x="545.1" y="86.8"/>
			<point x="546" y="96.2"/>
			<point x="546" y="103.4" type="curve" smooth="yes"/>
			<point x="546" y="137.4"/>
			<point x="537.4" y="156"/>
			<point x="507" y="156" type="curve"/>
		</contour>
	</outline>
</glyph>
<glyph name="onesuperior" format="2">
	<unicode hex="00B9"/>
	<advance width="600"/>
	<outline>
		<contour>
			<point x="353.9" y="402.1" type="curve"/>
			<point x="353.9" y="496"/>
			<point x="353.9" y="590.8"/>
			<point x="353.9" y="683.1" type="curve" smooth="yes"/>
			<point x="353.9" y="703.8"/>
			<point x="330.2" y="710"/>
			<point x="297.7" y="710" type="curve" smooth="yes"/>
			<point x="289.8" y="710" type="line"/>
			<point x="289.8" y="635.3"/>
			<point x="289.8" y="558"/>
			<point x="289.8" y="482.9" type="curve" smooth="yes"/>
			<point x="289.8" y="425.6"/>
			<point x="311.2" y="402.1"/>
		</contour>
		<contour>
			<point x="179.7" y="433.1" type="line"/>
			<point x="178.3" y="429.1"/>
			<point x="177.6" y="424.4"/>
			<point x="177.6" y="418" type="curve" smooth="yes"/>
			<point x="177.6" y="381.3"/>
			<point x="188.6" y="366"/>
			<point x="221" y="366" type="curve" smooth="yes"/>
			<point x="441.9" y="366" type="line"/>
			<point x="442.8" y="371"/>
			<point x="443.4" y="378.9"/>
			<point x="443.4" y="385.1" type="curve" smooth="yes"/>
			<point x="443.4" y="415.3"/>
			<point x="409" y="433.1"/>
			<point x="355" y="433.1" type="curve" smooth="yes"/>
		</contour>
		<contour>
			<point x="203.2" y="537.9" type="curve" smooth="yes"/>
			<point x="235.5" y="537.9"/>
			<point x="314.4" y="637.4"/>
			<point x="314.4" y="678.2" type="curve" smooth="yes"/>
			<point x="314.4" y="695.5"/>
			<point x="312.6" y="710"/>
			<point x="292.2" y="710" type="curve"/>
			<point x="278.9" y="710" type="line"/>
			<point x="252.2" y="659.8"/>
			<point x="220.3" y="624.9"/>
			<point x="178.3" y="598.3" type="curve"/>
			<point x="178.3" y="588.5" type="line" smooth="yes"/>
			<point x="178.3" y="552.2"/>
			<point x="190.8" y="537.9"/>
		</contour>
	</outline>
</glyph>
<glyph name="ordmasculine" format="2">
	<unicode hex="00BA"/>
	<advance width="600"/>
	<outline>
		<contour>
			<point x="300.5" y="762.7" type="curve" smooth="yes"/>
			<point x="188.0370370371" y="762.7"/>
			<point x="103.5" y="664.7280334728"/>
			<point x="103.5" y="508.2" type="curve" smooth="yes"/>
			<point x="103.5" y="498.4" type="line" smooth="yes"/>
			<point x="103.5" y="358.6927038626"/>
			<point x="183.6703703704" y="283.9"/>
			<point x="297.8" y="283.9" type="curve" smooth="yes"/>
			<point x="322" y="283.9"/>
			<point x="331.4" y="304.3"/>
			<point x="331.4" y="324.1" type="curve"/>
			<point x="216.3568053763" y="335.6228329311"/>
			<point x="176" y="398.6414634146"/>
			<point x="176" y="496.2" type="curve" smooth="yes"/>
			<point x="176" y="502.8" type="line" smooth="yes"/>
			<point x="176" y="614.5814814815"/>
			<point x="216.1091549296" y="695.6"/>
			<point x="301.1" y="695.6" type="curve" smooth="yes"/>
			<point x="344.2" y="695.6"/>
			<point x="373.3" y="683.5"/>
			<point x="407.1" y="662.6" type="curve"/>
			<point x="444.5" y="687.7"/>
			<point x="376.6" y="762.7"/>
		</contour>
		<contour>
			<point x="297.8" y="283.9" type="curve" smooth="yes"/>
			<point x="417.3756218906" y="283.9"/>
			<point x="496.5" y="364.4576271187"/>
			<point x="496.5" y="499.9" type="curve" smooth="yes"/>
			<point x="496.5" y="509.7" type="line" smooth="yes"/>
			<point x="496.5" y="667.0050847458"/>
			<point x="410.8800995025" y="762.7"/>
			<point x="300.5" y="762.7" type="curve" smooth="yes"/>
			<point x="278.1" y="762.7"/>
			<point x="269.2" y="742.3"/>
			<point x="269.2" y="718.3" type="curve"/>
			<point x="369.8044631536" y="710.8104242109"/>
			<point x="423.1" y="641.7465346535"/>
			<point x="423.1" y="509.8" type="curve" smooth="yes"/>
			<point x="423.1" y="502.6" type="line" smooth="yes"/>
			<point x="423.1" y="411.4784946237"/>
			<point x="382.7909090909" y="351.9"/>
			<point x="294.5" y="351.9" type="curve" smooth="yes"/>
			<point x="256.2" y="351.9"/>
			<point x="229.5" y="366.6"/>
			<point x="197.9" y="386.5" type="curve"/>
			<point x="167.3" y="355.9"/>
			<point x="228" y="283.9"/>
		</contour>
	</outline>
</glyph>
<glyph name="threequarters" format="2">
	<unicode hex="00BE"/>
	<advance width="600"/>
	<outline>
		<contour>
			<point x="175.3" y="648.4" type="curve" smooth="yes"/>
			<point x="224.7" y="648.4"/>
			<point x="250.9" y="629.6"/>
			<point x="250.9" y="604.4" type="curve" smooth="yes"/>
			<point x="250.9" y="596.4"/>
			<point x="249.9" y="591.4"/>
			<point x="248.9" y="586.4" type="curve"/>
			<point x="273.8" y="587.7"/>
			<point x="312.2" y="609.3"/>
			<point x="312.2" y="618" type="curve" smooth="yes"/>
			<point x="312.2" y="625" type="line" smooth="yes"/>
			<point x="312.2" y="672"/>
			<point x="263.2" y="711"/>
			<point x="181.2" y="711" type="curve"/>
			<point x="134.2" y="711"/>
			<point x="95" y="697.2"/>
			<point x="76.9" y="679.1" type="curve" smooth="yes"/>
			<point x="64.1" y="666.3"/>
			<point x="59.5" y="653.6"/>
			<point x="59.5" y="634.3" type="curve" smooth="yes"/>
			<point x="59.5" y="622.1"/>
			<point x="60.5" y="614.6"/>
			<point x="64.8" y="602.8" type="curve"/>
			<point x="66.8" y="602.8" type="line"/>
			<point x="100.6" y="636.6"/>
			<point x="132.9" y="648.4"/>
		</contour>
		<contour>
			<point x="141.2" y="525.7" type="curve" smooth="yes"/>
			<point x="260.2" y="525.7"/>
			<point x="312.2" y="571.7"/>
			<point x="312.2" y="618" type="curve" smooth="yes"/>
			<point x="312.2" y="642"/>
			<point x="277.2" y="658.5"/>
			<point x="252.1" y="658.5" type="curve"/>
			<point x="254.9" y="652.6"/>
			<point x="255.6" y="647.8"/>
			<point x="255.6" y="636" type="curve" smooth="yes"/>
			<point x="255.6" y="584.6"/>
			<point x="205" y="562.2"/>
			<point x="121.2" y="562.2" type="curve"/>
			<point x="119.2" y="555.6"/>
			<point x="118.2" y="550.6"/>
			<point x="118.2" y="540.7" type="curve" smooth="yes"/>
			<point x="118.2" y="528.7"/>
			<point x="136.2" y="525.7"/>
		</contour>
		<contour>
			<point x="146.1" y="508.3" type="curve" smooth="yes"/>
			<point x="221.7" y="506.8"/>
			<point x="260.9" y="484.6"/>
			<point x="260.9" y="450" type="curve" smooth="yes"/>
			<point x="260.9" y="442.7"/>
			<point x="260.2" y="437.2"/>
			<point x="258.1" y="431" type="curve"/>
			<point x="293.7" y="431"/>
			<point x="317.2" y="443.8"/>
			<point x="317.2" y="456.3" type="curve" smooth="yes"/>
			<point x="317.2" y="533.8"/>
			<point x="232.9" y="549.8"/>
			<point x="123.3" y="549.8" type="curve"/>
			<point x="122.3" y="544.4"/>
			<point x="118.2" y="544.4"/>
			<point x="118.2" y="540.7" type="curve" smooth="yes"/>
			<point x="118.2" y="522.8"/>
			<point x="123.1" y="508.9"/>
		</contour>
		<contour>
			<point x="175.4" y="419.3" type="curve" smooth="yes"/>
			<point x="127.1" y="419.3"/>
			<point x="91.8" y="434.3"/>
			<point x="61.2" y="463.6" type="curve"/>
			<point x="59.2" y="463.6" type="line"/>
			<point x="52.5" y="452"/>
			<point x="50.5" y="441.4"/>
			<point x="50.5" y="426.6" type="curve" smooth="yes"/>
			<point x="50.5" y="407.8"/>
			<point x="53.1" y="399.1"/>
			<point x="62.9" y="389.3" type="curve" smooth="yes"/>
			<point x="79.9" y="373.3"/>
			<point x="126.8" y="357"/>
			<point x="178.4" y="357" type="curve" smooth="yes"/>
			<point x="267.6" y="357"/>
			<point x="317.2" y="402.7"/>
			<point x="317.2" y="448.3" type="curve" smooth="yes"/>
			<point x="317.2" y="456.3" type="line" smooth="yes"/>
			<point x="317.2" y="478.1"/>
			<point x="289.3" y="487.4"/>
			<point x="256.8" y="488" type="curve"/>
			<point x="257.8" y="483"/>
			<point x="258.8" y="477"/>
			<point x="258.8" y="469.6" type="curve" smooth="yes"/>
			<point x="258.8" y="438.5"/>
			<point x="230.1" y="419.3"/>
		</contour>
		<contour>
			<point x="319.4" y="115" type="curve"/>
			<point x="339.1" y="200.2"/>
			<point x="385.3" y="268.7"/>
			<point x="467.8" y="324.2" type="curve"/>
			<point x="467.8" y="327.2" type="line"/>
			<point x="453" y="338.2"/>
			<point x="440.2" y="342.6"/>
			<point x="412.8" y="342.6" type="curve" smooth="yes"/>
			<point x="386.1" y="342.6"/>
			<point x="373.8" y="335.3"/>
			<point x="359.1" y="320.6" type="curve" smooth="yes"/>
			<point x="314.1" y="275.6"/>
			<point x="267" y="186.2"/>
			<point x="267" y="130" type="curve" smooth="yes"/>
			<point x="267" y="121.3"/>
			<point x="285.4" y="115"/>
		</contour>
		<contour>
			<point x="566.3" y="82" type="line"/>
			<point x="568.6" y="88.9"/>
			<point x="569.6" y="97.4"/>
			<point x="569.6" y="104.6" type="curve" smooth="yes"/>
			<point x="569.6" y="125.6"/>
			<point x="562.6" y="144.6"/>
			<point x="536.6" y="144.6" type="curve" smooth="yes"/>
			<point x="445.8" y="144.6" type="line" smooth="yes"/>
			<point x="360.6" y="144.6"/>
			<point x="319" y="140.3"/>
			<point x="267" y="130" type="curve"/>
			<point x="267" y="126" type="line" smooth="yes"/>
			<point x="267" y="109.4"/>
			<point x="283.7" y="82"/>
			<point x="304" y="82" type="curve" smooth="yes"/>
		</contour>
		<contour>
			<point x="516.8" y="-3" type="curve"/>
			<point x="511.8" y="16"/>
			<point x="509.8" y="32"/>
			<point x="509.8" y="52" type="curve" smooth="yes"/>
			<point x="509.8" y="200" type="line" smooth="yes"/>
			<point x="509.8" y="219"/>
			<point x="488" y="237"/>
			<point x="468.2" y="237" type="curve" smooth="yes"/>
			<point x="466.2" y="237" type="line"/>
			<point x="448.4" y="197.2"/>
			<point x="443" y="160"/>
			<point x="443" y="131" type="curve" smooth="yes"/>
			<point x="443" y="30.4" type="line" smooth="yes"/>
			<point x="443" y="3.7"/>
			<point x="468.2" y="-6"/>
			<point x="496.1" y="-6" type="curve" smooth="yes"/>
			<point x="503.2" y="-6"/>
			<point x="510.3" y="-5"/>
		</contour>
		<component base="fraction"/>
	</outline>
</glyph>
<glyph name="multiply" format="2">
	<unicode hex="00D7"/>
	<advance width="600"/>
	<outline>
		<contour>
			<point x="100.7" y="155.2" type="curve"/>
			<point x="103.3" y="152.6"/>
			<point x="106.6" y="149.3"/>
			<point x="109.5" y="146.4" type="curve" smooth="yes"/>
			<point x="129.8" y="126.1"/>
			<point x="145.5" y="117.4"/>
			<point x="160.7" y="117.4" type="curve" smooth="yes"/>
			<point x="169.8" y="117.4"/>
			<point x="177.1" y="120.3"/>
			<point x="190.4" y="132.1" type="curve" smooth="yes"/>
			<point x="298.3" y="223.2"/>
			<point x="403" y="325.9"/>
			<point x="501.4" y="443.3" type="curve"/>
			<point x="496.4" y="450.1"/>
			<point x="490.4" y="457.6"/>
			<point x="484.8" y="463.2" type="curve" smooth="yes"/>
			<point x="470" y="478.7"/>
			<point x="456.3" y="488.2"/>
			<point x="443.3" y="488.2" type="curve" smooth="yes"/>
			<point x="435" y="488.2"/>
			<point x="427.4" y="483.8"/>
			<point x="419.8" y="474.3" type="curve" smooth="yes"/>
			<point x="319.8" y="352.9"/>
			<point x="215.9" y="244.9"/>
		</contour>
		<contour>
			<point x="502.9" y="155.2" type="curve"/>
			<point x="386.3" y="250.2"/>
			<point x="280.6" y="358.2"/>
			<point x="183.8" y="474.3" type="curve" smooth="yes"/>
			<point x="176.2" y="483.8"/>
			<point x="168.6" y="488.2"/>
			<point x="160.3" y="488.2" type="curve" smooth="yes"/>
			<point x="147.3" y="488.2"/>
			<point x="133.6" y="478.4"/>
			<point x="118.8" y="463.2" type="curve" smooth="yes"/>
			<point x="113.5" y="457.6"/>
			<point x="107.2" y="450.1"/>
			<point x="102.2" y="443.3" type="curve"/>
			<point x="197.4" y="330.3"/>
			<point x="303.5" y="224.4"/>
			<point x="410.5" y="133.6" type="curve" smooth="yes"/>
			<point x="425.2" y="120.8"/>
			<point x="435" y="117.4"/>
			<point x="444.1" y="117.4" type="curve" smooth="yes"/>
			<point x="459.3" y="117.4"/>
			<point x="473.8" y="126.1"/>
			<point x="494.1" y="146.4" type="curve" smooth="yes"/>
			<point x="497" y="149.3"/>
			<point x="500.3" y="152.6"/>
		</contour>
	</outline>
</glyph>
<glyph name="germandbls" format="2">
	<unicode hex="00DF"/>
	<advance width="600"/>
	<outline>
		<contour>
			<point x="220.2" y="692.8" type="curve"/>
			<point x="153.9252559368" y="718.8526235031"/>
			<point x="82.2" y="626.6"/>
			<point x="82.2" y="540.8" type="curve" smooth="yes"/>
			<point x="82.2" y="60.4" type="line" smooth="yes"/>
			<point x="82.2" y="5.6"/>
			<point x="107.7" y="-7.2"/>
			<point x="146.1" y="-7.2" type="curve"/>
			<point x="157.7" y="-7.2"/>
			<point x="168.6" y="-5.9"/>
			<point x="178.8" y="-2.6" type="curve"/>
			<point x="168.2" y="33.5"/>
			<point x="165.2" y="59.1"/>
			<point x="165.2" y="107.9" type="curve"/>
			<point x="165.2" y="517.7" type="line"/>
			<point x="165.2" y="611.7"/>
			<point x="180" y="644.5"/>
		</contour>
		<contour>
			<point x="311.7" y="763" type="curve" smooth="yes"/>
			<point x="162.9" y="763"/>
			<point x="82.2" y="683.7"/>
			<point x="82.2" y="540.8" type="curve" smooth="yes"/>
			<point x="82.2" y="517.6"/>
			<point x="93" y="508.3"/>
			<point x="127" y="509" type="curve"/>
			<point x="133" y="629"/>
			<point x="197.5" y="687.5"/>
			<point x="309" y="687.5" type="curve" smooth="yes"/>
			<point x="393.9" y="687.5"/>
			<point x="442.8" y="662.3"/>
			<point x="442.8" y="610.7" type="curve"/>
			<point x="442.8" y="592.2"/>
			<point x="440.4" y="574.5"/>
			<point x="433.3" y="554.7" type="curve"/>
			<point x="483.3" y="559.6"/>
			<point x="514.6" y="593.1588235294"/>
			<point x="514.6" y="628.7" type="curve" smooth="yes"/>
			<point x="514.6" y="692.8"/>
			<point x="464.6" y="763"/>
		</contour>
		<contour>
			<point x="285.2" y="384.5" type="line" smooth="yes"/>
			<point x="285.2" y="355.372"/>
			<point x="329.4957924465" y="320.5996883293"/>
			<point x="375.4" y="327.1" type="curve"/>
			<point x="363.5" y="347.4"/>
			<point x="361.1" y="364.8"/>
			<point x="361.1" y="379.9" type="curve" smooth="yes"/>
			<point x="361.1" y="403.9"/>
			<point x="374.062779797" y="424.8082955258"/>
			<point x="412.2" y="461.1" type="curve" smooth="yes"/>
			<point x="447.9" y="495" type="line" smooth="yes"/>
			<point x="496.1" y="539.6"/>
			<point x="514.6" y="567.7"/>
			<point x="514.6" y="615.7" type="curve" smooth="yes"/>
			<point x="514.6" y="628.7" type="line" smooth="yes"/>
			<point x="514.6" y="648.605"/>
			<point x="489.6061162109" y="683.6005318444"/>
			<point x="430.7" y="680.8" type="curve"/>
			<point x="435.5615058626" y="661.7719687329"/>
			<point x="438" y="652"/>
			<point x="438" y="636.6" type="curve" smooth="yes"/>
			<point x="438" y="594.8"/>
			<point x="429.4" y="575.3"/>
			<point x="388.7" y="539.5" type="curve" smooth="yes"/>
			<point x="342.6" y="498.3" type="line" smooth="yes"/>
			<point x="304.4" y="464"/>
			<point x="285.2" y="426.3"/>
			<point x="285.2" y="391.5" type="curve" smooth="yes"/>
		</contour>
		<contour>
			<point x="442.6" y="303.1" type="curve" smooth="yes"/>
			<point x="413.1" y="320" type="line" smooth="yes"/>
			<point x="368.3306658937" y="345.7777208291"/>
			<point x="354.8" y="356.8"/>
			<point x="354.8" y="387" type="curve" smooth="yes"/>
			<point x="354.8" y="408.2"/>
			<point x="359.3463899089" y="430.9317967548"/>
			<point x="373.5" y="454.8" type="curve"/>
			<point x="326.3165979647" y="462.4970360777"/>
			<point x="285.2" y="420.4222222222"/>
			<point x="285.2" y="384.5" type="curve" smooth="yes"/>
			<point x="285.2" y="342.2"/>
			<point x="305.1800940542" y="310.7482272134"/>
			<point x="362.2" y="277.2" type="curve" smooth="yes"/>
			<point x="391.2" y="260.1" type="line" smooth="yes"/>
			<point x="459.4" y="220.6"/>
			<point x="474.9" y="186"/>
			<point x="474.9" y="150.9" type="curve"/>
			<point x="474.9" y="117.9"/>
			<point x="470.5502113775" y="103.780591857"/>
			<point x="453.9" y="68.8" type="curve"/>
			<point x="507.4085152883" y="53.7103022293"/>
			<point x="547.6" y="103.0134831461"/>
			<point x="547.6" y="145" type="curve" smooth="yes"/>
			<point x="547.6" y="205.7363636363"/>
			<point x="519.3122973683" y="259.0259110357"/>
		</contour>
		<contour>
			<point x="384.8" y="70" type="curve" smooth="yes"/>
			<point x="325.8" y="70"/>
			<point x="299.7" y="80.2"/>
			<point x="260.4" y="114.8" type="curve"/>
			<point x="256.4" y="114.8" type="line"/>
			<point x="254.5" y="107.8"/>
			<point x="252.9" y="97.9"/>
			<point x="252.9" y="83.4" type="curve" smooth="yes"/>
			<point x="252.9" y="60.1"/>
			<point x="257.9" y="39.2"/>
			<point x="271.1" y="26" type="curve" smooth="yes"/>
			<point x="291" y="5.4"/>
			<point x="329.9" y="-10.6"/>
			<point x="386.6" y="-10.6" type="curve" smooth="yes"/>
			<point x="481.8863636363" y="-10.6"/>
			<point x="547.6" y="42.92"/>
			<point x="547.6" y="135.8" type="curve" smooth="yes"/>
			<point x="547.6" y="145" type="line" smooth="yes"/>
			<point x="547.6" y="179.14"/>
			<point x="516.7" y="215.5"/>
			<point x="470.8" y="210.7" type="curve"/>
			<point x="476.6909517855" y="187.24918597"/>
			<point x="480.7" y="168.545945946"/>
			<point x="480.7" y="147.4" type="curve" smooth="yes"/>
			<point x="480.7" y="101.2095744681"/>
			<point x="448.8623853211" y="70"/>
		</contour>
	</outline>
</glyph>
<glyph name="ae" format="2">
	<unicode hex="00E6"/>
	<advance width="600"/>
	<outline>
		<contour>
			<point x="184" y="540.2" type="curve" smooth="yes"/>
			<point x="130.2842105263" y="540.2"/>
			<point x="78.8037280529" y="528.703728053"/>
			<point x="61" y="510.9" type="curve" smooth="yes"/>
			<point x="49.9242549767" y="499.8242549767"/>
			<point x="46.1" y="483.8216216216"/>
			<point x="46.1" y="465.1" type="curve" smooth="yes"/>
			<point x="46.1" y="454.3"/>
			<point x="47.1" y="445.1"/>
			<point x="49.7" y="437.4" type="curve"/>
			<point x="53.7" y="437.4" type="line"/>
			<point x="88.4522389406" y="453.4666045365"/>
			<point x="129.4046511628" y="465.9"/>
			<point x="175.4" y="465.9" type="curve" smooth="yes"/>
			<point x="243.1705882353" y="465.9"/>
			<point x="265.3" y="422.1"/>
			<point x="265.3" y="329.2" type="curve" smooth="yes"/>
			<point x="265.3" y="120.7" type="line"/>
			<point x="292.3" y="132.6"/>
			<point x="320.6" y="158.8"/>
			<point x="320.6" y="198.4" type="curve"/>
			<point x="320.6" y="371" type="line" smooth="yes"/>
			<point x="320.6" y="469.5909090909"/>
			<point x="265.2882882883" y="540.2"/>
		</contour>
		<contour>
			<point x="102" y="140.5" type="curve" smooth="yes"/>
			<point x="102" y="145" type="line" smooth="yes"/>
			<point x="102" y="193.2989690722"/>
			<point x="111.0834668417" y="219.8358581745"/>
			<point x="144.4" y="254.8" type="curve"/>
			<point x="83.6" y="265.7"/>
			<point x="27.7" y="194.4"/>
			<point x="27.7" y="145.4" type="curve" smooth="yes"/>
			<point x="27.7" y="137.1" type="line" smooth="yes"/>
			<point x="27.7" y="41.9"/>
			<point x="72.5" y="-10"/>
			<point x="149.8" y="-10" type="curve" smooth="yes"/>
			<point x="239.9245508982" y="-10"/>
			<point x="321.1" y="78.4"/>
			<point x="321.1" y="152.2" type="curve" smooth="yes"/>
			<point x="321.1" y="163.2"/>
			<point x="309.3" y="167.2"/>
			<point x="273" y="171.5" type="curve"/>
			<point x="245.5" y="90.2"/>
			<point x="207.9" y="62"/>
			<point x="157.5" y="62" type="curve" smooth="yes"/>
			<point x="154.5" y="62" type="line" smooth="yes"/>
			<point x="120.9" y="62"/>
			<point x="102" y="86.5"/>
		</contour>
		<contour>
			<point x="284.6" y="285.6" type="curve" smooth="yes"/>
			<point x="269.6" y="293.8"/>
			<point x="242.3" y="305.8"/>
			<point x="180.8" y="305.8" type="curve" smooth="yes"/>
			<point x="92.1" y="305.8"/>
			<point x="27.7" y="233.4"/>
			<point x="27.7" y="145.4" type="curve" smooth="yes"/>
			<point x="27.7" y="128.9"/>
			<point x="36.6" y="121.1"/>
			<point x="61.3" y="121.1" type="curve"/>
			<point x="87.6" y="200.9"/>
			<point x="118.4" y="239.9"/>
			<point x="193.4" y="239.9" type="curve" smooth="yes"/>
			<point x="231.4" y="239.9"/>
			<point x="257.5" y="235.7"/>
			<point x="297.2" y="226.1" type="curve"/>
			<point x="297.9" y="257"/>
			<point x="296.8" y="279.3"/>
		</contour>
		<contour>
			<point x="430.2" y="200.9" type="line" smooth="yes"/>
			<point x="519" y="200.9"/>
			<point x="571" y="257.7"/>
			<point x="571" y="355.8" type="curve" smooth="yes"/>
			<point x="571" y="369.7" type="line" smooth="yes"/>
			<point x="571" y="470.6"/>
			<point x="512.1" y="540.8"/>
			<point x="429.5" y="540.8" type="curve" smooth="yes"/>
			<point x="411.7" y="540.8"/>
			<point x="407.3" y="529.6"/>
			<point x="407.3" y="493.3" type="curve"/>
			<point x="477.5" y="487"/>
			<point x="500" y="428.9"/>
			<point x="500" y="367.9" type="curve" smooth="yes"/>
			<point x="500" y="359.4" type="line" smooth="yes"/>
			<point x="500" y="291.747368421"/>
			<point x="474.2" y="264.1"/>
			<point x="416.8" y="264.1" type="curve" smooth="yes"/>
			<point x="375.4" y="264.1"/>
			<point x="352.9" y="267.8"/>
			<point x="311.5" y="281.3" type="curve"/>
			<point x="309.1" y="247.2"/>
			<point x="311.2" y="236.2"/>
			<point x="323" y="224.4" type="curve" smooth="yes"/>
			<point x="333.6" y="213.8"/>
			<point x="364.4" y="200.9"/>
			<point x="418.8" y="200.9" type="curve" smooth="yes"/>
		</contour>
		<contour>
			<point x="429" y="471.9" type="curve" smooth="yes"/>
			<point x="461.4" y="471.9"/>
			<point x="475.6" y="463.1"/>
			<point x="497.7" y="443.4" type="curve"/>
			<point x="521.4" y="487.8"/>
			<point x="481.5" y="540.8"/>
			<point x="429.5" y="540.8" type="curve"/>
			<point x="338.8" y="540.8"/>
			<point x="277.5" y="447.945631068"/>
			<point x="277.5" y="297.8" type="curve" smooth="yes"/>
			<point x="277.5" y="212.6" type="line" smooth="yes"/>
			<point x="277.5" y="80.3"/>
			<point x="335.9899441341" y="-10.6"/>
			<point x="444.5" y="-10.6" type="curve" smooth="yes"/>
			<point x="453.275" y="-10.6"/>
			<point x="465.2" y="8.1"/>
			<point x="465.2" y="39.5" type="curve"/>
			<point x="387.5" y="39.8"/>
			<point x="335.5" y="106.6"/>
			<point x="335.5" y="209.3" type="curve" smooth="yes"/>
			<point x="335.5" y="304.5" type="line" smooth="yes"/>
			<point x="335.5" y="412.8"/>
			<point x="366.6" y="471.9"/>
		</contour>
		<contour>
			<point x="555.2" y="19.2" type="curve" smooth="yes"/>
			<point x="563.2" y="26.9"/>
			<point x="570.8" y="40.2"/>
			<point x="570.8" y="63.5" type="curve" smooth="yes"/>
			<point x="570.8" y="76.2"/>
			<point x="569.5" y="86.8"/>
			<point x="566.6" y="96.3" type="curve"/>
			<point x="562.6" y="96.3" type="line"/>
			<point x="531" y="71.8"/>
			<point x="500.2" y="61"/>
			<point x="444.3" y="61" type="curve" smooth="yes"/>
			<point x="404.9" y="61"/>
			<point x="378.2" y="70"/>
			<point x="350.6" y="98" type="curve"/>
			<point x="332.2694551272" y="44.1534814294"/>
			<point x="379.01625" y="-10.6"/>
			<point x="444.5" y="-10.6" type="curve" smooth="yes"/>
			<point x="501.0655462185" y="-10.6"/>
			<point x="536.2810829369" y="1.1427534455"/>
		</contour>
	</outline>
	<anchor name="top" x="299.7" y="541.2"/>
</glyph>
<glyph name="divide" format="2">
	<unicode hex="00F7"/>
	<advance width="600"/>
	<outline>
		<contour>
			<point x="57" y="340" type="line"/>
			<point x="57" y="336.1"/>
			<point x="57" y="331.5"/>
			<point x="57" y="327.3" type="curve" smooth="yes"/>
			<point x="57" y="298.4"/>
			<point x="61.5" y="280.5"/>
			<point x="72.5" y="269.5" type="curve" smooth="yes"/>
			<point x="79.1" y="262.9"/>
			<point x="87.9" y="260"/>
			<point x="105.2" y="260" type="curve"/>
			<point x="542.1" y="260" type="line"/>
			<point x="543.3" y="268.4"/>
			<point x="544.2" y="278.1"/>
			<point x="544.2" y="285.9" type="curve" smooth="yes"/>
			<point x="544.2" y="321.1"/>
			<point x="535.6" y="340"/>
			<point x="506.2" y="340" type="curve"/>
		</contour>
		<contour>
			<point x="368.6" y="423" type="curve"/>
			<point x="368.6" y="489.4" type="line" smooth="yes"/>
			<point x="368.6" y="532.1"/>
			<point x="338.1" y="549.5"/>
			<point x="290.5" y="549.5" type="curve" smooth="yes"/>
			<point x="268.2" y="549.5"/>
			<point x="248" y="545.4"/>
			<point x="231.4" y="537.9" type="curve"/>
			<point x="231.4" y="471.5" type="line" smooth="yes"/>
			<point x="231.4" y="428.8"/>
			<point x="261.9" y="411.4"/>
			<point x="309.5" y="411.4" type="curve" smooth="yes"/>
			<point x="331.8" y="411.4"/>
			<point x="352" y="415.5"/>
		</contour>
		<contour>
			<point x="368.6" y="62.1" type="curve"/>
			<point x="368.6" y="128.5" type="line" smooth="yes"/>
			<point x="368.6" y="171.2"/>
			<point x="338.1" y="188.6"/>
			<point x="290.5" y="188.6" type="curve" smooth="yes"/>
			<point x="268.2" y="188.6"/>
			<point x="248" y="184.5"/>
			<point x="231.4" y="177" type="curve"/>
			<point x="231.4" y="110.6" type="line" smooth="yes"/>
			<point x="231.4" y="67.9"/>
			<point x="261.9" y="50.5"/>
			<point x="309.5" y="50.5" type="curve" smooth="yes"/>
			<point x="331.8" y="50.5"/>
			<point x="352" y="54.6"/>
		</contour>
	</outline>
</glyph>
<glyph name="dcroat" format="2">
	<unicode hex="0111"/>
	<advance width="600"/>
	<outline>
		<contour>
			<point x="204" y="667.6" type="line"/>
			<point x="204" y="664.3"/>
			<point x="204" y="660.3"/>
			<point x="204" y="656.7" type="curve" smooth="yes"/>
			<point x="204" y="620"/>
			<point x="210.8666666667" y="603.5"/>
			<point x="233.6" y="603.5" type="curve" smooth="yes"/>
			<point x="576.8" y="603.5" type="line"/>
			<point x="577.4" y="609.8"/>
			<point x="578" y="617.4"/>
			<point x="578" y="623.4" type="curve" smooth="yes"/>
			<point x="578" y="650.8"/>
			<point x="572.4" y="667.6"/>
			<point x="552.9" y="667.6" type="curve"/>
		</contour>
		<component base="d"/>
	</outline>
</glyph>
<glyph name="ij" format="2">
	<unicode hex="0133"/>
	<advance width="600"/>
	<outline>
		<contour>
			<point x="184.6" y="653.7" type="curve"/>
			<point x="184.6" y="715" type="line" smooth="yes"/>
			<point x="184.6" y="746.6"/>
			<point x="158.5" y="758.1"/>
			<point x="118" y="758.1" type="curve" smooth="yes"/>
			<point x="103.7" y="758.1"/>
			<point x="87.7" y="756.8"/>
			<point x="74.6" y="754.2" type="curve"/>
			<point x="74.6" y="692.9" type="line" smooth="yes"/>
			<point x="74.6" y="661.3"/>
			<point x="101.4" y="649.8"/>
			<point x="140.2" y="649.8" type="curve" smooth="yes"/>
			<point x="155.5" y="649.8"/>
			<point x="171.5" y="651.1"/>
		</contour>
		<contour>
			<point x="525.1" y="653.7" type="curve"/>
			<point x="525.1" y="715" type="line" smooth="yes"/>
			<point x="525.1" y="746.6"/>
			<point x="497.8" y="758.1"/>
			<point x="457.1" y="758.1" type="curve" smooth="yes"/>
			<point x="441.8" y="758.1"/>
			<point x="425.8" y="756.8"/>
			<point x="412.7" y="754.2" type="curve"/>
			<point x="412.7" y="692.9" type="line" smooth="yes"/>
			<point x="412.7" y="661.3"/>
			<point x="440.7" y="649.8"/>
			<point x="480.7" y="649.8" type="curve" smooth="yes"/>
			<point x="496" y="649.8"/>
			<point x="512" y="651.1"/>
		</contour>
		<component base="dotlessij"/>
	</outline>
</glyph>
<glyph name="Ldot" format="2">
	<unicode hex="013F"/>
	<advance width="600"/>
	<outline>
		<contour>
			<point x="446.6" y="348.3" type="curve"/>
			<point x="446.6" y="413.2" type="line" smooth="yes"/>
			<point x="446.6" y="444.8"/>
			<point x="421.7" y="456.3"/>
			<point x="384" y="456.3" type="curve" smooth="yes"/>
			<point x="367.3" y="456.3"/>
			<point x="350.0821524707" y="455.2205381177"/>
			<point x="336.1" y="452.4" type="curve"/>
			<point x="336.1" y="387.5" type="line" smooth="yes"/>
			<point x="336.1" y="355.9"/>
			<point x="361.7" y="344.4"/>
			<point x="398.7" y="344.4" type="curve" smooth="yes"/>
			<point x="415.4" y="344.4"/>
			<point x="432.6178475293" y="345.4794618823"/>
		</contour>
		<component base="L"/>
	</outline>
</glyph>
<glyph name="Lslash" format="2">
	<unicode hex="0141"/>
	<advance width="600"/>
	<outline>
		<contour>
			<point x="195.5" y="35.9" type="curve"/>
			<point x="195.5" y="647" type="line" smooth="yes"/>
			<point x="195.5" y="669.9"/>
			<point x="192.9" y="686.1"/>
			<point x="181.2" y="697.8" type="curve" smooth="yes"/>
			<point x="172.9" y="706.1"/>
			<point x="160.5" y="710"/>
			<point x="135.7" y="710" type="curve" smooth="yes"/>
			<point x="124" y="710"/>
			<point x="114.8" y="708.7"/>
			<point x="103.7" y="705.8" type="curve"/>
			<point x="110.6" y="670.8"/>
			<point x="112.5" y="635.2"/>
			<point x="112.5" y="597" type="curve" smooth="yes"/>
			<point x="112.5" y="71.2" type="line" smooth="yes"/>
			<point x="112.5" y="44.9"/>
			<point x="147.4" y="35.9"/>
		</contour>
		<contour>
			<point x="112.5" y="83" type="line"/>
			<point x="112.5" y="67.6" type="line" smooth="yes"/>
			<point x="112.5" y="36.6"/>
			<point x="140.3" y="0"/>
			<point x="165.9" y="0" type="curve" smooth="yes"/>
			<point x="537.5" y="0" type="line"/>
			<point x="539" y="7.2"/>
			<point x="539.3" y="17.2"/>
			<point x="539.3" y="27.4" type="curve" smooth="yes"/>
			<point x="539.3" y="66.1"/>
			<point x="528.3" y="83"/>
			<point x="504.6" y="83" type="curve" smooth="yes"/>
		</contour>
		<contour>
			<point x="387.1" y="495.9" type="curve"/>
			<point x="178.6" y="383.8" type="line" smooth="yes"/>
			<point x="162.4" y="375.4"/>
			<point x="141.7" y="376.3"/>
			<point x="126.2" y="367.9" type="curve" smooth="yes"/>
			<point x="66.8" y="336.2" type="line" smooth="yes"/>
			<point x="38.4" y="321.4"/>
			<point x="27" y="301.4"/>
			<point x="27" y="270.7" type="curve" smooth="yes"/>
			<point x="27" y="257.8"/>
			<point x="28" y="246.1"/>
			<point x="31.2" y="234.1" type="curve"/>
			<point x="124.9" y="285.6" type="line" smooth="yes"/>
			<point x="142.7" y="295.3"/>
			<point x="164.7" y="294"/>
			<point x="182.5" y="303.4" type="curve" smooth="yes"/>
			<point x="338.9" y="386.7" type="line" smooth="yes"/>
			<point x="380" y="408.7"/>
			<point x="391.3" y="423.9"/>
			<point x="391.3" y="459.8" type="curve" smooth="yes"/>
			<point x="391.3" y="473.1"/>
			<point x="390" y="485"/>
		</contour>
	</outline>
</glyph>
<glyph name="Eng" format="2">
	<unicode hex="014A"/>
	<advance width="600"/>
	<outline>
		<contour>
			<point x="295.8" y="-170" type="curve" smooth="yes"/>
			<point x="240.4" y="-170"/>
			<point x="206.7" y="-161.8"/>
			<point x="163.6" y="-136.8" type="curve"/>
			<point x="159.6" y="-136.8" type="line"/>
			<point x="158" y="-143.9"/>
			<point x="157" y="-153.8"/>
			<point x="157" y="-162.9" type="curve" smooth="yes"/>
			<point x="157" y="-185.9"/>
			<point x="162.4" y="-207.4"/>
			<point x="173.6" y="-218.6" type="curve" smooth="yes"/>
			<point x="191" y="-236"/>
			<point x="234.1" y="-250"/>
			<point x="293.3" y="-250" type="curve" smooth="yes"/>
			<point x="454" y="-250"/>
			<point x="524.5" y="-133.5"/>
			<point x="524.5" y="-10" type="curve"/>
			<point x="524.5" y="14.5"/>
			<point x="493.3" y="27.8"/>
			<point x="453.6" y="27.8" type="curve"/>
			<point x="453.6" y="-112.9"/>
			<point x="399.4" y="-170"/>
		</contour>
		<component base="N"/>
	</outline>
</glyph>
<glyph name="oe" format="2">
	<unicode hex="0153"/>
	<advance width="600"/>
	<outline>
		<contour>
			<point x="189.8" y="540.8" type="curve" smooth="yes"/>
			<point x="97.8" y="540.8"/>
			<point x="29" y="428.3"/>
			<point x="29" y="233.2" type="curve" smooth="yes"/>
			<point x="29" y="212.5" type="line" smooth="yes"/>
			<point x="29" y="71.2"/>
			<point x="84.8" y="-10.6"/>
			<point x="178.1" y="-10.6" type="curve" smooth="yes"/>
			<point x="200.2" y="-10.6"/>
			<point x="210.5" y="9.1"/>
			<point x="210.5" y="38.2" type="curve"/>
			<point x="134.6" y="38.9"/>
			<point x="100" y="99.2"/>
			<point x="100" y="216.6" type="curve" smooth="yes"/>
			<point x="100" y="230.9" type="line" smooth="yes"/>
			<point x="100" y="391.5"/>
			<point x="140.2" y="471.9"/>
			<point x="190.6" y="471.9" type="curve" smooth="yes"/>
			<point x="216.3608695652" y="471.9"/>
			<point x="229.8" y="464.6"/>
			<point x="246.7" y="446.4" type="curve"/>
			<point x="269.4" y="479"/>
			<point x="238.6231884058" y="540.8"/>
		</contour>
		<contour>
			<point x="178.1" y="-10.6" type="curve" smooth="yes"/>
			<point x="259.6" y="-10.6"/>
			<point x="322.5" y="82.5"/>
			<point x="322.5" y="212.7" type="curve" smooth="yes"/>
			<point x="322.5" y="286.3" type="line" smooth="yes"/>
			<point x="322.5" y="443.4990990991"/>
			<point x="273" y="540.8"/>
			<point x="189.8" y="540.8" type="curve" smooth="yes"/>
			<point x="168.7086956522" y="540.8"/>
			<point x="155.3" y="525.6"/>
			<point x="155.3" y="491.6" type="curve"/>
			<point x="224.6" y="491.6"/>
			<point x="264.5" y="433.2"/>
			<point x="264.5" y="285.7" type="curve" smooth="yes"/>
			<point x="264.5" y="216.3" type="line" smooth="yes"/>
			<point x="264.5" y="125.2"/>
			<point x="234.5" y="58.3"/>
			<point x="180.5" y="58.3" type="curve" smooth="yes"/>
			<point x="153.6" y="58.3"/>
			<point x="134.4" y="65.9"/>
			<point x="111" y="89.9" type="curve"/>
			<point x="87.8" y="44.3"/>
			<point x="123.6384615385" y="-10.6"/>
		</contour>
		<contour>
			<point x="430.2" y="204.8" type="line" smooth="yes"/>
			<point x="519" y="204.8"/>
			<point x="571" y="260.7"/>
			<point x="571" y="356.7" type="curve" smooth="yes"/>
			<point x="571" y="369.7" type="line" smooth="yes"/>
			<point x="571" y="470.6"/>
			<point x="512.1" y="540.8"/>
			<point x="429.5" y="540.8" type="curve" smooth="yes"/>
			<point x="411.7" y="540.8"/>
			<point x="407.3" y="529.6"/>
			<point x="407.3" y="493.3" type="curve"/>
			<point x="477.5" y="487"/>
			<point x="500" y="428.9"/>
			<point x="500" y="367.9" type="curve" smooth="yes"/>
			<point x="500" y="360.3" type="line" smooth="yes"/>
			<point x="500" y="292.3"/>
			<point x="474.2" y="264.7"/>
			<point x="416.8" y="264.7" type="curve" smooth="yes"/>
			<point x="375.4" y="264.7"/>
			<point x="348.7" y="268.4"/>
			<point x="307.3" y="282.5" type="curve"/>
			<point x="305.2" y="250.5"/>
			<point x="308.7" y="240.7"/>
			<point x="320.2" y="229.2" type="curve" smooth="yes"/>
			<point x="331.1" y="218.3"/>
			<point x="365" y="204.8"/>
			<point x="418.8" y="204.8" type="curve" smooth="yes"/>
		</contour>
		<contour>
			<point x="429" y="471.9" type="curve" smooth="yes"/>
			<point x="461.4" y="471.9"/>
			<point x="475.6" y="463.1"/>
			<point x="497.7" y="443.4" type="curve"/>
			<point x="521.4" y="487.8"/>
			<point x="481.5" y="540.8"/>
			<point x="429.5" y="540.8" type="curve"/>
			<point x="338.8" y="540.8"/>
			<point x="277.5" y="442.4"/>
			<point x="277.5" y="283.8" type="curve" smooth="yes"/>
			<point x="277.5" y="212.6" type="line" smooth="yes"/>
			<point x="277.5" y="79.4"/>
			<point x="334.8" y="-10.6"/>
			<point x="441.8" y="-10.6" type="curve" smooth="yes"/>
			<point x="451.4" y="-10.6"/>
			<point x="465.2" y="7.5"/>
			<point x="465.2" y="36.5" type="curve"/>
			<point x="388.4" y="36.8"/>
			<point x="335.5" y="106"/>
			<point x="335.5" y="214.4" type="curve" smooth="yes"/>
			<point x="335.5" y="284.7" type="line" smooth="yes"/>
			<point x="335.5" y="412.2"/>
			<point x="366.6" y="471.9"/>
		</contour>
		<contour>
			<point x="555.2" y="19.2" type="curve" smooth="yes"/>
			<point x="563.2" y="26.9"/>
			<point x="570.8" y="40.2"/>
			<point x="570.8" y="63.5" type="curve" smooth="yes"/>
			<point x="570.8" y="75"/>
			<point x="569.5" y="84.4"/>
			<point x="566.6" y="93.3" type="curve"/>
			<point x="562.6" y="93.3" type="line"/>
			<point x="531" y="68.8"/>
			<point x="500.2" y="58"/>
			<point x="444.3" y="58" type="curve" smooth="yes"/>
			<point x="404.9" y="58"/>
			<point x="378.2" y="67"/>
			<point x="350.6" y="95" type="curve"/>
			<point x="332.8" y="43.1"/>
			<point x="377.7" y="-10.6"/>
			<point x="441.8" y="-10.6" type="curve" smooth="yes"/>
			<point x="499.5" y="-10.6"/>
			<point x="536" y="0.9"/>
		</contour>
	</outline>
	<guideline x="0" y="0" angle="0" identifier="Xcex7IKWSv"/>
	<guideline x="0" y="0" angle="90" identifier="bEXw3SfPnt"/>
	<guideline x="50" y="0" angle="90" identifier="xhHhEuNwaY"/>
	<guideline x="100" y="0" angle="90" identifier="BKVom0jRBs"/>
	<guideline x="150" y="0" angle="90" identifier="LPYVw5SKLW"/>
	<guideline x="200" y="0" angle="90" identifier="eCu1a1eRgu"/>
	<guideline x="250" y="0" angle="90" identifier="0gmwMsEg9M"/>
	<guideline x="300" y="0" angle="90" identifier="ZRFJ2nCcAS"/>
	<guideline x="350" y="0" angle="90" identifier="ARfBp3z2u6"/>
	<guideline x="400" y="0" angle="90" identifier="e8qqNr7nR0"/>
	<guideline x="450" y="0" angle="90" identifier="w6BJKrln1z"/>
	<guideline x="500" y="0" angle="90" identifier="UW2VMgPmcH"/>
	<guideline x="550" y="0" angle="90" identifier="yhA5wS8BH2"/>
	<guideline x="600" y="0" angle="90" identifier="N4x6fhCUVx"/>
	<guideline x="0" y="-250" angle="0" identifier="jRmLYrSN9E"/>
	<guideline x="0" y="-200" angle="0" identifier="ZTQPP4HxiB"/>
	<guideline x="0" y="-150" angle="0" identifier="hJtqJdDzkT"/>
	<guideline x="0" y="-100" angle="0" identifier="9mrvnpP2ur"/>
	<guideline x="0" y="-50" angle="0" identifier="FDlHKzJc6d"/>
	<guideline x="0" y="50" angle="0" identifier="vPtFqww2Kg"/>
	<guideline x="0" y="100" angle="0" identifier="lqPspH1MyY"/>
	<guideline x="0" y="150" angle="0" identifier="EIUgnnwlsP"/>
	<guideline x="0" y="200" angle="0" identifier="ssAiHhsimc"/>
	<guideline x="0" y="250" angle="0" identifier="6NyEyP1Ia0"/>
	<guideline x="0" y="300" angle="0" identifier="26FLPk5oAN"/>
	<guideline x="0" y="350" angle="0" identifier="stsJb4oMJo"/>
	<guideline x="0" y="400" angle="0" identifier="NCCduATbJu"/>
	<guideline x="0" y="450" angle="0" identifier="GO8mo0vJv7"/>
	<guideline x="0" y="500" angle="0" identifier="RhnxpLZFQe"/>
	<guideline x="0" y="550" angle="0" identifier="9vuOaI4GXz"/>
	<guideline x="0" y="600" angle="0" identifier="gs3X2OpIf1"/>
	<guideline x="0" y="650" angle="0" identifier="JaFHx62sXx"/>
	<guideline x="0" y="700" angle="0" identifier="1AD56xjuXh"/>
</glyph>
<glyph name="florin" format="2">
	<unicode hex="0192"/>
	<advance width="600"/>
	<outline>
		<contour>
			<point x="289.8" y="637.8" type="curve"/>
			<point x="329.6" y="672"/>
			<point x="366.7" y="687.5"/>
			<point x="423" y="687.5" type="curve" smooth="yes"/>
			<point x="474.4084598297" y="687.5"/>
			<point x="518.1946350797" y="671.2593938845"/>
			<point x="552.6" y="655.5" type="curve"/>
			<point x="556.6" y="655.5" type="line"/>
			<point x="557.8" y="663.5"/>
			<point x="558.1" y="672.8"/>
			<point x="558.1" y="681.1" type="curve"/>
			<point x="558.1" y="704.7"/>
			<point x="552.2" y="724.6"/>
			<point x="543.3" y="733.5" type="curve" smooth="yes"/>
			<point x="530.6888494495" y="746.1111505505"/>
			<point x="476.4075949367" y="763"/>
			<point x="417.9" y="763" type="curve" smooth="yes"/>
			<point x="336.28" y="763"/>
			<point x="256.7" y="686.3"/>
		</contour>
		<contour>
			<point x="319.5" y="-42.4" type="curve"/>
			<point x="319.5" y="517" type="line" smooth="yes"/>
			<point x="315.9" y="536"/>
			<point x="314.7" y="558.9818181818"/>
			<point x="314.7" y="578.4" type="curve" smooth="yes"/>
			<point x="314.7" y="671.7"/>
			<point x="349.2903308445" y="720.0627102591"/>
			<point x="441.5" y="730.4" type="curve"/>
			<point x="443.1" y="756.2"/>
			<point x="429.9" y="763"/>
			<point x="417.9" y="763" type="curve" smooth="yes"/>
			<point x="300.5403669725" y="763"/>
			<point x="236.5" y="688.6076923077"/>
			<point x="236.5" y="570.8" type="curve" smooth="yes"/>
			<point x="236.5" y="-154.3" type="line"/>
			<point x="290.1" y="-154.3"/>
			<point x="319.5" y="-99.9"/>
		</contour>
		<contour>
			<point x="144.1" y="-170" type="curve" smooth="yes"/>
			<point x="99.6" y="-170"/>
			<point x="73.1" y="-159.5"/>
			<point x="35" y="-131.4" type="curve"/>
			<point x="31" y="-131.4" type="line"/>
			<point x="28" y="-139.9"/>
			<point x="27" y="-148.4"/>
			<point x="27" y="-161.7" type="curve" smooth="yes"/>
			<point x="27" y="-183.6432432432"/>
			<point x="33.1845520451" y="-206.0845520451"/>
			<point x="46.4" y="-219.3" type="curve" smooth="yes"/>
			<point x="63.6903982014" y="-236.5903982014"/>
			<point x="93.9108280255" y="-250"/>
			<point x="150" y="-250" type="curve" smooth="yes"/>
			<point x="254.5" y="-250"/>
			<point x="319.5" y="-172.9"/>
			<point x="319.5" y="-42.4" type="curve" smooth="yes"/>
			<point x="319.5" y="-29.5"/>
			<point x="298.7531914894" y="-16.4"/>
			<point x="267" y="-16.4" type="curve"/>
			<point x="252.9364287086" y="-135.4113631998"/>
			<point x="210.9" y="-170"/>
		</contour>
		<contour>
			<point x="64.8" y="521.2" type="line"/>
			<point x="64.8" y="517.3"/>
			<point x="64.8" y="512.7"/>
			<point x="64.8" y="508.5" type="curve" smooth="yes"/>
			<point x="64.8" y="482.6"/>
			<point x="69.6" y="466.5"/>
			<point x="80.6" y="455.5" type="curve" smooth="yes"/>
			<point x="92" y="444.1"/>
			<point x="108.6" y="441.2"/>
			<point x="148.7" y="441.2" type="curve"/>
			<point x="513.5" y="441.2" type="line"/>
			<point x="514.7" y="448.4"/>
			<point x="515.6" y="458.1"/>
			<point x="515.6" y="467.1" type="curve" smooth="yes"/>
			<point x="515.6" y="502.3"/>
			<point x="507" y="521.2"/>
			<point x="477.6" y="521.2" type="curve"/>
		</contour>
	</outline>
</glyph>
<glyph name="nhookleft" format="2">
	<unicode hex="0272"/>
	<advance width="600"/>
	<outline>
		<contour>
			<point x="20.7" y="-79.5" type="curve" smooth="yes"/>
			<point x="-7.6" y="-79.5"/>
			<point x="-15.9" y="-73.7"/>
			<point x="-35.6" y="-61.8" type="curve"/>
			<point x="-39.6" y="-61.8" type="line"/>
			<point x="-41.9" y="-70.8"/>
			<point x="-42.9" y="-80.2"/>
			<point x="-42.9" y="-89.9" type="curve" smooth="yes"/>
			<point x="-42.9" y="-113.5"/>
			<point x="-37.2" y="-131.9"/>
			<point x="-25.3" y="-143.8" type="curve" smooth="yes"/>
			<point x="-13.2" y="-155.9"/>
			<point x="5.4" y="-161.9"/>
			<point x="24.3" y="-161.9" type="curve" smooth="yes"/>
			<point x="30.8" y="-161.9" type="line" smooth="yes"/>
			<point x="115.6086206897" y="-161.9"/>
			<point x="172.2" y="-98.7"/>
			<point x="172.2" y="-10" type="curve" smooth="yes"/>
			<point x="172.2" y="4.4" type="line" smooth="yes"/>
			<point x="172.2" y="21.6"/>
			<point x="136.8964285714" y="33.1"/>
			<point x="90.7" y="33.1" type="curve"/>
			<point x="90.7" y="10" type="line" smooth="yes"/>
			<point x="90.7" y="-52.8"/>
			<point x="65.7" y="-79.5"/>
		</contour>
		<component base="n"/>
	</outline>
</glyph>
<glyph name="acutecomb" format="2">
	<unicode hex="0301"/>
	<outline>
		<contour>
			<point x="-4.3" y="632" type="curve" smooth="yes"/>
			<point x="13" y="632"/>
			<point x="30.4" y="636.9"/>
			<point x="45.4" y="645.9" type="curve" smooth="yes"/>
			<point x="94.4" y="673.9"/>
			<point x="129.8" y="715.9"/>
			<point x="147.2" y="766.6" type="curve"/>
			<point x="151.8" y="779.1"/>
			<point x="149.2" y="793.9"/>
			<point x="135" y="800.5" type="curve" smooth="yes"/>
			<point x="116.2" y="809.4"/>
			<point x="101" y="811.9"/>
			<point x="76.7" y="811.9" type="curve"/>
			<point x="59.9" y="745.4"/>
			<point x="19.4" y="697.6"/>
			<point x="-44.4" y="643.1" type="curve"/>
			<point x="-30.6" y="634.3"/>
			<point x="-17.9" y="632"/>
		</contour>
	</outline>
	<anchor name="_top" x="0" y="539.2"/>
	<note>
		combining acute accent
	</note>
</glyph>
<glyph name="brevecomb" format="2">
	<unicode hex="0306"/>
	<outline>
		<contour>
			<point x="-122.7" y="801.7" type="curve"/>
			<point x="-139.3" y="800"/>
			<point x="-154.5" y="795.4"/>
			<point x="-165.7" y="786.6" type="curve"/>
			<point x="-172.1" y="781.4"/>
			<point x="-173.4" y="772"/>
			<point x="-168.4" y="758.4" type="curve" smooth="yes"/>
			<point x="-142.2" y="687.2"/>
			<point x="-86.7" y="647"/>
			<point x="-4" y="647" type="curve" smooth="yes"/>
			<point x="0" y="647" type="line"/>
			<point x="28.6" y="647"/>
			<point x="43.5" y="680.5"/>
			<point x="40.2" y="710" type="curve"/>
			<point x="-56" y="710"/>
			<point x="-100.7" y="729.9"/>
		</contour>
		<contour>
			<point x="122.7" y="801.7" type="curve"/>
			<point x="100.7" y="729.9"/>
			<point x="56" y="710"/>
			<point x="-40.2" y="710" type="curve"/>
			<point x="-43.5" y="680.5"/>
			<point x="-28.6" y="647"/>
			<point x="0" y="647" type="curve"/>
			<point x="4" y="647" type="line" smooth="yes"/>
			<point x="86.7" y="647"/>
			<point x="142.2" y="687.2"/>
			<point x="168.4" y="758.4" type="curve" smooth="yes"/>
			<point x="173.4" y="772"/>
			<point x="172.1" y="781.4"/>
			<point x="165.7" y="786.6" type="curve"/>
			<point x="154.5" y="795.4"/>
			<point x="139.3" y="800"/>
		</contour>
	</outline>
	<anchor name="_top" x="0" y="539.2"/>
</glyph>
<glyph name="ringcomb" format="2">
	<unicode hex="030A"/>
	<outline>
		<contour>
			<point x="17" y="643.3" type="curve"/>
			<point x="-31.4" y="643.3"/>
			<point x="-59.9" y="673.4"/>
			<point x="-59.9" y="716.5" type="curve" smooth="yes"/>
			<point x="-59.9" y="722.8" type="line" smooth="yes"/>
			<point x="-59.9" y="761.5"/>
			<point x="-36.7" y="783.7"/>
			<point x="4.4" y="783.7" type="curve" smooth="yes"/>
			<point x="24" y="783.7"/>
			<point x="34.9" y="778.5"/>
			<point x="54.7" y="764.5" type="curve"/>
			<point x="68.7" y="796.7"/>
			<point x="38.4" y="834.4"/>
			<point x="3" y="834.4" type="curve"/>
			<point x="-67.8" y="834.4"/>
			<point x="-118" y="786.8"/>
			<point x="-118" y="719.1" type="curve" smooth="yes"/>
			<point x="-118" y="712.8" type="line" smooth="yes"/>
			<point x="-118" y="646.8"/>
			<point x="-69.8" y="601.8"/>
			<point x="-3" y="601.8" type="curve"/>
			<point x="8.8" y="601.8"/>
			<point x="17" y="621.2"/>
		</contour>
		<contour>
			<point x="-17" y="793.2" type="curve"/>
			<point x="31.4" y="793.2"/>
			<point x="59.9" y="767.3"/>
			<point x="59.9" y="726" type="curve" smooth="yes"/>
			<point x="59.9" y="719.7" type="line" smooth="yes"/>
			<point x="59.9" y="682.5"/>
			<point x="37.1" y="660"/>
			<point x="-3.5" y="660" type="curve" smooth="yes"/>
			<point x="-23.7" y="660"/>
			<point x="-35.5" y="664.3"/>
			<point x="-54.7" y="678" type="curve"/>
			<point x="-68.7" y="645.8"/>
			<point x="-38.4" y="601.8"/>
			<point x="-3" y="601.8" type="curve"/>
			<point x="67.8" y="601.8"/>
			<point x="118" y="649.7"/>
			<point x="118" y="717.4" type="curve" smooth="yes"/>
			<point x="118" y="723.7" type="line" smooth="yes"/>
			<point x="118" y="789.4"/>
			<point x="69.8" y="834.4"/>
			<point x="3" y="834.4" type="curve"/>
			<point x="-8.8" y="834.4"/>
			<point x="-17" y="820.7"/>
		</contour>
	</outline>
	<anchor name="_top" x="0" y="539.2"/>
	<anchor name="top" x="0" y="816.3"/>
</glyph>
<glyph name="pi" format="2">
	<unicode hex="03C0"/>
	<advance width="600"/>
	<outline>
		<contour>
			<point x="216.2" y="-3.5" type="curve"/>
			<point x="216.2" y="378.9" type="line" smooth="yes"/>
			<point x="216.2" y="455"/>
			<point x="186.8" y="483.8"/>
			<point x="157" y="483.8" type="curve" smooth="yes"/>
			<point x="148.8" y="483.8"/>
			<point x="141.3" y="483.5"/>
			<point x="134.7" y="482.6" type="curve"/>
			<point x="134.7" y="29.4" type="line" smooth="yes"/>
			<point x="134.7" y="0.6"/>
			<point x="159.3" y="-5.3"/>
			<point x="191.8" y="-5.3" type="curve" smooth="yes"/>
			<point x="200.8" y="-5.3"/>
			<point x="209.6" y="-4.7"/>
		</contour>
		<contour>
			<point x="461.1" y="484.4" type="line"/>
			<point x="453.8" y="486.3"/>
			<point x="445" y="487.6"/>
			<point x="433.9" y="487.6" type="curve" smooth="yes"/>
			<point x="404.2" y="487.6"/>
			<point x="381.1" y="481.7"/>
			<point x="381.1" y="452.9" type="curve" smooth="yes"/>
			<point x="381.1" y="92.4" type="line" smooth="yes"/>
			<point x="381.1" y="47.9"/>
			<point x="431.4" y="26.2"/>
			<point x="483.3" y="42.7" type="curve"/>
			<point x="465.7" y="64.5"/>
			<point x="461.1" y="79.6"/>
			<point x="461.1" y="118" type="curve"/>
		</contour>
		<contour>
			<point x="525.9" y="75.3" type="line"/>
			<point x="522.2" y="75.3" type="line"/>
			<point x="514.9" y="70.4"/>
			<point x="506.6" y="68.3"/>
			<point x="497.2" y="68.3" type="curve" smooth="yes"/>
			<point x="471" y="68.3"/>
			<point x="445.7" y="80.1"/>
			<point x="437.6" y="129.8" type="curve"/>
			<point x="393.5" y="131.2"/>
			<point x="381.1" y="122.2"/>
			<point x="381.1" y="92.4" type="curve" smooth="yes"/>
			<point x="381.1" y="35"/>
			<point x="420.9" y="-10"/>
			<point x="477.7" y="-10" type="curve" smooth="yes"/>
			<point x="480.7" y="-10" type="line" smooth="yes"/>
			<point x="510.6" y="-10"/>
			<point x="525.9" y="28.9"/>
			<point x="525.9" y="65.6" type="curve"/>
		</contour>
		<contour>
			<point x="67.2" y="530.2" type="line"/>
			<point x="65.7" y="523.6"/>
			<point x="64.8" y="514.2"/>
			<point x="64.8" y="505.2" type="curve" smooth="yes"/>
			<point x="64.8" y="470.3"/>
			<point x="71.6666666667" y="450.2"/>
			<point x="97.7" y="450.2" type="curve" smooth="yes"/>
			<point x="531" y="450.2" type="line"/>
			<point x="532.2" y="457.4"/>
			<point x="533.1" y="467.1"/>
			<point x="533.1" y="476.1" type="curve" smooth="yes"/>
			<point x="533.1" y="511.3"/>
			<point x="524.5" y="530.2"/>
			<point x="495.1" y="530.2" type="curve" smooth="yes"/>
		</contour>
	</outline>
	<guideline x="0" y="0" angle="0" identifier="rgjMnxQmiG"/>
	<guideline x="0" y="0" angle="90" identifier="9fK6lGBOHe"/>
	<guideline x="50" y="0" angle="90" identifier="lA7xIe2VFy"/>
	<guideline x="100" y="0" angle="90" identifier="d6zgCfKswW"/>
	<guideline x="150" y="0" angle="90" identifier="2AdCNOR4f6"/>
	<guideline x="200" y="0" angle="90" identifier="vnxdY30q9R"/>
	<guideline x="250" y="0" angle="90" identifier="tlCeJn7e1e"/>
	<guideline x="300" y="0" angle="90" identifier="aYiT9Ym0nl"/>
	<guideline x="350" y="0" angle="90" identifier="ZzwzkBAmXx"/>
	<guideline x="400" y="0" angle="90" identifier="XuVo4jV8h3"/>
	<guideline x="450" y="0" angle="90" identifier="7Z4oPhs2fH"/>
	<guideline x="500" y="0" angle="90" identifier="0zeRuwVh9I"/>
	<guideline x="550" y="0" angle="90" identifier="Tgln4dAyL6"/>
	<guideline x="600" y="0" angle="90" identifier="iJ9WMWKsXb"/>
	<guideline x="0" y="-250" angle="0" identifier="jxyweDMRCP"/>
	<guideline x="0" y="-200" angle="0" identifier="FfEaKTtMKI"/>
	<guideline x="0" y="-150" angle="0" identifier="7twvVVPmOF"/>
	<guideline x="0" y="-100" angle="0" identifier="2Y2i8m0laK"/>
	<guideline x="0" y="-50" angle="0" identifier="jB46xzh9Zr"/>
	<guideline x="0" y="50" angle="0" identifier="YrdtPHAjGA"/>
	<guideline x="0" y="100" angle="0" identifier="a87cwC1jui"/>
	<guideline x="0" y="150" angle="0" identifier="urQMoPnGnM"/>
	<guideline x="0" y="200" angle="0" identifier="rQViOIB0dG"/>
	<guideline x="0" y="250" angle="0" identifier="lJF9OWSuba"/>
	<guideline x="0" y="300" angle="0" identifier="16cXgenvb2"/>
	<guideline x="0" y="350" angle="0" identifier="moXgecxQQ8"/>
	<guideline x="0" y="400" angle="0" identifier="It4EaPtqlg"/>
	<guideline x="0" y="450" angle="0" identifier="zXQV6vGdGX"/>
	<guideline x="0" y="500" angle="0" identifier="JKTP8C46QH"/>
	<guideline x="0" y="550" angle="0" identifier="mLuj2pRUBA"/>
	<guideline x="0" y="600" angle="0" identifier="g5D21aUejT"/>
	<guideline x="0" y="650" angle="0" identifier="xNN1lZNNdx"/>
	<guideline x="0" y="700" angle="0" identifier="wfNvaaKQLo"/>
</glyph>
<glyph name="emdash" format="2">
	<unicode hex="2014"/>
	<advance width="600"/>
	<outline>
		<contour>
			<point x="-17" y="339.7" type="line"/>
			<point x="-19.1" y="329.2"/>
			<point x="-20" y="319.5"/>
			<point x="-20" y="306.6" type="curve" smooth="yes"/>
			<point x="-20" y="276.2"/>
			<point x="-15.9594202898" y="259.7"/>
			<point x="0" y="259.7" type="curve"/>
			<point x="617.6" y="259.7" type="line"/>
			<point x="618.8064134425" y="268.1336705734"/>
			<point x="620" y="279.6"/>
			<point x="620" y="290.4" type="curve" smooth="yes"/>
			<point x="620" y="320.8"/>
			<point x="615.7" y="339.7"/>
			<point x="600" y="339.7" type="curve"/>
		</contour>
	</outline>
</glyph>
<glyph name="quotedblleft" format="2">
	<unicode hex="201C"/>
	<advance width="600"/>
	<outline>
		<contour>
			<point x="299.6" y="701.8" type="curve"/>
			<point x="282.1" y="714.3"/>
			<point x="267.4" y="720"/>
			<point x="242.7" y="720" type="curve" smooth="yes"/>
			<point x="228.7" y="720"/>
			<point x="221.3" y="717.4"/>
			<point x="213.8" y="709.9" type="curve"/>
			<point x="166.5" y="663.3"/>
			<point x="112.9" y="563.5"/>
			<point x="112.9" y="439.8" type="curve"/>
			<point x="112.9" y="401.5610120543"/>
			<point x="144.2911608167" y="391.9"/>
			<point x="178.6" y="391.9" type="curve" smooth="yes"/>
			<point x="197.2" y="391.9"/>
			<point x="209.3" y="393.9"/>
			<point x="224.4" y="399.6" type="curve"/>
			<point x="224.4" y="544.3"/>
			<point x="245" y="613"/>
		</contour>
		<contour>
			<point x="514.6" y="701.8" type="curve"/>
			<point x="497.1" y="714.3"/>
			<point x="482.4" y="720"/>
			<point x="457.7" y="720" type="curve" smooth="yes"/>
			<point x="443.7" y="720"/>
			<point x="436.3" y="717.4"/>
			<point x="428.8" y="709.9" type="curve"/>
			<point x="381.5" y="663.3"/>
			<point x="327.9" y="563.5"/>
			<point x="327.9" y="439.8" type="curve"/>
			<point x="327.9" y="401.5610120543"/>
			<point x="359.2911608167" y="391.9"/>
			<point x="393.6" y="391.9" type="curve" smooth="yes"/>
			<point x="412.2" y="391.9"/>
			<point x="424.3" y="393.9"/>
			<point x="439.4" y="399.6" type="curve"/>
			<point x="439.4" y="544.3"/>
			<point x="460" y="613"/>
		</contour>
	</outline>
</glyph>
<glyph name="dagger" format="2">
	<unicode hex="2020"/>
	<advance width="600"/>
	<outline>
		<contour>
			<point x="352.2" y="-150.6" type="curve"/>
			<point x="341.6" y="-103.2"/>
			<point x="339.3" y="-64"/>
			<point x="339.3" y="-4.1" type="curve"/>
			<point x="339.3" y="425.5" type="line" smooth="yes"/>
			<point x="339.3" y="661.3" type="line" smooth="yes"/>
			<point x="339.3" y="697.4"/>
			<point x="318.7" y="710"/>
			<point x="286" y="710" type="curve" smooth="yes"/>
			<point x="272.2" y="710"/>
			<point x="261.6" y="709"/>
			<point x="250.5" y="705.8" type="curve"/>
			<point x="257.4" y="670.5"/>
			<point x="259.3" y="634.9"/>
			<point x="259.3" y="597" type="curve"/>
			<point x="259.3" y="301.6" type="line" smooth="yes"/>
			<point x="259.3" y="-56.5"/>
			<point x="279.7" y="-118.6"/>
			<point x="303.4" y="-142.3" type="curve" smooth="yes"/>
			<point x="313" y="-151.9"/>
			<point x="321" y="-155.1"/>
			<point x="332.8" y="-155.1" type="curve"/>
			<point x="339.9" y="-155.1"/>
			<point x="347" y="-153.2"/>
		</contour>
		<contour>
			<point x="58.8" y="420" type="curve"/>
			<point x="544.2" y="420" type="line"/>
			<point x="545.4" y="428.4"/>
			<point x="546.3" y="438.1"/>
			<point x="546.3" y="445.9" type="curve" smooth="yes"/>
			<point x="546.3" y="481.1"/>
			<point x="532" y="500"/>
			<point x="484.3" y="500" type="curve" smooth="yes"/>
			<point x="104.9" y="500" type="line" smooth="yes"/>
			<point x="66.5666666667" y="500"/>
			<point x="56.7" y="479.3"/>
			<point x="56.7" y="442.3" type="curve" smooth="yes"/>
			<point x="56.7" y="433.6"/>
			<point x="57.3" y="426.6"/>
		</contour>
	</outline>
	<guideline x="0" y="0" angle="0" identifier="V9G8D7RaXT"/>
	<guideline x="0" y="0" angle="90" identifier="zugo2vQMpx"/>
	<guideline x="50" y="0" angle="90" identifier="R5KTxyVK3f"/>
	<guideline x="100" y="0" angle="90" identifier="WtEuJnrQgS"/>
	<guideline x="150" y="0" angle="90" identifier="tIeSWOtT8I"/>
	<guideline x="200" y="0" angle="90" identifier="KtjGBplTXH"/>
	<guideline x="250" y="0" angle="90" identifier="gW70LMQA6Y"/>
	<guideline x="300" y="0" angle="90" identifier="0JUiDrkOHD"/>
	<guideline x="350" y="0" angle="90" identifier="FoWbLPq5zV"/>
	<guideline x="400" y="0" angle="90" identifier="teFICS6olz"/>
	<guideline x="450" y="0" angle="90" identifier="0pi4YmV6lB"/>
	<guideline x="500" y="0" angle="90" identifier="B206WEcHfa"/>
	<guideline x="550" y="0" angle="90" identifier="8eBomgvnC4"/>
	<guideline x="600" y="0" angle="90" identifier="MneomVKEYM"/>
	<guideline x="0" y="-250" angle="0" identifier="WRtWFjm6t0"/>
	<guideline x="0" y="-200" angle="0" identifier="9m3tdOJYH1"/>
	<guideline x="0" y="-150" angle="0" identifier="iuwj82pifj"/>
	<guideline x="0" y="-100" angle="0" identifier="T6VsMrUbXf"/>
	<guideline x="0" y="-50" angle="0" identifier="7PPCWGqytt"/>
	<guideline x="0" y="50" angle="0" identifier="paQYSSicTD"/>
	<guideline x="0" y="100" angle="0" identifier="v3nkXVzg3m"/>
	<guideline x="0" y="150" angle="0" identifier="fFBIiLd1Qh"/>
	<guideline x="0" y="200" angle="0" identifier="NWXua74st1"/>
	<guideline x="0" y="250" angle="0" identifier="uXEQHPEo6i"/>
	<guideline x="0" y="300" angle="0" identifier="kFHZI7ZQlp"/>
	<guideline x="0" y="350" angle="0" identifier="kBwGtY2EIB"/>
	<guideline x="0" y="400" angle="0" identifier="art42ZSw18"/>
	<guideline x="0" y="450" angle="0" identifier="8fk9chlauX"/>
	<guideline x="0" y="500" angle="0" identifier="f2zxGfShqe"/>
	<guideline x="0" y="550" angle="0" identifier="QipmQYMyPG"/>
	<guideline x="0" y="600" angle="0" identifier="MVPegHI0vP"/>
	<guideline x="0" y="650" angle="0" identifier="cF4BmRtCko"/>
	<guideline x="0" y="700" angle="0" identifier="S3JZozfOBO"/>
</glyph>
<glyph name="daggerdbl" format="2">
	<unicode hex="2021"/>
	<advance width="600"/>
	<outline>
		<contour>
			<point x="286.7" y="710" type="curve" smooth="yes"/>
			<point x="272.9" y="710"/>
			<point x="262.3" y="709"/>
			<point x="251.2" y="705.8" type="curve"/>
			<point x="258.1" y="670.5"/>
			<point x="260" y="634.9"/>
			<point x="260" y="597" type="curve"/>
			<point x="260" y="-105.7" type="line" smooth="yes"/>
			<point x="260" y="-141.8"/>
			<point x="280.6" y="-154.4"/>
			<point x="313.3" y="-154.4" type="curve" smooth="yes"/>
			<point x="327.1" y="-154.4"/>
			<point x="337.7" y="-153.4"/>
			<point x="348.8" y="-150.2" type="curve"/>
			<point x="341.9" y="-114.9"/>
			<point x="340" y="-79.3"/>
			<point x="340" y="-41.4" type="curve"/>
			<point x="340" y="661.3" type="line" smooth="yes"/>
			<point x="340" y="697.4"/>
			<point x="319.4" y="710"/>
		</contour>
		<contour>
			<point x="58.8" y="420" type="curve"/>
			<point x="544.2" y="420" type="line"/>
			<point x="545.4" y="428.4"/>
			<point x="546.3" y="438.1"/>
			<point x="546.3" y="445.9" type="curve" smooth="yes"/>
			<point x="546.3" y="481.1"/>
			<point x="532" y="500"/>
			<point x="484.3" y="500" type="curve" smooth="yes"/>
			<point x="104.9" y="500" type="line" smooth="yes"/>
			<point x="66.8" y="500"/>
			<point x="56.7" y="479.3"/>
			<point x="56.7" y="442.3" type="curve" smooth="yes"/>
			<point x="56.7" y="433.6"/>
			<point x="57.3" y="426.6"/>
		</contour>
		<contour>
			<point x="539.8" y="134.2" type="curve"/>
			<point x="54.4" y="134.2" type="line"/>
			<point x="53.2" y="125.8"/>
			<point x="52.3" y="116.1"/>
			<point x="52.3" y="108.3" type="curve" smooth="yes"/>
			<point x="52.3" y="73.1"/>
			<point x="66.6" y="54.2"/>
			<point x="114.3" y="54.2" type="curve" smooth="yes"/>
			<point x="493.7" y="54.2" type="line" smooth="yes"/>
			<point x="531.8" y="54.2"/>
			<point x="541.9" y="74.9"/>
			<point x="541.9" y="111.9" type="curve" smooth="yes"/>
			<point x="541.9" y="120.6"/>
			<point x="541.3" y="127.6"/>
		</contour>
	</outline>
</glyph>
<glyph name="ellipsis" format="2">
	<unicode hex="2026"/>
	<advance width="600"/>
	<outline>
		<contour>
			<point x="168.7" y="4.8" type="curve"/>
			<point x="168.7" y="86.2" type="line" smooth="yes"/>
			<point x="168.7" y="128.9"/>
			<point x="140.7875" y="146.3"/>
			<point x="92.4" y="146.3" type="curve" smooth="yes"/>
			<point x="71.8692307692" y="146.3"/>
			<point x="54.0329200618" y="141.9012672099"/>
			<point x="39.3" y="134.7" type="curve"/>
			<point x="39.3" y="53.3" type="line" smooth="yes"/>
			<point x="39.3" y="10.6"/>
			<point x="67.2125" y="-6.8"/>
			<point x="115.6" y="-6.8" type="curve" smooth="yes"/>
			<point x="136.1307692308" y="-6.8"/>
			<point x="153.9670799382" y="-2.4012672099"/>
		</contour>
		<contour>
			<point x="364.7" y="4.8" type="curve"/>
			<point x="364.7" y="86.2" type="line" smooth="yes"/>
			<point x="364.7" y="128.9"/>
			<point x="336.39375" y="146.3"/>
			<point x="288.4" y="146.3" type="curve" smooth="yes"/>
			<point x="267.8692307692" y="146.3"/>
			<point x="250.0329200618" y="141.9012672099"/>
			<point x="235.3" y="134.7" type="curve"/>
			<point x="235.3" y="53.3" type="line" smooth="yes"/>
			<point x="235.3" y="10.6"/>
			<point x="263.2125" y="-6.8"/>
			<point x="311.6" y="-6.8" type="curve" smooth="yes"/>
			<point x="332.1307692308" y="-6.8"/>
			<point x="349.9670799382" y="-2.4012672099"/>
		</contour>
		<contour>
			<point x="560.7" y="4.8" type="curve"/>
			<point x="560.7" y="86.2" type="line" smooth="yes"/>
			<point x="560.7" y="128.9"/>
			<point x="532.6" y="146.3"/>
			<point x="484.7" y="146.3" type="curve" smooth="yes"/>
			<point x="464.2" y="146.3"/>
			<point x="446.4" y="141.9"/>
			<point x="431.6" y="134.7" type="curve"/>
			<point x="431.6" y="53.3" type="line" smooth="yes"/>
			<point x="431.6" y="10.6"/>
			<point x="459.7" y="-6.8"/>
			<point x="507.6" y="-6.8" type="curve" smooth="yes"/>
			<point x="528.1" y="-6.8"/>
			<point x="545.9" y="-2.4"/>
		</contour>
	</outline>
</glyph>
<glyph name="perthousand" format="2">
	<unicode hex="2030"/>
	<advance width="600"/>
	<outline>
		<contour>
			<point x="46.8" y="262.8" type="curve"/>
			<point x="244.3" y="321.8"/>
			<point x="423" y="409.4"/>
			<point x="550.4" y="521.1" type="curve" smooth="yes"/>
			<point x="568.5" y="536.6"/>
			<point x="577" y="551.9"/>
			<point x="577" y="585.7" type="curve" smooth="yes"/>
			<point x="577" y="609.5"/>
			<point x="573" y="636.3"/>
			<point x="562.4" y="652.7" type="curve"/>
			<point x="440.8" y="509.5"/>
			<point x="227.5" y="376.6"/>
			<point x="34.7" y="310.9" type="curve"/>
			<point x="28.6" y="300.2"/>
			<point x="27" y="293"/>
			<point x="27" y="283.2" type="curve" smooth="yes"/>
			<point x="27" y="267.8"/>
			<point x="35.6" y="259.8"/>
		</contour>
		<contour>
			<point x="167.5" y="462.9" type="curve"/>
			<point x="104.7" y="462.9"/>
			<point x="68.2" y="503.7"/>
			<point x="68.2" y="559.5" type="curve" smooth="yes"/>
			<point x="68.2" y="563.9" type="line" smooth="yes"/>
			<point x="68.2" y="621.1"/>
			<point x="99.5" y="659.8"/>
			<point x="147.1" y="659.8" type="curve" smooth="yes"/>
			<point x="178.3" y="659.8"/>
			<point x="194.8" y="656.2"/>
			<point x="221.1" y="633.5" type="curve"/>
			<point x="247.8" y="661.3"/>
			<point x="191.6" y="710"/>
			<point x="144.7" y="710" type="curve" smooth="yes"/>
			<point x="64.6" y="710"/>
			<point x="11.1" y="651.8"/>
			<point x="11.1" y="566.3" type="curve" smooth="yes"/>
			<point x="11.1" y="561.3" type="line" smooth="yes"/>
			<point x="11.1" y="479.8"/>
			<point x="59.3" y="428.6"/>
			<point x="138.4" y="428.6" type="curve" smooth="yes"/>
			<point x="156.5" y="428.6"/>
			<point x="167.5" y="443.7"/>
		</contour>
		<contour>
			<point x="108.4" y="675.3" type="curve"/>
			<point x="176.6" y="675.3"/>
			<point x="210" y="650.1"/>
			<point x="210" y="579.5" type="curve" smooth="yes"/>
			<point x="210" y="575.1" type="line" smooth="yes"/>
			<point x="210" y="519.5"/>
			<point x="181.9" y="486.3"/>
			<point x="125.5" y="486.3" type="curve" smooth="yes"/>
			<point x="96.4" y="486.3"/>
			<point x="80.6" y="493"/>
			<point x="60.8" y="516.1" type="curve"/>
			<point x="22" y="478.1"/>
			<point x="93" y="428.6"/>
			<point x="138.4" y="428.6" type="curve" smooth="yes"/>
			<point x="220.8" y="428.6"/>
			<point x="274" y="482.4"/>
			<point x="274" y="566.7" type="curve" smooth="yes"/>
			<point x="274" y="571" type="line" smooth="yes"/>
			<point x="274" y="654.1"/>
			<point x="220.9" y="710"/>
			<point x="144.7" y="710" type="curve" smooth="yes"/>
			<point x="125" y="710"/>
			<point x="108.4" y="697.2"/>
		</contour>
		<contour>
			<point x="274.5" y="24.3" type="curve"/>
			<point x="211.7" y="24.3"/>
			<point x="175.2" y="65.1"/>
			<point x="175.2" y="120.9" type="curve" smooth="yes"/>
			<point x="175.2" y="125.3" type="line" smooth="yes"/>
			<point x="175.2" y="182.5"/>
			<point x="206.5" y="221.2"/>
			<point x="254.1" y="221.2" type="curve" smooth="yes"/>
			<point x="285.3" y="221.2"/>
			<point x="301.8" y="217.6"/>
			<point x="328.1" y="194.9" type="curve"/>
			<point x="354.8" y="222.7"/>
			<point x="298.6" y="271.4"/>
			<point x="251.7" y="271.4" type="curve" smooth="yes"/>
			<point x="171.6" y="271.4"/>
			<point x="118.1" y="213.2"/>
			<point x="118.1" y="127.7" type="curve" smooth="yes"/>
			<point x="118.1" y="122.7" type="line" smooth="yes"/>
			<point x="118.1" y="41.2"/>
			<point x="166.3" y="-10"/>
			<point x="245.4" y="-10" type="curve" smooth="yes"/>
			<point x="263.5" y="-10"/>
			<point x="274.5" y="5.1"/>
		</contour>
		<contour>
			<point x="215.4" y="236.7" type="curve"/>
			<point x="283.6" y="236.7"/>
			<point x="317" y="211.5"/>
			<point x="317" y="140.9" type="curve" smooth="yes"/>
			<point x="317" y="136.5" type="line" smooth="yes"/>
			<point x="317" y="80.9"/>
			<point x="288.9" y="47.7"/>
			<point x="232.5" y="47.7" type="curve" smooth="yes"/>
			<point x="203.4" y="47.7"/>
			<point x="187.6" y="54.4"/>
			<point x="167.8" y="77.5" type="curve"/>
			<point x="129" y="39.5"/>
			<point x="200" y="-10"/>
			<point x="245.4" y="-10" type="curve" smooth="yes"/>
			<point x="319.9333333333" y="-10"/>
			<point x="368" y="43.8"/>
			<point x="368" y="128.1" type="curve" smooth="yes"/>
			<point x="368" y="132.4" type="line" smooth="yes"/>
			<point x="368" y="215.5"/>
			<point x="320.2401459854" y="271.4"/>
			<point x="251.7" y="271.4" type="curve" smooth="yes"/>
			<point x="232" y="271.4"/>
			<point x="215.4" y="258.6"/>
		</contour>
		<contour>
			<point x="481.5" y="24.3" type="curve"/>
			<point x="418.7" y="24.3"/>
			<point x="382.2" y="65.1"/>
			<point x="382.2" y="120.9" type="curve" smooth="yes"/>
			<point x="382.2" y="125.3" type="line" smooth="yes"/>
			<point x="382.2" y="182.5"/>
			<point x="413.5" y="221.2"/>
			<point x="461.1" y="221.2" type="curve" smooth="yes"/>
			<point x="492.3" y="221.2"/>
			<point x="508.8" y="217.6"/>
			<point x="535.1" y="194.9" type="curve"/>
			<point x="561.8" y="222.7"/>
			<point x="505.6" y="271.4"/>
			<point x="458.7" y="271.4" type="curve" smooth="yes"/>
			<point x="384.6" y="271.4"/>
			<point x="335.1" y="213.2"/>
			<point x="335.1" y="127.7" type="curve" smooth="yes"/>
			<point x="335.1" y="122.7" type="line" smooth="yes"/>
			<point x="335.1" y="41.2"/>
			<point x="379.3" y="-10"/>
			<point x="452.4" y="-10" type="curve" smooth="yes"/>
			<point x="470.5" y="-10"/>
			<point x="481.5" y="5.1"/>
		</contour>
		<contour>
			<point x="422.4" y="236.7" type="curve"/>
			<point x="490.6" y="236.7"/>
			<point x="524" y="211.5"/>
			<point x="524" y="140.9" type="curve" smooth="yes"/>
			<point x="524" y="136.5" type="line" smooth="yes"/>
			<point x="524" y="80.9"/>
			<point x="495.9" y="47.7"/>
			<point x="439.5" y="47.7" type="curve" smooth="yes"/>
			<point x="413.9" y="47.7"/>
			<point x="400.2" y="54.4"/>
			<point x="381.8" y="76.1" type="curve"/>
			<point x="352.8" y="47.9"/>
			<point x="410.5" y="-10"/>
			<point x="452.4" y="-10" type="curve" smooth="yes"/>
			<point x="534.8" y="-10"/>
			<point x="588" y="43.8"/>
			<point x="588" y="128.1" type="curve" smooth="yes"/>
			<point x="588" y="132.4" type="line" smooth="yes"/>
			<point x="588" y="215.5"/>
			<point x="534.9" y="271.4"/>
			<point x="458.7" y="271.4" type="curve" smooth="yes"/>
			<point x="439" y="271.4"/>
			<point x="422.4" y="258.6"/>
		</contour>
	</outline>
</glyph>
<glyph name="bitcoin" format="2">
	<unicode hex="20BF"/>
	<advance width="600"/>
	<outline>
		<contour>
			<point x="238.4" y="671.2" type="curve"/>
			<point x="238.4" y="772.1" type="line" smooth="yes"/>
			<point x="238.4" y="796.1"/>
			<point x="221.3" y="803.2"/>
			<point x="192.7" y="803.2" type="curve"/>
			<point x="186.7" y="803.2"/>
			<point x="179.1" y="802.6"/>
			<point x="172.8" y="802" type="curve"/>
			<point x="172.8" y="700.8" type="line" smooth="yes"/>
			<point x="172.8" y="679.7"/>
			<point x="186.1" y="671.2"/>
			<point x="227.5" y="671.2" type="curve" smooth="yes"/>
			<point x="231.1" y="671.2"/>
			<point x="235.1" y="671.2"/>
		</contour>
		<contour>
			<point x="397.4" y="671.2" type="curve"/>
			<point x="397.4" y="772.1" type="line" smooth="yes"/>
			<point x="397.4" y="796.1"/>
			<point x="380.3" y="803.2"/>
			<point x="351.7" y="803.2" type="curve"/>
			<point x="345.7" y="803.2"/>
			<point x="338.1" y="802.6"/>
			<point x="331.8" y="802" type="curve"/>
			<point x="331.8" y="700.8" type="line" smooth="yes"/>
			<point x="331.8" y="679.7"/>
			<point x="345.1" y="671.2"/>
			<point x="386.5" y="671.2" type="curve" smooth="yes"/>
			<point x="390.1" y="671.2"/>
			<point x="394.1" y="671.2"/>
		</contour>
		<contour>
			<point x="238.4" y="-100.8" type="curve"/>
			<point x="238.4" y="7.1" type="line" smooth="yes"/>
			<point x="238.4" y="31.1"/>
			<point x="221.3" y="38.2"/>
			<point x="192.7" y="38.2" type="curve"/>
			<point x="186.7" y="38.2"/>
			<point x="179.1" y="37.6"/>
			<point x="172.8" y="37" type="curve"/>
			<point x="172.8" y="-71.2" type="line" smooth="yes"/>
			<point x="172.8" y="-92.3"/>
			<point x="186.1" y="-100.8"/>
			<point x="227.5" y="-100.8" type="curve" smooth="yes"/>
			<point x="231.1" y="-100.8"/>
			<point x="235.1" y="-100.8"/>
		</contour>
		<contour>
			<point x="397.4" y="-100.8" type="curve"/>
			<point x="397.4" y="14.1" type="line" smooth="yes"/>
			<point x="397.4" y="38.1"/>
			<point x="380.3" y="45.2"/>
			<point x="351.7" y="45.2" type="curve"/>
			<point x="345.7" y="45.2"/>
			<point x="338.1" y="44.6"/>
			<point x="331.8" y="44" type="curve"/>
			<point x="331.8" y="-71.2" type="line" smooth="yes"/>
			<point x="331.8" y="-92.3"/>
			<point x="345.1" y="-100.8"/>
			<point x="386.5" y="-100.8" type="curve" smooth="yes"/>
			<point x="390.1" y="-100.8"/>
			<point x="394.1" y="-100.8"/>
		</contour>
		<component base="B"/>
	</outline>
</glyph>
<glyph name="trademark" format="2">
	<unicode hex="2122"/>
	<advance width="600"/>
	<outline>
		<contour>
			<point x="13.6" y="700" type="line"/>
			<point x="11.3" y="692.6"/>
			<point x="10" y="686.8"/>
			<point x="10" y="678.5" type="curve" smooth="yes"/>
			<point x="10" y="652.8"/>
			<point x="19.6" y="634.8"/>
			<point x="64.7" y="634.8" type="curve" smooth="yes"/>
			<point x="266" y="634.8" type="line"/>
			<point x="267.6" y="641"/>
			<point x="269.6" y="650.7"/>
			<point x="269.6" y="661.2" type="curve" smooth="yes"/>
			<point x="269.6" y="683.45"/>
			<point x="263.2" y="700"/>
			<point x="234.1" y="700" type="curve" smooth="yes"/>
		</contour>
		<contour>
			<point x="184.6" y="350" type="curve"/>
			<point x="178.2" y="369.5"/>
			<point x="176.2" y="392.8"/>
			<point x="176.2" y="421.4" type="curve" smooth="yes"/>
			<point x="176.2" y="585.6" type="line" smooth="yes"/>
			<point x="176.2" y="633.1"/>
			<point x="152.8" y="650.3"/>
			<point x="110.4" y="650.3" type="curve"/>
			<point x="110.4" y="403.7" type="line" smooth="yes"/>
			<point x="110.4" y="352.7"/>
			<point x="124" y="345.7"/>
			<point x="155.2" y="345.7" type="curve" smooth="yes"/>
			<point x="166.3" y="345.7"/>
			<point x="174.9" y="347"/>
		</contour>
		<contour>
			<point x="370.2" y="347.9" type="curve"/>
			<point x="370.2" y="376.2"/>
			<point x="370.2" y="399.6"/>
			<point x="370.2" y="428.6" type="curve" smooth="yes"/>
			<point x="370.2" y="489.1"/>
			<point x="350.9" y="543.8"/>
			<point x="350.9" y="676.9" type="curve" smooth="yes"/>
			<point x="350.9" y="689.4"/>
			<point x="349.3782608695" y="701.3"/>
			<point x="330.7" y="701.3" type="curve" smooth="yes"/>
			<point x="322.8" y="701.3"/>
			<point x="311" y="700"/>
			<point x="303" y="698.4" type="curve"/>
			<point x="304.9" y="681.5"/>
			<point x="306.2" y="661.6"/>
			<point x="306.2" y="640.3" type="curve" smooth="yes"/>
			<point x="306.2" y="378.9" type="line" smooth="yes"/>
			<point x="306.2" y="354.6"/>
			<point x="316.5411764706" y="345.6"/>
			<point x="347" y="345.6" type="curve" smooth="yes"/>
			<point x="356.6" y="345.6"/>
			<point x="362.9" y="345.6"/>
		</contour>
		<contour>
			<point x="570.5" y="347.9" type="curve"/>
			<point x="567.2" y="365.5"/>
			<point x="565.2" y="384"/>
			<point x="565.2" y="406" type="curve" smooth="yes"/>
			<point x="565.2" y="676.2" type="line" smooth="yes"/>
			<point x="565.2" y="694.2370527278"/>
			<point x="546.0704098229" y="701.3"/>
			<point x="521.3" y="701.3" type="curve" smooth="yes"/>
			<point x="518" y="701.3" type="line"/>
			<point x="521.5" y="696.5"/>
			<point x="522.2" y="691.4"/>
			<point x="522.2" y="684.9" type="curve" smooth="yes"/>
			<point x="522.2" y="572.9"/>
			<point x="501.2" y="484.4"/>
			<point x="501.2" y="431.3" type="curve" smooth="yes"/>
			<point x="501.2" y="413.6"/>
			<point x="501.2" y="394.5"/>
			<point x="501.2" y="377.1" type="curve" smooth="yes"/>
			<point x="501.2" y="355.6"/>
			<point x="512.56" y="345"/>
			<point x="542.1" y="345" type="curve"/>
			<point x="552.1" y="345"/>
			<point x="561.1" y="345.6"/>
		</contour>
		<contour>
			<point x="330.7" y="701.3" type="line"/>
			<point x="344.6" y="609.7"/>
			<point x="400.2" y="491.6"/>
			<point x="425.2" y="466.6" type="curve"/>
			<point x="428.6" y="463.2"/>
			<point x="432" y="461.5"/>
			<point x="435" y="461.5" type="curve"/>
			<point x="445.1" y="461.5"/>
			<point x="450.9" y="497"/>
			<point x="450.9" y="518.8" type="curve"/>
			<point x="422.7" y="558.5"/>
			<point x="396.0047851917" y="607.1669386752"/>
			<point x="385.3" y="680.8" type="curve"/>
			<point x="383.3018289725" y="693.2899406514"/>
			<point x="365.0541666667" y="701.3"/>
			<point x="332.7" y="701.3" type="curve"/>
		</contour>
		<contour>
			<point x="518" y="701.3" type="curve" smooth="yes"/>
			<point x="509.02" y="701.3"/>
			<point x="501.8023427102" y="700.7435264886"/>
			<point x="493" y="698.7" type="curve"/>
			<point x="482.4" y="610.8"/>
			<point x="444.7" y="549.1"/>
			<point x="420.1" y="519.5" type="curve"/>
			<point x="418.4" y="503"/>
			<point x="425.4" y="461.5"/>
			<point x="435" y="461.5" type="curve"/>
			<point x="440" y="461.5" type="line"/>
			<point x="469.4" y="490.9"/>
			<point x="526" y="597.4"/>
			<point x="530" y="676.9" type="curve"/>
			<point x="530.7017002697" y="692.927204315"/>
			<point x="526.25" y="701.3"/>
		</contour>
	</outline>
</glyph>
<glyph name="estimated" format="2">
	<unicode hex="212E"/>
	<advance width="600"/>
	<outline>
		<contour>
			<point x="327.2" y="203" type="line" smooth="yes"/>
			<point x="476.6983851675" y="203"/>
			<point x="533.9" y="243.6551215917"/>
			<point x="533.9" y="327.1" type="curve" smooth="yes"/>
			<point x="533.9" y="333.9" type="line" smooth="yes"/>
			<point x="533.9" y="453.6956521739"/>
			<point x="462.6341232227" y="540.8"/>
			<point x="325.5" y="540.8" type="curve" smooth="yes"/>
			<point x="307" y="540.8"/>
			<point x="295.1" y="524.7"/>
			<point x="295.1" y="499.7" type="curve"/>
			<point x="377.1834710744" y="499.7"/>
			<point x="409.9" y="460.6325842697"/>
			<point x="409.9" y="401.9" type="curve" smooth="yes"/>
			<point x="409.9" y="320.8" type="line" smooth="yes"/>
			<point x="409.9" y="274.5"/>
			<point x="381.1646907217" y="261.6"/>
			<point x="300.6" y="261.6" type="curve" smooth="yes"/>
			<point x="206.9" y="261.6"/>
			<point x="172.5" y="270.4"/>
			<point x="133.8" y="286.8" type="curve"/>
			<point x="130.4" y="258.1"/>
			<point x="133.2156619521" y="245.2843380479"/>
			<point x="146.2" y="232.3" type="curve" smooth="yes"/>
			<point x="164.2236207476" y="214.3579374591"/>
			<point x="224.9" y="203"/>
			<point x="318" y="203" type="curve" smooth="yes"/>
		</contour>
		<contour>
			<point x="321.2" y="482.4" type="curve" smooth="yes"/>
			<point x="376.3" y="482.4"/>
			<point x="395.4" y="469.8"/>
			<point x="433" y="442.2" type="curve"/>
			<point x="467.6" y="486.9"/>
			<point x="406.5" y="540.8"/>
			<point x="325.5" y="540.8" type="curve"/>
			<point x="189.3" y="540.8"/>
			<point x="74.5" y="451.3"/>
			<point x="74.5" y="263.4" type="curve" smooth="yes"/>
			<point x="74.5" y="254.8" type="line" smooth="yes"/>
			<point x="74.5" y="64.5"/>
			<point x="178" y="-11.6"/>
			<point x="325.7" y="-13" type="curve" smooth="yes"/>
			<point x="351.6" y="-13"/>
			<point x="362.6" y="10.4"/>
			<point x="362.9" y="27.9" type="curve"/>
			<point x="226.1" y="27.9"/>
			<point x="203.4" y="78.4"/>
			<point x="203.4" y="144.4" type="curve" smooth="yes"/>
			<point x="203.4" y="399.2" type="line" smooth="yes"/>
			<point x="203.4" y="445.1"/>
			<point x="241" y="482.4"/>
		</contour>
		<contour>
			<point x="501.8" y="40.2" type="curve" smooth="yes"/>
			<point x="513.1" y="51.5"/>
			<point x="518.8" y="65.4"/>
			<point x="518.8" y="86.1" type="curve" smooth="yes"/>
			<point x="518.8" y="97.4"/>
			<point x="517.5" y="106.5"/>
			<point x="514.9" y="116" type="curve"/>
			<point x="510.9" y="116" type="line"/>
			<point x="462.1" y="70.5"/>
			<point x="418.7" y="49"/>
			<point x="332.1" y="49" type="curve" smooth="yes"/>
			<point x="249.1" y="49"/>
			<point x="212.8" y="69.8"/>
			<point x="172.1" y="120.5" type="curve"/>
			<point x="142.3" y="53.3"/>
			<point x="233.9" y="-13"/>
			<point x="325.7" y="-13" type="curve" smooth="yes"/>
			<point x="408.3" y="-13"/>
			<point x="473.8" y="11.5"/>
		</contour>
	</outline>
</glyph>
<glyph name="radical" format="2">
	<unicode hex="221A"/>
	<advance width="600"/>
	<outline>
		<contour>
			<point x="24.5" y="441.4" type="curve"/>
			<point x="21.6" y="429.2"/>
			<point x="20.3" y="419.3"/>
			<point x="20.3" y="406.9" type="curve" smooth="yes"/>
			<point x="20.3" y="378.2"/>
			<point x="31.1" y="361.4"/>
			<point x="49" y="361.4" type="curve" smooth="yes"/>
			<point x="67" y="361.4"/>
			<point x="93" y="373.9"/>
			<point x="153.5" y="373.9" type="curve"/>
			<point x="153.5" y="429"/>
			<point x="133.5" y="450"/>
			<point x="114.6" y="450" type="curve" smooth="yes"/>
			<point x="76.4" y="450"/>
			<point x="52.1" y="447.7"/>
		</contour>
		<contour>
			<point x="114.6" y="450" type="curve"/>
			<point x="102.4" y="450"/>
			<point x="93.3" y="446.8"/>
			<point x="83.3" y="440.4" type="curve"/>
			<point x="105" y="207.6"/>
			<point x="136.8" y="119.9"/>
			<point x="235.8" y="20.9" type="curve"/>
			<point x="259.6" y="-2.9"/>
			<point x="279.4" y="-10"/>
			<point x="300.7" y="-10" type="curve" smooth="yes"/>
			<point x="308.2" y="-10" type="line" smooth="yes"/>
			<point x="332.9" y="-10"/>
			<point x="347.6" y="6.2"/>
			<point x="360.1" y="34.2" type="curve"/>
			<point x="351" y="34.2"/>
			<point x="345.2" y="34.2"/>
			<point x="341" y="34.2" type="curve" smooth="yes"/>
			<point x="335.1" y="34.2"/>
			<point x="327.9" y="36.5"/>
			<point x="321.6" y="41.9" type="curve"/>
			<point x="218.8" y="135.7"/>
			<point x="184" y="206.8"/>
			<point x="165.4" y="419.8" type="curve"/>
			<point x="164.1" y="438.9"/>
			<point x="144.6" y="450"/>
		</contour>
		<contour>
			<point x="507.7" y="710.7" type="curve" smooth="yes"/>
			<point x="493.5" y="710.7" type="line"/>
			<point x="469.3" y="333.6"/>
			<point x="389.1" y="141.1"/>
			<point x="277.1" y="45.4" type="curve"/>
			<point x="258.5" y="29.7"/>
			<point x="275.9" y="-10"/>
			<point x="303.7" y="-10" type="curve"/>
			<point x="335.3" y="-10" type="line"/>
			<point x="452.4" y="83.4"/>
			<point x="541.2" y="305.4"/>
			<point x="572.4" y="658.9" type="curve"/>
			<point x="575.2" y="691.6"/>
			<point x="545.4" y="710.7"/>
		</contour>
	</outline>
	<guideline x="0" y="0" angle="0" identifier="OaSF8aPWxE"/>
	<guideline x="0" y="0" angle="90" identifier="rBncrbZTaz"/>
	<guideline x="50" y="0" angle="90" identifier="zyUvHjgKkH"/>
	<guideline x="100" y="0" angle="90" identifier="VI0vVwdsHi"/>
	<guideline x="150" y="0" angle="90" identifier="Pw4PuKu5VL"/>
	<guideline x="200" y="0" angle="90" identifier="fm6bnc048V"/>
	<guideline x="250" y="0" angle="90" identifier="rP5p3MoczE"/>
	<guideline x="300" y="0" angle="90" identifier="olFOSnPS9u"/>
	<guideline x="350" y="0" angle="90" identifier="5pS9DUVPGL"/>
	<guideline x="400" y="0" angle="90" identifier="SaA6u6yue6"/>
	<guideline x="450" y="0" angle="90" identifier="ebl0yPjbHA"/>
	<guideline x="500" y="0" angle="90" identifier="J6GvdjxP4R"/>
	<guideline x="550" y="0" angle="90" identifier="Iv6KfdkjFJ"/>
	<guideline x="600" y="0" angle="90" identifier="sgXbxFuqfr"/>
	<guideline x="0" y="-250" angle="0" identifier="vOM6QvIbNs"/>
	<guideline x="0" y="-200" angle="0" identifier="48kEAgHEIU"/>
	<guideline x="0" y="-150" angle="0" identifier="0JTY1cLI58"/>
	<guideline x="0" y="-100" angle="0" identifier="7VypZAMS4k"/>
	<guideline x="0" y="-50" angle="0" identifier="NRUOsd8Ofy"/>
	<guideline x="0" y="50" angle="0" identifier="HPyy7YItck"/>
	<guideline x="0" y="100" angle="0" identifier="6KBH6RZ2ZH"/>
	<guideline x="0" y="150" angle="0" identifier="0NslxKqxb7"/>
	<guideline x="0" y="200" angle="0" identifier="OzyOyeuxja"/>
	<guideline x="0" y="250" angle="0" identifier="VsJMGf13xs"/>
	<guideline x="0" y="300" angle="0" identifier="0sP604Ka0p"/>
	<guideline x="0" y="350" angle="0" identifier="ZyKEzxKGBW"/>
	<guideline x="0" y="400" angle="0" identifier="lekBgTyJkf"/>
	<guideline x="0" y="450" angle="0" identifier="8M0XzPufPz"/>
	<guideline x="0" y="500" angle="0" identifier="5A7sSs8HtQ"/>
	<guideline x="0" y="550" angle="0" identifier="t3Rh0GaEw6"/>
	<guideline x="0" y="600" angle="0" identifier="uezYb3kS2q"/>
	<guideline x="0" y="650" angle="0" identifier="pkYaqqnm9u"/>
	<guideline x="0" y="700" angle="0" identifier="DfxTBEZ3q9"/>
</glyph>
<glyph name="lessequal" format="2">
	<unicode hex="2264"/>
	<advance width="600"/>
	<outline>
		<contour>
			<point x="530.2" y="476.8" type="curve"/>
			<point x="530.2" y="487.9" type="line"/>
			<point x="530.2" y="526"/>
			<point x="514.7" y="544"/>
			<point x="496.5" y="544" type="curve" smooth="yes"/>
			<point x="480.8" y="544"/>
			<point x="452.1" y="540.4"/>
			<point x="411.9" y="531.9" type="curve"/>
			<point x="281.2" y="501.9"/>
			<point x="180.5" y="467.4"/>
			<point x="70.5" y="395" type="curve"/>
			<point x="70.5" y="370.2" type="line"/>
			<point x="70.5" y="350.8"/>
			<point x="92.8" y="343"/>
			<point x="125.3" y="353.9" type="curve" smooth="yes"/>
			<point x="241.2" y="422.4"/>
			<point x="362.8" y="458.1"/>
		</contour>
		<contour>
			<point x="525.2" y="196.1" type="curve"/>
			<point x="528.1" y="206.9"/>
			<point x="529.4" y="221.2"/>
			<point x="529.4" y="233.3" type="curve"/>
			<point x="529.4" y="257.9"/>
			<point x="519.5" y="266.8"/>
			<point x="502.9" y="268.5" type="curve" smooth="yes"/>
			<point x="330.1" y="292.4"/>
			<point x="252.5" y="317.1"/>
			<point x="132" y="375.5" type="curve"/>
			<point x="123.1" y="379.5"/>
			<point x="120.8" y="387.1"/>
			<point x="120.8" y="397.3" type="curve" smooth="yes"/>
			<point x="120.8" y="400.9"/>
			<point x="120.8" y="403.9"/>
			<point x="120.8" y="408.5" type="curve"/>
			<point x="88.8" y="397.2"/>
			<point x="70.5" y="387"/>
			<point x="70.5" y="375.6" type="curve" smooth="yes"/>
			<point x="70.5" y="366.6" type="line" smooth="yes"/>
			<point x="70.5" y="345.6"/>
			<point x="77.8" y="331"/>
			<point x="105.4" y="316.3" type="curve" smooth="yes"/>
			<point x="212.1" y="261"/>
			<point x="333.7" y="218.7"/>
		</contour>
		<contour>
			<point x="69.9" y="151" type="line"/>
			<point x="69.9" y="147.1"/>
			<point x="69.9" y="142.5"/>
			<point x="69.9" y="138.3" type="curve" smooth="yes"/>
			<point x="69.9" y="101"/>
			<point x="81.8" y="80"/>
			<point x="118.1" y="80" type="curve"/>
			<point x="527.6" y="80" type="line"/>
			<point x="528.8" y="88.4"/>
			<point x="529.7" y="98.1"/>
			<point x="529.7" y="105.9" type="curve" smooth="yes"/>
			<point x="529.7" y="134.2"/>
			<point x="521.1" y="151"/>
			<point x="491.7" y="151" type="curve"/>
		</contour>
	</outline>
</glyph>
<glyph name="lozenge" format="2">
	<unicode hex="25CA"/>
	<advance width="600"/>
	<outline>
		<contour>
			<point x="142.2" y="314.6" type="curve"/>
			<point x="183.9" y="482.7"/>
			<point x="233.9" y="558.8"/>
			<point x="330.7" y="659" type="curve"/>
			<point x="337" y="689.6"/>
			<point x="326.5" y="705.3"/>
			<point x="306.2" y="710.9" type="curve"/>
			<point x="278.7" y="710.9" type="line"/>
			<point x="200.9" y="642.3"/>
			<point x="133.3" y="537.8"/>
			<point x="91.9" y="423.7" type="curve" smooth="yes"/>
			<point x="78.7" y="388.7"/>
			<point x="72" y="361.6"/>
			<point x="72" y="350.6" type="curve" smooth="yes"/>
			<point x="72" y="333.4"/>
			<point x="98.2" y="320.2"/>
		</contour>
		<contour>
			<point x="142.9" y="386.3" type="curve"/>
			<point x="98.2" y="380.7"/>
			<point x="72" y="367.8"/>
			<point x="72" y="350.6" type="curve" smooth="yes"/>
			<point x="72" y="339.6"/>
			<point x="79.4" y="311.8"/>
			<point x="91.9" y="277.5" type="curve" smooth="yes"/>
			<point x="127" y="170.6"/>
			<point x="179.9" y="88.8"/>
			<point x="243.6" y="19.3" type="curve" smooth="yes"/>
			<point x="264.4" y="-3.5"/>
			<point x="276" y="-10"/>
			<point x="294" y="-10" type="curve" smooth="yes"/>
			<point x="302" y="-10" type="line" smooth="yes"/>
			<point x="318.2" y="-10"/>
			<point x="339.3" y="15.9"/>
			<point x="349.5" y="40.4" type="curve"/>
			<point x="338.3" y="40.4" type="line" smooth="yes"/>
			<point x="333.9" y="40.4"/>
			<point x="327.6" y="42.4"/>
			<point x="322.3" y="48.4" type="curve" smooth="yes"/>
			<point x="224.5" y="146"/>
			<point x="183.9" y="214.1"/>
		</contour>
		<contour>
			<point x="461.6" y="314.6" type="curve"/>
			<point x="506.6" y="320.2"/>
			<point x="532.5" y="333.4"/>
			<point x="532.5" y="350.6" type="curve" smooth="yes"/>
			<point x="532.5" y="361.6"/>
			<point x="525.1" y="389.4"/>
			<point x="512.9" y="423.7" type="curve" smooth="yes"/>
			<point x="476.8" y="530"/>
			<point x="424.6" y="612.1"/>
			<point x="360.9" y="681.3" type="curve" smooth="yes"/>
			<point x="340.1" y="704.4"/>
			<point x="328.5" y="710.9"/>
			<point x="310.2" y="710.9" type="curve" smooth="yes"/>
			<point x="302.2" y="710.9" type="line" smooth="yes"/>
			<point x="286.3" y="710.9"/>
			<point x="265.2" y="685"/>
			<point x="255" y="660.5" type="curve"/>
			<point x="266.2" y="660.5" type="line" smooth="yes"/>
			<point x="270.6" y="660.5"/>
			<point x="277.2" y="658.5"/>
			<point x="282.5" y="652.5" type="curve" smooth="yes"/>
			<point x="380" y="554.6"/>
			<point x="420.9" y="486.8"/>
		</contour>
		<contour>
			<point x="462.3" y="386.3" type="curve"/>
			<point x="420.9" y="218.2"/>
			<point x="370.6" y="141.8"/>
			<point x="274.1" y="41.9" type="curve"/>
			<point x="267.8" y="11.3"/>
			<point x="278" y="-4.4"/>
			<point x="298" y="-10" type="curve"/>
			<point x="325.8" y="-10" type="line"/>
			<point x="403.6" y="58.6"/>
			<point x="471.2" y="163.1"/>
			<point x="512.9" y="277.5" type="curve" smooth="yes"/>
			<point x="525.8" y="312.5"/>
			<point x="532.5" y="339.6"/>
			<point x="532.5" y="350.6" type="curve" smooth="yes"/>
			<point x="532.5" y="367.8"/>
			<point x="506.6" y="380.7"/>
		</contour>
	</outline>
	<guideline x="0" y="0" angle="90" identifier="jUgtHIqXAp"/>
</glyph>
<glyph name="circumflexcomb.case" format="2">
	<outline>
		<contour>
			<point x="-135.1" y="770.7" type="line"/>
			<point x="-102" y="820.9"/>
			<point x="-39.5" y="868.5"/>
			<point x="27" y="887.2" type="curve"/>
			<point x="28" y="921.8"/>
			<point x="14.5" y="937"/>
			<point x="-5.1" y="937" type="curve"/>
			<point x="-23.8" y="937" type="line"/>
			<point x="-79.1" y="917.6"/>
			<point x="-129.4" y="878.7"/>
			<point x="-166.3" y="838.2" type="curve" smooth="yes"/>
			<point x="-187.1" y="815.8"/>
			<point x="-194.1" y="798.8"/>
			<point x="-194.1" y="792.1" type="curve" smooth="yes"/>
			<point x="-194.1" y="779.1"/>
			<point x="-171.6" y="770.7"/>
			<point x="-141.1" y="770.7" type="curve"/>
		</contour>
		<contour>
			<point x="207.4" y="782.6" type="curve"/>
			<point x="171.3" y="841.6"/>
			<point x="118" y="886.1"/>
			<point x="74.1" y="913.2" type="curve" smooth="yes"/>
			<point x="35.5" y="936"/>
			<point x="17.9" y="937"/>
			<point x="1.7" y="937" type="curve" smooth="yes"/>
			<point x="-7.4" y="937" type="line"/>
			<point x="-17.9" y="937"/>
			<point x="-26.2" y="924.5"/>
			<point x="-30.1" y="887.3" type="curve"/>
			<point x="34.1" y="868.7"/>
			<point x="77.3" y="838.6"/>
			<point x="115.8" y="796.4" type="curve" smooth="yes"/>
			<point x="131.9" y="778.6"/>
			<point x="141.2" y="772.8"/>
			<point x="160.4" y="772.8" type="curve" smooth="yes"/>
			<point x="179.9" y="772.8"/>
			<point x="193" y="775.4"/>
		</contour>
	</outline>
	<anchor name="_top" x="0" y="711.3"/>
</glyph>
<glyph name="commaaboverightcomb.case" format="2">
	<outline>
		<contour>
			<point x="-21.8" y="480.1" type="curve" smooth="yes"/>
			<point x="-7.6" y="480.1"/>
			<point x="0.4" y="483"/>
			<point x="8.5" y="491.1" type="curve" smooth="yes"/>
			<point x="38.9" y="521.5"/>
			<point x="55.7" y="599"/>
			<point x="55.7" y="667.5" type="curve" smooth="yes"/>
			<point x="55.7" y="698.4"/>
			<point x="35.1" y="709.7"/>
			<point x="8.5" y="709.7" type="curve" smooth="yes"/>
			<point x="-4.9" y="709.7"/>
			<point x="-12.9" y="707.7"/>
			<point x="-24.7" y="703.5" type="curve"/>
			<point x="-24.7" y="613.2"/>
			<point x="-30.1" y="565.3"/>
			<point x="-55" y="487.9" type="curve"/>
			<point x="-45.7" y="482.4"/>
			<point x="-37.3" y="480.1"/>
		</contour>
	</outline>
	<anchor name="_caronslovak" x="0" y="550"/>
</glyph>
<glyph name="commaturnedabovecomb.case" format="2">
	<outline>
		<contour>
			<point x="34.4" y="936.2" type="curve" smooth="yes"/>
			<point x="20.35" y="936.2"/>
			<point x="14.744453125" y="933.044453125"/>
			<point x="5.4" y="923.7" type="curve"/>
			<point x="-24.3494977796" y="893.9505022204"/>
			<point x="-45.6" y="851.6938461538"/>
			<point x="-45.6" y="802.4" type="curve" smooth="yes"/>
			<point x="-45.6" y="775"/>
			<point x="-29.7" y="767.4"/>
			<point x="0" y="767.4" type="curve" smooth="yes"/>
			<point x="14.1" y="767.4"/>
			<point x="24.2" y="769.4"/>
			<point x="36.7" y="774.3" type="curve"/>
			<point x="36.7" y="839.8310810811"/>
			<point x="44.2" y="872.2"/>
			<point x="75.5" y="927.3" type="curve"/>
			<point x="62.7" y="933.7"/>
			<point x="50.72" y="936.2"/>
		</contour>
	</outline>
	<anchor name="_top" x="0" y="711"/>
</glyph>
<glyph name="dotlessij" format="2">
	<advance width="600"/>
	<outline>
		<contour>
			<point x="90.7" y="438.2" type="curve"/>
			<point x="90.7" y="141.8" type="line" smooth="yes"/>
			<point x="90.7" y="55.3"/>
			<point x="152.7" y="11.3"/>
			<point x="200.9" y="22.8" type="curve"/>
			<point x="176.4" y="67.3"/>
			<point x="172.2" y="98.8"/>
			<point x="172.2" y="171.3" type="curve" smooth="yes"/>
			<point x="172.2" y="448" type="line" smooth="yes"/>
			<point x="172.2" y="482.5"/>
			<point x="168.7" y="502.7"/>
			<point x="154.3" y="517.1" type="curve" smooth="yes"/>
			<point x="141" y="530.4"/>
			<point x="118.9" y="534.2"/>
			<point x="102.9" y="534.2" type="curve" smooth="yes"/>
			<point x="95.2" y="534.2"/>
			<point x="86.8" y="533.2"/>
			<point x="79.1" y="530.9" type="curve"/>
			<point x="88.1" y="501.2"/>
			<point x="90.7" y="482.8"/>
		</contour>
		<contour>
			<point x="317.4" y="89.4" type="curve"/>
			<point x="313.4" y="89.4" type="line"/>
			<point x="297.1526234647" y="76.1941716556"/>
			<point x="272.0073529411" y="70"/>
			<point x="242.9" y="70" type="curve" smooth="yes"/>
			<point x="180.9666666667" y="70"/>
			<point x="149.8522058814" y="102.0715557297"/>
			<point x="144" y="174.2" type="curve"/>
			<point x="108.3" y="174.2"/>
			<point x="90.7" y="164.9"/>
			<point x="90.7" y="141.8" type="curve" smooth="yes"/>
			<point x="90.7" y="48.5"/>
			<point x="139.9307782405" y="-10"/>
			<point x="227.6" y="-10" type="curve" smooth="yes"/>
			<point x="233.5" y="-10" type="line" smooth="yes"/>
			<point x="260.5551724138" y="-10"/>
			<point x="288.0099072495" y="-4.3900927505"/>
			<point x="300" y="7.6" type="curve" smooth="yes"/>
			<point x="310.8" y="18.4"/>
			<point x="318.9" y="42.4375"/>
			<point x="318.9" y="68.1" type="curve" smooth="yes"/>
			<point x="318.9" y="75"/>
			<point x="318.3" y="83.6"/>
		</contour>
		<contour>
			<point x="507.5" y="5.2" type="curve" smooth="yes"/>
			<point x="507.5" y="469.9" type="line" smooth="yes"/>
			<point x="507.5" y="526.3"/>
			<point x="475.8" y="535.8"/>
			<point x="445.2" y="535.8" type="curve"/>
			<point x="434.3" y="535.8"/>
			<point x="425.1" y="534.5"/>
			<point x="414.6" y="531.6" type="curve"/>
			<point x="423.6" y="503.8"/>
			<point x="426.6" y="483.6"/>
			<point x="426.6" y="442.6" type="curve"/>
			<point x="426.6" y="7" type="line" smooth="yes"/>
			<point x="426.6" y="-99.9"/>
			<point x="411.5" y="-137.5"/>
			<point x="358.2" y="-188.6" type="curve"/>
			<point x="415.7" y="-216.8"/>
			<point x="507.5" y="-115.5"/>
		</contour>
		<contour>
			<point x="281.1" y="-171.8" type="curve" smooth="yes"/>
			<point x="210.4" y="-171.8"/>
			<point x="172.1" y="-162.8"/>
			<point x="122.6" y="-134.4" type="curve"/>
			<point x="118.6" y="-134.4" type="line"/>
			<point x="117" y="-141.5"/>
			<point x="116" y="-151.4"/>
			<point x="116" y="-160.5" type="curve" smooth="yes"/>
			<point x="116" y="-183.5"/>
			<point x="121.4" y="-203.2"/>
			<point x="132.6" y="-214.4" type="curve" smooth="yes"/>
			<point x="152.7" y="-234.5"/>
			<point x="205.3" y="-250"/>
			<point x="277.7" y="-250" type="curve" smooth="yes"/>
			<point x="429.8" y="-250"/>
			<point x="508.1" y="-158.6"/>
			<point x="507.5" y="5.2" type="curve" smooth="yes"/>
			<point x="507.5" y="16.1"/>
			<point x="496.5" y="26.8"/>
			<point x="479.4" y="26.8" type="curve"/>
			<point x="455.9" y="-141.1"/>
			<point x="363.5" y="-171.8"/>
		</contour>
	</outline>
</glyph>
<glyph name="gravecomb.case" format="2">
	<outline>
		<contour>
			<point x="46.3" y="792.7" type="curve"/>
			<point x="-16.8" y="837"/>
			<point x="-59.3" y="880.3"/>
			<point x="-76.1" y="935.4" type="curve"/>
			<point x="-102.1" y="935.4"/>
			<point x="-117" y="933.2"/>
			<point x="-137.4" y="925.5" type="curve" smooth="yes"/>
			<point x="-151" y="920.2"/>
			<point x="-153.9" y="908"/>
			<point x="-149.3" y="897.2" type="curve" smooth="yes"/>
			<point x="-131.6" y="853.5"/>
			<point x="-98.6" y="819.5"/>
			<point x="-49.2" y="793" type="curve" smooth="yes"/>
			<point x="-34.6" y="785"/>
			<point x="-19.1" y="781.1"/>
			<point x="-1" y="781.1" type="curve" smooth="yes"/>
			<point x="15.2" y="781.1"/>
			<point x="29.2" y="783.4"/>
		</contour>
	</outline>
	<anchor name="_top" x="0" y="711.3"/>
</glyph>
